<svg width="1781" height="264" viewBox="0 0 1781 264" fill="none" xmlns="http://www.w3.org/2000/svg">
<g clip-path="url(#clip0_2508_203)">
<path d="M44 263.5C32.38 263.5 21.46 258.98 13.24 250.76C5.03 242.55 0.5 231.63 0.5 220V44C0.5 32.38 5.03 21.45 13.24 13.23C21.46 5.02 32.38 0.5 44 0.5C55.62 0.5 66.54 5.02 74.76 13.24L186.1 124.58C190.18 128.67 190.18 135.34 186.1 139.43C184.12 141.41 181.48 142.5 178.67 142.5C175.86 142.5 173.23 141.41 171.24 139.43L59.91 28.09C55.66 23.84 50 21.5 43.99 21.5C37.98 21.5 32.33 23.84 28.08 28.09C23.83 32.35 21.49 38 21.49 44V220C21.49 226.01 23.83 231.66 28.08 235.9C32.33 240.15 37.98 242.5 43.99 242.5C50 242.5 55.65 240.16 59.91 235.9L91.02 204.79C93 202.81 95.64 201.72 98.44 201.72C101.24 201.72 103.89 202.81 105.87 204.79C109.95 208.88 109.95 215.55 105.87 219.64L74.75 250.75C66.54 258.96 55.61 263.49 43.99 263.49L44 263.5Z" fill="white"/>
<path d="M44 1C55.49 1 66.28 5.47 74.4 13.59L185.74 124.93C189.63 128.83 189.63 135.18 185.74 139.08C183.85 140.97 181.34 142.01 178.67 142.01C176 142.01 173.49 140.97 171.6 139.09L87.22 54.69L60.27 27.74C55.92 23.4 50.14 21.01 44 21.01C37.86 21.01 32.08 23.4 27.74 27.75C23.4 32.1 21.01 37.88 21.01 44.02V220.02C21.01 226.16 23.4 231.94 27.74 236.28C32.08 240.63 37.86 243.02 44 243.02C50.14 243.02 55.92 240.63 60.27 236.28L78.49 218.06L87.22 209.33L91.38 205.17C93.27 203.28 95.78 202.25 98.45 202.25C101.12 202.25 103.64 203.29 105.53 205.17C109.42 209.07 109.42 215.42 105.53 219.32L74.41 250.43C66.29 258.55 55.49 263.02 44.01 263.02C32.53 263.02 21.73 258.55 13.61 250.43C5.49 242.32 1.01 231.52 1.01 220.03V44.01C1.01 32.52 5.48 21.72 13.61 13.6C21.72 5.47 32.51 1 44 1ZM44 0C32.74 0 21.48 4.3 12.89 12.89C4.29 21.49 0 32.75 0 44.01V220.01C0 231.27 4.29 242.53 12.89 251.12C21.48 259.71 32.74 264.01 44 264.01C55.26 264.01 66.52 259.71 75.11 251.12L106.23 220.01C110.52 215.71 110.52 208.75 106.23 204.45C104.08 202.31 101.26 201.23 98.45 201.23C95.64 201.23 92.82 202.3 90.67 204.45L86.51 208.61L77.78 217.34L59.56 235.56C55.26 239.86 49.63 242.01 44 242.01C38.37 242.01 32.74 239.86 28.44 235.56C24.15 231.27 22 225.63 22 220.01V44.01C22 38.37 24.15 32.75 28.44 28.45C32.73 24.16 38.36 22.01 44 22.01C49.64 22.01 55.26 24.16 59.56 28.45L86.51 55.4L170.89 139.79C173.04 141.94 175.85 143.01 178.67 143.01C181.49 143.01 184.3 141.94 186.45 139.79C190.74 135.49 190.74 128.53 186.45 124.23L75.11 12.89C66.52 4.3 55.26 0 44 0Z" fill="white"/>
<path d="M277.611 44V220C277.611 231.26 273.311 242.52 264.721 251.12C247.541 268.3 219.681 268.3 202.491 251.12L91.1605 139.78C86.8605 135.49 86.8605 128.52 91.1605 124.23C95.4605 119.93 102.421 119.93 106.721 124.23L218.051 235.56C226.641 244.15 240.571 244.15 249.161 235.56C253.461 231.26 255.611 225.64 255.611 220V44C255.611 38.38 253.461 32.74 249.161 28.45C240.571 19.86 226.641 19.86 218.051 28.45L201.081 45.42L191.101 55.4L186.941 59.56C182.641 63.86 175.681 63.86 171.381 59.56C167.091 55.27 167.091 48.3 171.381 44L202.491 12.89C219.681 -4.29 247.541 -4.29 264.721 12.89C273.311 21.48 277.611 32.74 277.611 44Z" fill="white"/>
<path d="M911.73 11.39V252.62C911.73 258.7 906.81 263.62 900.73 263.62C894.65 263.62 889.73 258.7 889.73 252.62V46.28L810.49 159.45L806.2 165.57C806.15 165.64 806.1 165.71 806.06 165.78C806.03 165.82 806 165.86 805.97 165.89C805.88 166.02 805.79 166.15 805.68 166.28C805.66 166.3 805.64 166.33 805.63 166.35C805.52 166.49 805.41 166.62 805.29 166.75C805.17 166.88 805.06 167 804.94 167.12C804.78 167.28 804.62 167.44 804.45 167.59C804.28 167.74 804.11 167.89 803.93 168.03C803.75 168.18 803.56 168.32 803.37 168.45C803.22 168.56 803.07 168.66 802.91 168.75C802.91 168.76 802.9 168.76 802.89 168.76C802.73 168.86 802.57 168.96 802.4 169.05C802.24 169.15 802.07 169.24 801.9 169.32C801.88 169.33 801.86 169.34 801.83 169.35C801.64 169.45 801.45 169.53 801.25 169.61C800.72 169.84 800.18 170.01 799.63 170.14C799.47 170.18 799.31 170.21 799.14 170.24C799.07 170.26 799 170.27 798.92 170.28C798.75 170.31 798.57 170.34 798.39 170.35C798.36 170.37 798.33 170.37 798.29 170.37C798.12 170.39 797.94 170.41 797.77 170.41C797.3 170.45 796.83 170.45 796.36 170.41C796.19 170.41 796.01 170.39 795.84 170.37C795.8 170.37 795.77 170.37 795.74 170.35C795.56 170.34 795.38 170.31 795.21 170.28C795.13 170.27 795.06 170.26 794.99 170.24C794.82 170.21 794.66 170.18 794.5 170.14C793.95 170.01 793.4 169.83 792.88 169.61C792.71 169.55 792.55 169.47 792.39 169.39C792.28 169.35 792.17 169.3 792.07 169.24C791.79 169.1 791.52 168.94 791.25 168.77C791.1 168.68 790.95 168.58 790.8 168.48C790.8 168.48 790.77 168.47 790.76 168.45C790.57 168.32 790.38 168.18 790.2 168.03C790.02 167.89 789.85 167.74 789.68 167.59C789.51 167.44 789.35 167.28 789.19 167.12C789.07 167 788.95 166.88 788.84 166.75C788.72 166.62 788.61 166.49 788.5 166.35C788.48 166.32 788.46 166.3 788.45 166.28C788.34 166.15 788.25 166.02 788.16 165.89C788.14 165.88 788.13 165.86 788.12 165.85L788.07 165.78L788.05 165.75C788.05 165.75 788 165.68 787.98 165.64L787.93 165.57L783.64 159.44L704.4 46.28V252.62C704.4 258.7 699.47 263.62 693.4 263.62C687.33 263.62 682.4 258.7 682.4 252.62V11.06C682.4 10.95 682.4 10.85 682.41 10.74C682.41 10.52 682.44 10.31 682.47 10.09C682.49 9.89001 682.52 9.68001 682.56 9.47001C682.59 9.34 682.61 9.2 682.64 9.07C682.66 8.97 682.68 8.87 682.71 8.76C682.75 8.59 682.8 8.42 682.85 8.25C682.88 8.13 682.92 8.02 682.96 7.9C683.32 6.82 683.84 5.8 684.52 4.87C684.64 4.72 684.75 4.58 684.86 4.44C684.98 4.29 685.1 4.15001 685.23 4.01C685.48 3.73001 685.75 3.47 686.03 3.21C686.19 3.07 686.36 2.92 686.53 2.79C686.71 2.64 686.9 2.5 687.09 2.37C687.33 2.2 687.57 2.05 687.81 1.9C688.06 1.75 688.31 1.61 688.57 1.49C688.82 1.36 689.08 1.25 689.34 1.15C689.6 1.04 689.87 0.950005 690.13 0.870005C690.34 0.800005 690.56 0.740005 690.77 0.690005C690.84 0.670005 690.91 0.660005 690.97 0.640005C691.41 0.540005 691.85 0.470005 692.29 0.430005C692.66 0.390005 693.03 0.380005 693.4 0.380005H693.47C693.68 0.380005 693.89 0.390005 694.09 0.400005C694.29 0.410005 694.48 0.430005 694.67 0.450005C694.89 0.480005 695.1 0.510005 695.31 0.550005C695.53 0.590005 695.74 0.630005 695.95 0.680005C696.16 0.730005 696.37 0.790005 696.57 0.850005C696.78 0.910005 696.99 0.980005 697.19 1.06C697.39 1.13 697.6 1.21 697.79 1.3C698.19 1.47 698.58 1.67 698.96 1.89C699.35 2.12 699.73 2.37 700.09 2.65C700.25 2.77 700.4 2.9 700.55 3.03C700.63 3.1 700.71 3.17 700.79 3.25C700.92 3.36 701.04 3.48 701.16 3.6C701.53 3.96 701.87 4.35 702.18 4.77C702.25 4.86 702.31 4.95 702.37 5.04C702.43 5.12 702.48 5.19 702.53 5.27L797.05 140.26L891.61 5.24L891.74 5.05C891.87 4.87001 892 4.69 892.14 4.52C892.27 4.36 892.4 4.2 892.54 4.04C892.86 3.69 893.2 3.36 893.55 3.06C893.71 2.92 893.87 2.78 894.04 2.66001C894.59 2.23001 895.17 1.87 895.77 1.57C895.96 1.48 896.14 1.39 896.33 1.31C896.52 1.22 896.73 1.14 896.93 1.07C896.93 1.07 896.937 1.06667 896.95 1.06C897.15 0.990005 897.35 0.920005 897.55 0.860005C897.78 0.790005 898.01 0.730005 898.25 0.670005C898.43 0.630005 898.62 0.590005 898.81 0.560005C899.02 0.520005 899.23 0.490005 899.45 0.470005C899.66 0.440005 899.88 0.420005 900.09 0.410005C900.3 0.400005 900.52 0.390005 900.73 0.390005H900.75C901 0.390005 901.25 0.400005 901.5 0.420005C901.86 0.440005 902.22 0.480005 902.58 0.550005C902.74 0.570005 902.89 0.600005 903.05 0.630005C903.19 0.670005 903.34 0.700005 903.48 0.740005C903.93 0.850005 904.38 1 904.82 1.18C905.07 1.27 905.31 1.38 905.55 1.5C905.81 1.62 906.06 1.76 906.31 1.91C906.5 2.02 906.69 2.14 906.88 2.27L907.07 2.4C907.25 2.53 907.43 2.66 907.6 2.8C907.76 2.93001 907.92 3.06 908.08 3.20001C909.11 4.12001 909.93 5.21 910.53 6.39C910.63 6.59 910.72 6.78 910.81 6.98C910.9 7.18 910.98 7.38 911.05 7.59C911.06 7.59 911.06 7.6 911.06 7.61C911.13 7.8 911.2 8 911.26 8.2C911.33 8.43 911.4 8.67 911.45 8.92C911.49 9.09 911.52 9.25 911.55 9.42C911.64 9.86 911.69 10.3 911.71 10.75C911.72 10.96 911.73 11.18 911.73 11.39Z" fill="white"/>
<path d="M575.711 11.36V164.64C575.711 219.32 531.391 263.64 476.711 263.64C422.031 263.64 377.711 219.32 377.711 164.64V11.36C377.711 5.27999 382.641 0.359985 388.711 0.359985C394.781 0.359985 399.711 5.27999 399.711 11.36V164.64C399.711 207.17 434.191 241.64 476.711 241.64C519.231 241.64 553.711 207.17 553.711 164.64V11.36C553.711 5.27999 558.641 0.359985 564.711 0.359985C570.781 0.359985 575.711 5.27999 575.711 11.36Z" fill="white"/>
<path d="M1194.41 252.81C1194.41 258.89 1189.48 263.81 1183.41 263.81V263.86H1029.41C1023.33 263.86 1018.41 258.94 1018.41 252.86V11.14C1018.41 5.06001 1023.33 0.140015 1029.41 0.140015H1183.41V0.190015C1189.48 0.190015 1194.41 5.11001 1194.41 11.19C1194.41 17.27 1189.48 22.19 1183.41 22.19V22.24H1040.41V121.39H1171.69C1177.77 121.39 1182.69 126.32 1182.69 132.39C1182.69 138.46 1177.77 143.39 1171.69 143.39H1040.41V241.76H1183.41V241.81C1189.48 241.81 1194.41 246.74 1194.41 252.81Z" fill="white"/>
<path d="M1779.38 248.58L1779.14 248.05L1668.68 11.17L1666.79 7.12001L1666.77 7.07001L1666.75 7.03001L1666.67 6.85001L1666.27 6.00001L1666.22 5.90001V5.87001L1666.17 5.80001C1666.15 5.77001 1666.13 5.73001 1666.11 5.70001C1665.98 5.49001 1665.86 5.28001 1665.72 5.08001C1665.66 4.98001 1665.6 4.89002 1665.53 4.80001C1665.45 4.67001 1665.36 4.55001 1665.26 4.43001C1665.12 4.24001 1664.97 4.06001 1664.82 3.89001C1664.78 3.84001 1664.74 3.79001 1664.69 3.74001C1664.54 3.58001 1664.39 3.43001 1664.24 3.28001C1664.21 3.24001 1664.17 3.21001 1664.14 3.18001C1664.06 3.10001 1663.97 3.02001 1663.88 2.94001C1663.85 2.90001 1663.81 2.88001 1663.78 2.86001C1663.62 2.71001 1663.45 2.57001 1663.27 2.44001C1663.2 2.39001 1663.13 2.33001 1663.06 2.27001C1663.04 2.26001 1663.02 2.25001 1663 2.23001C1662.91 2.16001 1662.81 2.09001 1662.71 2.03001C1662.68 2.01001 1662.65 1.99001 1662.62 1.97001C1662.6 1.95001 1662.58 1.93001 1662.55 1.93001C1662.38 1.81001 1662.2 1.70001 1662.01 1.60001C1661.98 1.58001 1661.96 1.56001 1661.93 1.55001C1661.92 1.53001 1661.91 1.53001 1661.9 1.53001C1661.84 1.50001 1661.78 1.47001 1661.72 1.43001C1661.61 1.38001 1661.5 1.32001 1661.38 1.26001C1661.34 1.24001 1661.29 1.22001 1661.25 1.20001C1661.23 1.19001 1661.22 1.18001 1661.2 1.18001L1661.03 1.10001C1661.03 1.10001 1660.96 1.07001 1660.92 1.05001C1660.88 1.04001 1660.84 1.02001 1660.8 0.990015C1660.8 0.990015 1660.78 0.990015 1660.76 0.980015C1660.76 0.970015 1660.74 0.970015 1660.72 0.960015C1660.71 0.960015 1660.69 0.950015 1660.67 0.940015C1660.66 0.930015 1660.65 0.930015 1660.63 0.930015C1660.57 0.910015 1660.52 0.890015 1660.46 0.870015C1660.44 0.850015 1660.41 0.850015 1660.39 0.840015C1660.37 0.820015 1660.35 0.820015 1660.33 0.810015H1660.32C1660.24 0.770015 1660.15 0.740015 1660.06 0.720015C1659.9 0.670015 1659.75 0.620015 1659.59 0.570015C1659.53 0.550015 1659.46 0.530015 1659.39 0.520015C1659.24 0.480015 1659.1 0.450015 1658.96 0.410015C1658.81 0.380015 1658.66 0.350015 1658.52 0.320015C1658.48 0.310015 1658.43 0.300015 1658.39 0.300015C1658.34 0.290015 1658.28 0.280015 1658.23 0.270015C1658.15 0.260015 1658.07 0.240015 1658 0.240015C1657.85 0.220015 1657.7 0.200015 1657.54 0.190015C1657.47 0.180015 1657.39 0.180015 1657.32 0.170015C1657.06 0.150015 1656.81 0.140015 1656.55 0.140015C1656.29 0.140015 1656.04 0.150015 1655.78 0.170015C1655.71 0.170015 1655.63 0.170015 1655.56 0.190015C1655.4 0.200015 1655.25 0.220015 1655.1 0.240015C1655.03 0.240015 1654.95 0.260015 1654.87 0.270015C1654.82 0.280015 1654.76 0.290015 1654.71 0.300015C1654.67 0.300015 1654.63 0.310015 1654.58 0.320015C1654.44 0.350015 1654.29 0.380015 1654.14 0.410015C1654 0.450015 1653.86 0.480015 1653.71 0.520015C1653.64 0.530015 1653.58 0.550015 1653.51 0.570015C1653.35 0.620015 1653.19 0.670015 1653.04 0.720015C1652.95 0.740015 1652.87 0.770015 1652.78 0.810015C1652.78 0.810015 1652.69 0.850015 1652.65 0.870015C1652.59 0.880015 1652.53 0.910015 1652.48 0.930015H1652.46L1652.26 1.03001L1651.53 1.37001L1651.44 1.41001L1651.33 1.46001C1651.33 1.46001 1651.25 1.51001 1651.21 1.53001C1651.17 1.55001 1651.13 1.57001 1651.1 1.60001C1650.97 1.67001 1650.85 1.74001 1650.72 1.82001C1650.71 1.82001 1650.71 1.83001 1650.71 1.83001C1650.6 1.89001 1650.5 1.96001 1650.4 2.03001C1650.21 2.16001 1650.02 2.30001 1649.84 2.44001C1649.66 2.57001 1649.49 2.71001 1649.33 2.86001C1649.3 2.88001 1649.27 2.90001 1649.23 2.94001C1649.14 3.02001 1649.06 3.10001 1648.98 3.18001C1648.95 3.20001 1648.91 3.24001 1648.87 3.28001C1648.72 3.43001 1648.57 3.58001 1648.42 3.74001C1648.37 3.79001 1648.33 3.84001 1648.29 3.89001C1648.17 4.03001 1648.05 4.18001 1647.93 4.33001C1647.9 4.36001 1647.87 4.40001 1647.85 4.43001C1647.83 4.45001 1647.81 4.48001 1647.79 4.51002C1647.75 4.56002 1647.71 4.62001 1647.67 4.67001C1647.67 4.69001 1647.64 4.71001 1647.63 4.73001C1647.54 4.84001 1647.46 4.96001 1647.39 5.08001C1647.33 5.16001 1647.28 5.23001 1647.24 5.31001C1647.15 5.44001 1647.08 5.57001 1647 5.71001C1646.97 5.75001 1646.95 5.79001 1646.93 5.83001C1646.9 5.88001 1646.87 5.93001 1646.85 5.98001C1646.82 6.01002 1646.8 6.05001 1646.79 6.09001C1646.77 6.12002 1646.75 6.16001 1646.73 6.20001C1646.68 6.29001 1646.64 6.38001 1646.6 6.48001C1646.57 6.54001 1646.54 6.61001 1646.51 6.67001C1646.51 6.67001 1646.51 6.67668 1646.5 6.69001C1646.5 6.69001 1646.47 6.76001 1646.46 6.79001C1646.38 6.98001 1646.3 7.18002 1646.23 7.38001C1646.2 7.44001 1646.18 7.50001 1646.16 7.56001C1646.16 7.61001 1646.13 7.66001 1646.11 7.71001C1646.11 7.69001 1646.11 7.68001 1646.11 7.66001C1646.12 7.63001 1646.14 7.59001 1646.15 7.56001C1646.17 7.49001 1646.19 7.43002 1646.22 7.36001C1646.25 7.26002 1646.29 7.17001 1646.33 7.07001C1646.35 7.01002 1646.38 6.95001 1646.4 6.89001L1644.4 11.17L1533.94 248.06L1533.7 248.58C1533.15 249.89 1532.84 251.34 1532.84 252.86C1532.84 258.93 1537.76 263.86 1543.84 263.86C1548.14 263.86 1551.86 261.39 1553.67 257.79L1553.98 257.14V257.11L1590.71 178.37H1722.37L1759.08 257.08L1759.1 257.14L1759.43 257.84C1761.25 261.41 1764.96 263.86 1769.24 263.86C1775.32 263.86 1780.24 258.93 1780.24 252.86C1780.24 251.34 1779.93 249.89 1779.38 248.58ZM1600.3 157.8L1656.54 37.2L1712.78 157.8H1600.3Z" fill="white"/>
<path d="M1463.44 247.98L1424.41 164.29C1448.62 148.29 1464.58 120.83 1464.58 89.64C1464.58 43.47 1429.59 4.90001 1384.69 0.140015H1296.69C1290.61 0.140015 1285.69 5.07001 1285.69 11.14V252.86C1285.69 258.21 1289.52 262.68 1294.59 263.66H1298.78C1303.86 262.68 1307.69 258.21 1307.69 252.86V179.08H1375.13C1378.36 179.08 1381.55 178.91 1384.69 178.57C1391.63 177.84 1398.33 176.31 1404.7 174.07L1443.44 257.14L1443.71 257.72C1445.5 261.36 1449.25 263.86 1453.58 263.86C1455 263.86 1456.36 263.59 1457.6 263.1L1458.82 262.53C1462.25 260.67 1464.58 257.03 1464.58 252.86C1464.58 251.34 1464.27 249.89 1463.72 248.58L1463.44 247.98ZM1375.13 157.08H1307.69V22.25H1372.65C1373.47 22.22 1374.3 22.2 1375.13 22.2C1375.96 22.2 1376.79 22.22 1377.61 22.25C1413.71 23.55 1442.58 53.22 1442.58 89.64C1442.58 126.06 1412.38 157.08 1375.13 157.08Z" fill="white"/>
</g>
<defs>
<clipPath id="clip0_2508_203">
<rect width="1780.24" height="264" fill="white"/>
</clipPath>
</defs>
</svg>
