<svg width="1038" height="152" viewBox="0 0 1038 152" fill="none" xmlns="http://www.w3.org/2000/svg">
<path d="M109.634 57.6926C122.068 66.6661 122.068 85.1804 109.634 94.154L35.6394 147.555C20.7703 158.286 1.0757e-05 147.661 8.35241e-06 129.324L-5.65293e-06 22.5225C-8.05752e-06 4.18559 20.7702 -6.43906 35.6393 4.29179L109.634 57.6926Z" fill="#C3D350"/>
<path d="M118.412 106.317C139.142 91.356 139.142 60.4892 118.412 45.5286L116.235 43.9583L171.199 4.29231C186.068 -6.43846 206.838 4.18591 206.838 22.5228L206.838 129.325C206.838 147.661 186.068 158.285 171.199 147.555L116.234 107.888L118.412 106.317Z" fill="#C3D350"/>
<path d="M109.634 57.6928C122.068 66.6664 122.068 85.1807 109.634 94.1542L35.6394 147.555C20.7703 158.286 1.0757e-05 147.661 8.35241e-06 129.324L-5.65293e-06 22.5227C-8.05752e-06 4.18584 20.7702 -6.43881 35.6393 4.29204L109.634 57.6928Z" fill="#C3D350"/>
<path d="M1034.71 49.3198L1002.86 51.28C1002.32 48.5575 1001.14 46.1072 999.348 43.9292C997.551 41.6967 995.182 39.927 992.242 38.6202C989.356 37.2589 985.898 36.5783 981.869 36.5783C976.478 36.5783 971.932 37.7218 968.229 40.0087C964.526 42.2412 962.675 45.236 962.675 48.9931C962.675 51.9879 963.873 54.5198 966.269 56.589C968.665 58.6581 972.776 60.3188 978.602 61.5712L1001.31 66.1451C1013.5 68.6498 1022.6 72.6792 1028.59 78.2331C1034.58 83.7871 1037.57 91.0835 1037.57 100.122C1037.57 108.344 1035.15 115.559 1030.3 121.767C1025.51 127.974 1018.92 132.82 1010.54 136.305C1002.21 139.735 992.596 141.45 981.706 141.45C965.098 141.45 951.867 137.993 942.011 131.078C932.21 124.108 926.465 114.633 924.777 102.654L959 100.857C960.034 105.921 962.539 109.787 966.514 112.455C970.489 115.069 975.58 116.376 981.787 116.376C987.886 116.376 992.786 115.205 996.489 112.864C1000.25 110.468 1002.15 107.392 1002.21 103.634C1002.15 100.476 1000.82 97.8899 998.204 95.8752C995.591 93.806 991.561 92.227 986.116 91.138L964.39 86.8091C952.139 84.3588 943.018 80.1117 937.029 74.0676C931.094 68.0236 928.126 60.3188 928.126 50.9533C928.126 42.8946 930.304 35.9521 934.66 30.1259C939.071 24.2997 945.251 19.8075 953.201 16.6493C961.205 13.4912 970.57 11.9121 981.297 11.9121C997.142 11.9121 1009.61 15.2608 1018.7 21.9583C1027.85 28.6557 1033.19 37.7762 1034.71 49.3198Z" fill="#C3D350"/>
<path d="M845.96 141.45C833.273 141.45 822.301 138.755 813.045 133.365C803.842 127.919 796.737 120.351 791.727 110.659C786.718 100.912 784.213 89.6133 784.213 76.763C784.213 63.8037 786.718 52.4779 791.727 42.7857C796.737 33.039 803.842 25.4703 813.045 20.0797C822.301 14.6346 833.273 11.9121 845.96 11.9121C858.647 11.9121 869.592 14.6346 878.794 20.0797C888.05 25.4703 895.184 33.039 900.193 42.7857C905.202 52.4779 907.707 63.8037 907.707 76.763C907.707 89.6133 905.202 100.912 900.193 110.659C895.184 120.351 888.05 127.919 878.794 133.365C869.592 138.755 858.647 141.45 845.96 141.45ZM846.123 114.497C851.895 114.497 856.714 112.864 860.58 109.597C864.446 106.275 867.359 101.756 869.319 96.0385C871.334 90.3212 872.341 83.8143 872.341 76.5179C872.341 69.2215 871.334 62.7147 869.319 56.9973C867.359 51.28 864.446 46.7606 860.58 43.4391C856.714 40.1176 851.895 38.4568 846.123 38.4568C840.297 38.4568 835.397 40.1176 831.422 43.4391C827.501 46.7606 824.534 51.28 822.519 56.9973C820.559 62.7147 819.579 69.2215 819.579 76.5179C819.579 83.8143 820.559 90.3212 822.519 96.0385C824.534 101.756 827.501 106.275 831.422 109.597C835.397 112.864 840.297 114.497 846.123 114.497Z" fill="#C3D350"/>
<path d="M680.995 66.4718V139H646.201V13.5456H679.362V35.6799H680.832C683.609 28.3835 688.264 22.6117 694.798 18.3645C701.333 14.0629 709.255 11.9121 718.566 11.9121C727.278 11.9121 734.874 13.8179 741.354 17.6294C747.834 21.441 752.87 26.8861 756.464 33.9647C760.058 40.9888 761.855 49.3742 761.855 59.1209V139H727.061V65.3283C727.115 57.6507 725.155 51.6612 721.18 47.3596C717.205 43.0035 711.733 40.8255 704.763 40.8255C700.08 40.8255 695.942 41.8328 692.348 43.8475C688.809 45.8622 686.032 48.8025 684.017 52.6685C682.057 56.48 681.05 61.0811 680.995 66.4718Z" fill="#C3D350"/>
<path d="M561.829 141.45C549.142 141.45 538.17 138.755 528.914 133.365C519.712 127.919 512.606 120.351 507.596 110.659C502.587 100.912 500.082 89.6133 500.082 76.763C500.082 63.8037 502.587 52.4779 507.596 42.7857C512.606 33.039 519.712 25.4703 528.914 20.0797C538.17 14.6346 549.142 11.9121 561.829 11.9121C574.516 11.9121 585.461 14.6346 594.663 20.0797C603.92 25.4703 611.053 33.039 616.062 42.7857C621.072 52.4779 623.576 63.8037 623.576 76.763C623.576 89.6133 621.072 100.912 616.062 110.659C611.053 120.351 603.92 127.919 594.663 133.365C585.461 138.755 574.516 141.45 561.829 141.45ZM561.993 114.497C567.764 114.497 572.583 112.864 576.449 109.597C580.315 106.275 583.228 101.756 585.189 96.0385C587.203 90.3212 588.211 83.8143 588.211 76.5179C588.211 69.2215 587.203 62.7147 585.189 56.9973C583.228 51.28 580.315 46.7606 576.449 43.4391C572.583 40.1176 567.764 38.4568 561.993 38.4568C556.166 38.4568 551.266 40.1176 547.291 43.4391C543.37 46.7606 540.403 51.28 538.388 56.9973C536.428 62.7147 535.448 69.2215 535.448 76.5179C535.448 83.8143 536.428 90.3212 538.388 96.0385C540.403 101.756 543.37 106.275 547.291 109.597C551.266 112.864 556.166 114.497 561.993 114.497Z" fill="#C3D350"/>
<path d="M416.875 139V13.5457H450.607V35.4349H451.914C454.201 27.6484 458.04 21.7677 463.43 17.7928C468.821 13.7635 475.028 11.7488 482.053 11.7488C483.795 11.7488 485.674 11.8577 487.688 12.0755C489.703 12.2933 491.473 12.5928 492.997 12.9739V43.8475C491.364 43.3574 489.104 42.9218 486.218 42.5407C483.332 42.1595 480.691 41.969 478.295 41.969C473.177 41.969 468.603 43.0852 464.574 45.3177C460.599 47.4957 457.441 50.5449 455.099 54.4654C452.812 58.3859 451.669 62.9053 451.669 68.0236V139H416.875Z" fill="#C3D350"/>
<path d="M338.567 141.45C325.717 141.45 314.664 138.728 305.407 133.283C296.205 127.783 289.126 120.16 284.171 110.414C279.271 100.667 276.82 89.45 276.82 76.763C276.82 63.9126 279.298 52.6413 284.253 42.949C289.262 33.2024 296.368 25.6065 305.57 20.1614C314.772 14.6619 325.717 11.9121 338.404 11.9121C349.349 11.9121 358.932 13.8996 367.154 17.8745C375.376 21.8494 381.883 27.4306 386.675 34.6181C391.466 41.8056 394.107 50.2454 394.597 59.9377H361.763C360.838 53.6758 358.388 48.6391 354.413 44.8276C350.492 40.9616 345.347 39.0286 338.976 39.0286C333.585 39.0286 328.875 40.4988 324.846 43.4391C320.871 46.325 317.767 50.5449 315.535 56.0989C313.302 61.6529 312.186 68.3775 312.186 76.2729C312.186 84.2772 313.275 91.0835 315.453 96.6919C317.686 102.3 320.817 106.575 324.846 109.515C328.875 112.455 333.585 113.926 338.976 113.926C342.951 113.926 346.517 113.109 349.675 111.475C352.888 109.842 355.529 107.473 357.598 104.369C359.722 101.211 361.11 97.427 361.763 93.0165H394.597C394.053 102.6 391.439 111.04 386.756 118.336C382.128 125.578 375.73 131.241 367.562 135.325C359.395 139.409 349.73 141.45 338.567 141.45Z" fill="#C3D350"/>
</svg>
