<svg width="1365" height="182" viewBox="0 0 1365 182" fill="none" xmlns="http://www.w3.org/2000/svg">
<path d="M62.2372 181.239C49.3324 181.239 38.2244 178.626 28.9134 173.398C19.6567 168.117 12.5237 160.657 7.5142 151.019C2.50473 141.327 0 129.865 0 116.634C0 103.729 2.50473 92.4029 7.5142 82.6562C12.5237 72.9096 19.575 65.3137 28.6683 59.8686C37.8161 54.4235 48.5429 51.701 60.8487 51.701C69.1252 51.701 76.83 53.035 83.9631 55.7031C91.1506 58.3168 97.4124 62.2644 102.749 67.5462C108.139 72.8279 112.332 79.4709 115.327 87.4751C118.321 95.4249 119.819 104.736 119.819 115.408V124.964H13.8849V103.402H87.0668C87.0668 98.3925 85.9778 93.9548 83.7997 90.0888C81.6217 86.2228 78.5997 83.2008 74.7337 81.0227C70.9221 78.7902 66.4844 77.674 61.4205 77.674C56.1387 77.674 51.456 78.8991 47.3722 81.3494C43.3428 83.7453 40.1847 86.9851 37.8977 91.0689C35.6108 95.0982 34.4401 99.5904 34.3857 104.545V125.046C34.3857 131.254 35.5291 136.617 37.8161 141.136C40.1574 145.656 43.4517 149.141 47.6989 151.591C51.946 154.041 56.9827 155.266 62.8089 155.266C66.675 155.266 70.2143 154.722 73.4268 153.633C76.6394 152.544 79.3892 150.91 81.6761 148.732C83.9631 146.554 85.7055 143.886 86.9034 140.728L119.084 142.852C117.45 150.584 114.102 157.335 109.038 163.107C104.028 168.825 97.5485 173.29 89.5987 176.502C81.7034 179.66 72.5829 181.239 62.2372 181.239Z" fill="#EAEAEA"/>
<path d="M246.907 89.1087L215.053 91.0689C214.509 88.3463 213.338 85.8961 211.541 83.718C209.744 81.4856 207.376 79.7159 204.435 78.4091C201.549 77.0478 198.092 76.3672 194.062 76.3672C188.672 76.3672 184.125 77.5106 180.423 79.7976C176.72 82.0301 174.869 85.0248 174.869 88.782C174.869 91.7767 176.067 94.3087 178.462 96.3778C180.858 98.447 184.969 100.108 190.795 101.36L213.501 105.934C225.698 108.439 234.792 112.468 240.781 118.022C246.771 123.576 249.766 130.872 249.766 139.911C249.766 148.133 247.343 155.348 242.496 161.555C237.705 167.763 231.116 172.609 222.731 176.094C214.4 179.524 204.789 181.239 193.899 181.239C177.292 181.239 164.06 177.782 154.205 170.866C144.403 163.897 138.659 154.422 136.971 142.443L171.193 140.646C172.228 145.71 174.732 149.576 178.707 152.244C182.682 154.858 187.773 156.165 193.981 156.165C200.079 156.165 204.98 154.994 208.683 152.653C212.44 150.257 214.345 147.18 214.4 143.423C214.345 140.265 213.011 137.679 210.398 135.664C207.784 133.595 203.755 132.016 198.31 130.927L176.584 126.598C164.332 124.148 155.212 119.901 149.222 113.857C143.287 107.813 140.32 100.108 140.32 90.7422C140.32 82.6835 142.498 75.741 146.854 69.9148C151.264 64.0885 157.444 59.5964 165.394 56.4382C173.398 53.2801 182.764 51.701 193.491 51.701C209.336 51.701 221.805 55.0497 230.898 61.7472C240.046 68.4446 245.382 77.5651 246.907 89.1087Z" fill="#EAEAEA"/>
<path d="M338.405 53.3345V79.4709H262.854V53.3345H338.405ZM280.006 23.2777H314.8V140.238C314.8 143.451 315.29 145.955 316.27 147.752C317.251 149.495 318.612 150.72 320.354 151.428C322.151 152.135 324.22 152.489 326.562 152.489C328.195 152.489 329.829 152.353 331.462 152.081C333.096 151.754 334.348 151.509 335.219 151.346L340.692 177.237C338.949 177.782 336.499 178.408 333.341 179.116C330.183 179.878 326.344 180.341 321.824 180.504C313.439 180.831 306.088 179.715 299.772 177.156C293.51 174.596 288.637 170.621 285.152 165.231C281.667 159.84 279.952 153.034 280.006 144.812V23.2777Z" fill="#EAEAEA"/>
<path d="M361.07 178.789V53.3345H395.864V178.789H361.07ZM378.548 37.1626C373.376 37.1626 368.938 35.4474 365.235 32.017C361.587 28.5322 359.763 24.3667 359.763 19.5206C359.763 14.7289 361.587 10.6179 365.235 7.1875C368.938 3.70265 373.376 1.96022 378.548 1.96022C383.721 1.96022 388.132 3.70265 391.78 7.1875C395.483 10.6179 397.334 14.7289 397.334 19.5206C397.334 24.3667 395.483 28.5322 391.78 32.017C388.132 35.4474 383.721 37.1626 378.548 37.1626Z" fill="#EAEAEA"/>
<path d="M480.419 181.239C467.569 181.239 456.515 178.517 447.259 173.072C438.056 167.572 430.978 159.949 426.023 150.202C421.122 140.456 418.672 129.239 418.672 116.552C418.672 103.701 421.149 92.4302 426.104 82.7379C431.114 72.9912 438.22 65.3954 447.422 59.9503C456.624 54.4508 467.569 51.701 480.256 51.701C491.2 51.701 500.784 53.6884 509.006 57.6633C517.228 61.6383 523.735 67.2195 528.526 74.407C533.318 81.5945 535.959 90.0343 536.449 99.7266H503.615C502.689 93.4647 500.239 88.428 496.264 84.6165C492.344 80.7505 487.198 78.8175 480.827 78.8175C475.437 78.8175 470.727 80.2876 466.697 83.228C462.723 86.1139 459.619 90.3338 457.386 95.8878C455.154 101.442 454.038 108.166 454.038 116.062C454.038 124.066 455.127 130.872 457.305 136.481C459.537 142.089 462.668 146.364 466.697 149.304C470.727 152.244 475.437 153.714 480.827 153.714C484.802 153.714 488.369 152.898 491.527 151.264C494.74 149.631 497.38 147.262 499.45 144.158C501.573 141 502.962 137.216 503.615 132.805H536.449C535.904 142.389 533.291 150.829 528.608 158.125C523.98 165.367 517.582 171.03 509.414 175.114C501.246 179.197 491.581 181.239 480.419 181.239Z" fill="#EAEAEA"/>
<path d="M594.5 181.158C586.496 181.158 579.363 179.769 573.101 176.992C566.839 174.161 561.884 169.995 558.236 164.496C554.642 158.942 552.845 152.027 552.845 143.75C552.845 136.78 554.125 130.927 556.684 126.19C559.243 121.452 562.728 117.641 567.139 114.755C571.549 111.869 576.559 109.691 582.167 108.221C587.83 106.751 593.765 105.716 599.972 105.117C607.269 104.355 613.15 103.647 617.615 102.994C622.079 102.286 625.319 101.251 627.334 99.8899C629.349 98.5286 630.356 96.514 630.356 93.8459V93.3558C630.356 88.183 628.722 84.1809 625.455 81.3494C622.243 78.518 617.669 77.1023 611.734 77.1023C605.472 77.1023 600.49 78.4908 596.787 81.2678C593.084 83.9903 590.634 87.4207 589.436 91.5589L557.256 88.9453C558.889 81.3222 562.102 74.7337 566.894 69.1797C571.685 63.5713 577.865 59.2696 585.434 56.2748C593.057 53.2256 601.878 51.701 611.897 51.701C618.867 51.701 625.537 52.5178 631.908 54.1513C638.333 55.7848 644.023 58.3168 648.978 61.7472C653.988 65.1776 657.935 69.5881 660.821 74.9787C663.707 80.3149 665.15 86.7128 665.15 94.1726V178.789H632.153V161.392H631.173C629.158 165.312 626.463 168.77 623.087 171.765C619.711 174.705 615.654 177.019 610.917 178.707C606.18 180.341 600.708 181.158 594.5 181.158ZM604.465 157.145C609.583 157.145 614.102 156.138 618.023 154.123C621.943 152.054 625.02 149.277 627.252 145.792C629.485 142.307 630.601 138.359 630.601 133.949V120.636C629.512 121.344 628.015 121.997 626.109 122.596C624.257 123.14 622.161 123.658 619.82 124.148C617.478 124.583 615.137 124.992 612.796 125.373C610.454 125.7 608.331 125.999 606.425 126.271C602.341 126.87 598.775 127.823 595.725 129.13C592.676 130.437 590.307 132.206 588.62 134.439C586.932 136.617 586.088 139.339 586.088 142.607C586.088 147.344 587.803 150.965 591.233 153.469C594.718 155.92 599.128 157.145 604.465 157.145Z" fill="#EAEAEA"/>
<path d="M812.841 53.3345V79.4709H735.412V53.3345H812.841ZM753.136 178.789V44.2685C753.136 35.1752 754.905 27.6337 758.445 21.6442C762.038 15.6546 766.939 11.1624 773.146 8.1676C779.354 5.17281 786.405 3.67542 794.3 3.67542C799.637 3.67542 804.51 4.0838 808.92 4.90057C813.385 5.71733 816.707 6.45241 818.885 7.10582L812.678 33.2422C811.316 32.8066 809.628 32.3982 807.614 32.017C805.653 31.6359 803.639 31.4453 801.57 31.4453C796.451 31.4453 792.885 32.6432 790.87 35.0391C788.855 37.3804 787.848 40.6747 787.848 44.9219V178.789H753.136Z" fill="#EAEAEA"/>
<path d="M886.778 181.239C873.873 181.239 862.765 178.626 853.454 173.398C844.198 168.117 837.065 160.657 832.055 151.019C827.046 141.327 824.541 129.865 824.541 116.634C824.541 103.729 827.046 92.4029 832.055 82.6562C837.065 72.9096 844.116 65.3137 853.209 59.8686C862.357 54.4235 873.084 51.701 885.39 51.701C893.666 51.701 901.371 53.035 908.504 55.7031C915.692 58.3168 921.953 62.2644 927.29 67.5462C932.68 72.8279 936.873 79.4709 939.868 87.4751C942.863 95.4249 944.36 104.736 944.36 115.408V124.964H838.426V103.402H911.608C911.608 98.3925 910.519 93.9548 908.341 90.0888C906.163 86.2228 903.141 83.2008 899.275 81.0227C895.463 78.7902 891.025 77.674 885.961 77.674C880.68 77.674 875.997 78.8991 871.913 81.3494C867.884 83.7453 864.726 86.9851 862.439 91.0689C860.152 95.0982 858.981 99.5904 858.927 104.545V125.046C858.927 131.254 860.07 136.617 862.357 141.136C864.698 145.656 867.993 149.141 872.24 151.591C876.487 154.041 881.524 155.266 887.35 155.266C891.216 155.266 894.755 154.722 897.968 153.633C901.18 152.544 903.93 150.91 906.217 148.732C908.504 146.554 910.246 143.886 911.444 140.728L943.625 142.852C941.991 150.584 938.643 157.335 933.579 163.107C928.569 168.825 922.09 173.29 914.14 176.502C906.244 179.66 897.124 181.239 886.778 181.239ZM872.077 37.1626L889.392 0H921.572L896.661 37.1626H872.077Z" fill="#EAEAEA"/>
<path d="M967.066 178.789V53.3345H1000.8V75.2237H1002.1C1004.39 67.4373 1008.23 61.5566 1013.62 57.5817C1019.01 53.5523 1025.22 51.5376 1032.24 51.5376C1033.99 51.5376 1035.86 51.6465 1037.88 51.8643C1039.89 52.0821 1041.66 52.3816 1043.19 52.7628V83.6364C1041.55 83.1463 1039.29 82.7107 1036.41 82.3295C1033.52 81.9484 1030.88 81.7578 1028.49 81.7578C1023.37 81.7578 1018.79 82.8741 1014.76 85.1065C1010.79 87.2846 1007.63 90.3338 1005.29 94.2543C1003 98.1747 1001.86 102.694 1001.86 107.812V178.789H967.066Z" fill="#EAEAEA"/>
<path d="M1061.18 178.789V53.3345H1095.97V178.789H1061.18ZM1078.66 37.1626C1073.48 37.1626 1069.05 35.4474 1065.34 32.017C1061.69 28.5322 1059.87 24.3667 1059.87 19.5206C1059.87 14.7289 1061.69 10.6179 1065.34 7.1875C1069.05 3.70265 1073.48 1.96022 1078.66 1.96022C1083.83 1.96022 1088.24 3.70265 1091.89 7.1875C1095.59 10.6179 1097.44 14.7289 1097.44 19.5206C1097.44 24.3667 1095.59 28.5322 1091.89 32.017C1088.24 35.4474 1083.83 37.1626 1078.66 37.1626Z" fill="#EAEAEA"/>
<path d="M1159.62 181.158C1151.61 181.158 1144.48 179.769 1138.22 176.992C1131.96 174.161 1127 169.995 1123.35 164.496C1119.76 158.942 1117.96 152.027 1117.96 143.75C1117.96 136.78 1119.24 130.927 1121.8 126.19C1124.36 121.452 1127.85 117.641 1132.26 114.755C1136.67 111.869 1141.68 109.691 1147.28 108.221C1152.95 106.751 1158.88 105.716 1165.09 105.117C1172.39 104.355 1178.27 103.647 1182.73 102.994C1187.2 102.286 1190.44 101.251 1192.45 99.8899C1194.47 98.5286 1195.47 96.514 1195.47 93.8459V93.3558C1195.47 88.183 1193.84 84.1809 1190.57 81.3494C1187.36 78.518 1182.79 77.1023 1176.85 77.1023C1170.59 77.1023 1165.61 78.4908 1161.9 81.2678C1158.2 83.9903 1155.75 87.4207 1154.55 91.5589L1122.37 88.9453C1124.01 81.3222 1127.22 74.7337 1132.01 69.1797C1136.8 63.5713 1142.98 59.2696 1150.55 56.2748C1158.17 53.2256 1167 51.701 1177.01 51.701C1183.98 51.701 1190.65 52.5178 1197.03 54.1513C1203.45 55.7848 1209.14 58.3168 1214.1 61.7472C1219.1 65.1776 1223.05 69.5881 1225.94 74.9787C1228.82 80.3149 1230.27 86.7128 1230.27 94.1726V178.789H1197.27V161.392H1196.29C1194.28 165.312 1191.58 168.77 1188.2 171.765C1184.83 174.705 1180.77 177.019 1176.03 178.707C1171.3 180.341 1165.82 181.158 1159.62 181.158ZM1169.58 157.145C1174.7 157.145 1179.22 156.138 1183.14 154.123C1187.06 152.054 1190.14 149.277 1192.37 145.792C1194.6 142.307 1195.72 138.359 1195.72 133.949V120.636C1194.63 121.344 1193.13 121.997 1191.23 122.596C1189.37 123.14 1187.28 123.658 1184.94 124.148C1182.6 124.583 1180.25 124.992 1177.91 125.373C1175.57 125.7 1173.45 125.999 1171.54 126.271C1167.46 126.87 1163.89 127.823 1160.84 129.13C1157.79 130.437 1155.42 132.206 1153.74 134.439C1152.05 136.617 1151.2 139.339 1151.2 142.607C1151.2 147.344 1152.92 150.965 1156.35 153.469C1159.84 155.92 1164.25 157.145 1169.58 157.145Z" fill="#EAEAEA"/>
<path d="M1361.64 89.1087L1329.79 91.0689C1329.25 88.3463 1328.07 85.8961 1326.28 83.718C1324.48 81.4856 1322.11 79.7159 1319.17 78.4091C1316.29 77.0478 1312.83 76.3672 1308.8 76.3672C1303.41 76.3672 1298.86 77.5106 1295.16 79.7976C1291.46 82.0301 1289.6 85.0248 1289.6 88.782C1289.6 91.7767 1290.8 94.3087 1293.2 96.3778C1295.59 98.447 1299.71 100.108 1305.53 101.36L1328.24 105.934C1340.43 108.439 1349.53 112.468 1355.52 118.022C1361.51 123.576 1364.5 130.872 1364.5 139.911C1364.5 148.133 1362.08 155.348 1357.23 161.555C1352.44 167.763 1345.85 172.609 1337.47 176.094C1329.14 179.524 1319.53 181.239 1308.64 181.239C1292.03 181.239 1278.8 177.782 1268.94 170.866C1259.14 163.897 1253.4 154.422 1251.71 142.443L1285.93 140.646C1286.96 145.71 1289.47 149.576 1293.44 152.244C1297.42 154.858 1302.51 156.165 1308.72 156.165C1314.82 156.165 1319.72 154.994 1323.42 152.653C1327.18 150.257 1329.08 147.18 1329.14 143.423C1329.08 140.265 1327.75 137.679 1325.13 135.664C1322.52 133.595 1318.49 132.016 1313.05 130.927L1291.32 126.598C1279.07 124.148 1269.95 119.901 1263.96 113.857C1258.02 107.813 1255.06 100.108 1255.06 90.7422C1255.06 82.6835 1257.23 75.741 1261.59 69.9148C1266 64.0885 1272.18 59.5964 1280.13 56.4382C1288.13 53.2801 1297.5 51.701 1308.23 51.701C1324.07 51.701 1336.54 55.0497 1345.63 61.7472C1354.78 68.4446 1360.12 77.5651 1361.64 89.1087Z" fill="#EAEAEA"/>
</svg>
