<svg width="1038" height="186" viewBox="0 0 1038 186" fill="none" xmlns="http://www.w3.org/2000/svg">
<path d="M168.858 29.8857C153.315 29.8857 140.715 42.4857 140.715 58.0286L140.715 157.082C140.715 172.625 153.315 185.225 168.858 185.225C184.401 185.225 197.001 172.625 197.001 157.082L197.001 58.0287C197.001 42.4858 184.401 29.8857 168.858 29.8857Z" fill="#00C3B1"/>
<path d="M98.4984 -1.23017e-06C82.9555 -5.50764e-07 70.3555 12.6 70.3555 28.1429L70.3555 127.196C70.3555 142.739 82.9555 155.339 98.4984 155.339C114.041 155.339 126.641 142.739 126.641 127.196L126.641 28.1429C126.641 12.6 114.041 -1.90957e-06 98.4984 -1.23017e-06Z" fill="#00C3B1"/>
<path d="M28.1429 30.3577C12.6 30.3577 5.50764e-07 42.9577 1.23016e-06 58.5006L5.55992e-06 157.554C6.23932e-06 173.097 12.6 185.697 28.1429 185.697C43.6858 185.697 56.2858 173.097 56.2858 157.554L56.2858 58.5006C56.2858 42.9577 43.6858 30.3577 28.1429 30.3577Z" fill="#00C3B1"/>
<path d="M975.56 167.45C962.873 167.45 951.901 164.755 942.644 159.364C933.442 153.919 926.336 146.351 921.327 136.658C916.317 126.912 913.812 115.613 913.812 102.763C913.812 89.8034 916.317 78.4777 921.327 68.7854C926.336 59.0388 933.442 51.4701 942.644 46.0795C951.901 40.6344 962.873 37.9119 975.56 37.9119C988.247 37.9119 999.191 40.6344 1008.39 46.0795C1017.65 51.4701 1024.78 59.0388 1029.79 68.7854C1034.8 78.4777 1037.31 89.8034 1037.31 102.763C1037.31 115.613 1034.8 126.912 1029.79 136.658C1024.78 146.351 1017.65 153.919 1008.39 159.364C999.191 164.755 988.247 167.45 975.56 167.45ZM975.723 140.497C981.495 140.497 986.314 138.864 990.18 135.597C994.046 132.275 996.959 127.756 998.919 122.038C1000.93 116.321 1001.94 109.814 1001.94 102.518C1001.94 95.2213 1000.93 88.7144 998.919 82.9971C996.959 77.2798 994.046 72.7603 990.18 69.4389C986.314 66.1174 981.495 64.4566 975.723 64.4566C969.897 64.4566 964.996 66.1174 961.021 69.4389C957.101 72.7603 954.133 77.2798 952.119 82.9971C950.158 88.7144 949.178 95.2213 949.178 102.518C949.178 109.814 950.158 116.321 952.119 122.038C954.133 127.756 957.101 132.275 961.021 135.597C964.996 138.864 969.897 140.497 975.723 140.497Z" fill="#00C3B1"/>
<path d="M810.595 92.4715V165H775.801V39.5454H808.961V61.6796H810.431C813.208 54.3832 817.864 48.6114 824.398 44.3643C830.932 40.0627 838.855 37.9119 848.166 37.9119C856.878 37.9119 864.474 39.8176 870.953 43.6292C877.433 47.4407 882.47 52.8858 886.064 59.9644C889.657 66.9886 891.454 75.374 891.454 85.1207V165H856.66V91.3281C856.715 83.6505 854.754 77.6609 850.779 73.3593C846.805 69.0032 841.332 66.8252 834.363 66.8252C829.68 66.8252 825.542 67.8326 821.948 69.8472C818.409 71.8619 815.632 74.8022 813.617 78.6683C811.657 82.4798 810.649 87.0809 810.595 92.4715Z" fill="#00C3B1"/>
<path d="M667.519 92.4715V165H632.725V39.5454H665.885V61.6796H667.355C670.132 54.3832 674.788 48.6114 681.322 44.3643C687.856 40.0627 695.779 37.9119 705.09 37.9119C713.802 37.9119 721.398 39.8176 727.877 43.6292C734.357 47.4407 739.394 52.8858 742.987 59.9644C746.581 66.9886 748.378 75.374 748.378 85.1207V165H713.584V91.3281C713.638 83.6505 711.678 77.6609 707.703 73.3593C703.728 69.0032 698.256 66.8252 691.286 66.8252C686.604 66.8252 682.465 67.8326 678.872 69.8472C675.332 71.8619 672.555 74.8022 670.541 78.6683C668.58 82.4798 667.573 87.0809 667.519 92.4715Z" fill="#00C3B1"/>
<path d="M548.353 167.45C535.666 167.45 524.694 164.755 515.437 159.364C506.235 153.919 499.129 146.351 494.12 136.658C489.11 126.912 486.605 115.613 486.605 102.763C486.605 89.8034 489.11 78.4777 494.12 68.7854C499.129 59.0388 506.235 51.4701 515.437 46.0795C524.694 40.6344 535.666 37.9119 548.353 37.9119C561.04 37.9119 571.984 40.6344 581.186 46.0795C590.443 51.4701 597.576 59.0388 602.586 68.7854C607.595 78.4777 610.1 89.8034 610.1 102.763C610.1 115.613 607.595 126.912 602.586 136.658C597.576 146.351 590.443 153.919 581.186 159.364C571.984 164.755 561.04 167.45 548.353 167.45ZM548.516 140.497C554.288 140.497 559.107 138.864 562.973 135.597C566.839 132.275 569.752 127.756 571.712 122.038C573.727 116.321 574.734 109.814 574.734 102.518C574.734 95.2213 573.727 88.7144 571.712 82.9971C569.752 77.2798 566.839 72.7603 562.973 69.4389C559.107 66.1174 554.288 64.4566 548.516 64.4566C542.69 64.4566 537.789 66.1174 533.814 69.4389C529.894 72.7603 526.926 77.2798 524.912 82.9971C522.951 88.7144 521.971 95.2213 521.971 102.518C521.971 109.814 522.951 116.321 524.912 122.038C526.926 127.756 529.894 132.275 533.814 135.597C537.789 138.864 542.69 140.497 548.516 140.497Z" fill="#00C3B1"/>
<path d="M281.885 165V39.5454H315.045V61.6796H316.515C319.129 54.3288 323.485 48.5298 329.584 44.2826C335.682 40.0354 342.979 37.9119 351.473 37.9119C360.076 37.9119 367.4 40.0627 373.444 44.3643C379.488 48.6114 383.517 54.3832 385.532 61.6796H386.839C389.398 54.4921 394.026 48.7476 400.724 44.4459C407.475 40.0899 415.452 37.9119 424.655 37.9119C436.362 37.9119 445.863 41.6417 453.16 49.1015C460.51 56.5068 464.186 67.0158 464.186 80.6285V165H429.474V87.4893C429.474 80.5196 427.622 75.2923 423.92 71.8075C420.217 68.3226 415.589 66.5802 410.035 66.5802C403.718 66.5802 398.791 68.5949 395.251 72.6242C391.712 76.5991 389.942 81.8536 389.942 88.3877V165H356.21V86.7542C356.21 80.6013 354.44 75.7007 350.901 72.0525C347.416 68.4043 342.815 66.5802 337.098 66.5802C333.232 66.5802 329.747 67.5603 326.643 69.5205C323.594 71.4263 321.171 74.1216 319.374 77.6065C317.577 81.0369 316.679 85.0662 316.679 89.6945V165H281.885Z" fill="#00C3B1"/>
</svg>
