<svg width="978" height="214" viewBox="0 0 978 214" fill="none" xmlns="http://www.w3.org/2000/svg">
<path d="M190 149.315C190 154.405 190 158.916 189.654 162.715C189.277 166.836 188.446 170.855 186.376 174.834C184.306 178.812 181.491 181.799 178.332 184.47C175.42 186.933 171.725 189.52 167.558 192.438L157.619 199.398C151.739 203.517 146.593 207.122 142.015 209.593C137.068 212.264 131.821 214.168 125.716 213.988C119.61 213.808 114.485 211.598 109.704 208.64C105.278 205.904 100.353 202.001 94.7265 197.544L22.7423 140.53C18.058 136.821 14.0769 133.668 11.0352 130.859C7.87921 127.945 4.94561 124.71 3.01866 120.589C-1.00623 111.977 -1.00623 102.023 3.01866 93.4108C4.9456 89.29 7.87921 86.0545 11.0352 83.1408C14.0769 80.332 18.058 77.1784 22.7424 73.4691L94.7265 16.4548C100.353 11.9975 105.278 8.09648 109.704 5.35933C114.485 2.40201 119.61 0.191708 125.716 0.0117549C131.822 -0.168176 137.068 1.73622 142.015 4.40672C146.593 6.87838 151.739 10.4826 157.619 14.6007L167.558 21.5615C171.726 24.4798 175.42 27.0665 178.332 29.5294C181.491 32.2009 184.306 35.1875 186.376 39.1658C188.446 43.1442 189.277 47.1639 189.654 51.285C190 55.084 190 59.5958 190 64.6848L190 149.315Z" fill="#C71EDD"/>
<path d="M974.025 79.541L939.401 81.5082C938.81 78.7759 937.537 76.3169 935.584 74.1311C933.631 71.8907 931.056 70.1148 927.86 68.8033C924.723 67.4372 920.965 66.7541 916.585 66.7541C910.726 66.7541 905.784 67.9016 901.759 70.1967C897.735 72.4372 895.722 75.4426 895.722 79.2131C895.722 82.2186 897.025 84.7596 899.629 86.8361C902.233 88.9126 906.701 90.5792 913.034 91.8361L937.715 96.4262C950.972 98.9399 960.856 102.984 967.367 108.557C973.877 114.131 977.132 121.454 977.132 130.525C977.132 138.776 974.498 146.016 969.231 152.246C964.023 158.475 956.861 163.339 947.747 166.836C938.691 170.279 928.245 172 916.408 172C898.356 172 883.974 168.53 873.262 161.59C862.608 154.596 856.364 145.087 854.529 133.066L891.727 131.262C892.852 136.344 895.574 140.224 899.895 142.902C904.216 145.525 909.749 146.836 916.497 146.836C923.125 146.836 928.452 145.661 932.477 143.311C936.561 140.907 938.632 137.82 938.691 134.049C938.632 130.88 937.182 128.284 934.341 126.262C931.5 124.186 927.12 122.601 921.202 121.508L897.587 117.164C884.27 114.705 874.356 110.443 867.846 104.377C861.395 98.3115 858.169 90.5792 858.169 81.1803C858.169 73.0929 860.537 66.1257 865.271 60.2787C870.066 54.4317 876.783 49.9235 885.424 46.7541C894.124 43.5847 904.304 42 915.964 42C933.187 42 946.74 45.3607 956.624 52.082C966.568 58.8033 972.368 67.9563 974.025 79.541Z" fill="#C71EDD"/>
<path d="M792.496 115.934V43.6394H830.315V169.541H794.005V146.672H792.584C789.507 154.049 784.387 159.978 777.226 164.459C770.123 168.94 761.453 171.18 751.214 171.18C742.099 171.18 734.079 169.268 727.155 165.443C720.23 161.618 714.814 156.18 710.908 149.131C707.061 142.082 705.108 133.639 705.049 123.803V43.6394H742.868V117.574C742.928 125.006 745.088 130.88 749.349 135.197C753.611 139.514 759.322 141.672 766.483 141.672C771.041 141.672 775.302 140.716 779.268 138.803C783.233 136.836 786.429 133.94 788.856 130.115C791.341 126.29 792.555 121.563 792.496 115.934Z" fill="#C71EDD"/>
<path d="M593.1 43.6394L618.136 87.6558L643.793 43.6394H682.589L643.082 106.59L683.654 169.541H645.036L618.136 126.016L591.68 169.541H552.617L593.1 106.59L554.038 43.6394H593.1Z" fill="#C71EDD"/>
<path d="M476.667 172C462.64 172 450.566 169.377 440.445 164.131C430.384 158.831 422.63 151.344 417.185 141.672C411.74 131.945 409.018 120.443 409.018 107.164C409.018 94.2131 411.74 82.847 417.185 73.0656C422.63 63.2842 430.295 55.6612 440.179 50.1967C450.122 44.7322 461.782 42 475.157 42C484.154 42 492.528 43.3388 500.282 46.0164C508.094 48.6393 514.901 52.6011 520.701 57.9016C526.56 63.2022 531.117 69.8688 534.373 77.9016C537.628 85.8798 539.255 95.224 539.255 105.934V115.525H424.11V93.8852H503.655C503.655 88.8579 502.472 84.4044 500.104 80.5246C497.737 76.6448 494.452 73.612 490.25 71.4262C486.107 69.1858 481.283 68.0656 475.779 68.0656C470.038 68.0656 464.948 69.2951 460.509 71.7541C456.129 74.1585 452.697 77.4098 450.211 81.5082C447.725 85.5519 446.452 90.0601 446.393 95.0328V115.607C446.393 121.836 447.636 127.219 450.122 131.754C452.667 136.29 456.248 139.787 460.864 142.246C465.481 144.705 470.955 145.934 477.288 145.934C481.49 145.934 485.337 145.388 488.829 144.295C492.321 143.202 495.31 141.563 497.796 139.377C500.282 137.191 502.176 134.514 503.478 131.344L538.457 133.475C536.681 141.235 533.041 148.011 527.537 153.803C522.092 159.541 515.049 164.022 506.408 167.246C497.826 170.415 487.912 172 476.667 172Z" fill="#C71EDD"/>
<path d="M296.824 96.7541V169.541H259.004V43.6393H295.048V65.8525H296.646C299.664 58.5301 304.725 52.7377 311.827 48.4754C318.929 44.1585 327.541 42 337.662 42C347.131 42 355.388 43.9126 362.431 47.7377C369.474 51.5628 374.949 57.0273 378.855 64.1311C382.761 71.1803 384.714 79.5956 384.714 89.3771V169.541H346.895V95.6066C346.954 87.9016 344.823 81.8907 340.502 77.5738C336.182 73.2022 330.234 71.0164 322.658 71.0164C317.568 71.0164 313.07 72.0273 309.164 74.0492C305.317 76.071 302.298 79.0219 300.108 82.9016C297.978 86.7268 296.883 91.3443 296.824 96.7541Z" fill="#C71EDD"/>
</svg>
