<svg width="1057" height="130" viewBox="0 0 1057 130" fill="none" xmlns="http://www.w3.org/2000/svg">
<path d="M985.422 129.62C977.418 129.62 970.285 128.232 964.023 125.455C957.761 122.623 952.806 118.458 949.158 112.958C945.564 107.404 943.768 100.489 943.768 92.2126C943.768 85.2429 945.047 79.3894 947.606 74.6522C950.166 69.915 953.65 66.1034 958.061 63.2176C962.471 60.3317 967.481 58.1536 973.089 56.6835C978.752 55.2133 984.687 54.1787 990.895 53.5798C998.191 52.8175 1004.07 52.1096 1008.54 51.4562C1013 50.7483 1016.24 49.7138 1018.26 48.3525C1020.27 46.9912 1021.28 44.9766 1021.28 42.3085V41.8184C1021.28 36.6456 1019.64 32.6434 1016.38 29.812C1013.17 26.9806 1008.59 25.5648 1002.66 25.5648C996.394 25.5648 991.412 26.9533 987.709 29.7303C984.007 32.4529 981.556 35.8833 980.358 40.0215L948.178 37.4079C949.812 29.7848 953.024 23.1962 957.816 17.6423C962.608 12.0338 968.788 7.73222 976.356 4.73743C983.979 1.68819 992.8 0.163574 1002.82 0.163574C1009.79 0.163574 1016.46 0.980336 1022.83 2.61385C1029.26 4.24738 1034.95 6.77934 1039.9 10.2097C1044.91 13.6401 1048.86 18.0506 1051.74 23.4413C1054.63 28.7774 1056.07 35.1754 1056.07 42.6352V127.252H1023.08V109.855H1022.09C1020.08 113.775 1017.38 117.233 1014.01 120.227C1010.63 123.168 1006.58 125.482 1001.84 127.17C997.102 128.803 991.63 129.62 985.422 129.62ZM995.387 105.607C1000.51 105.607 1005.02 104.6 1008.95 102.585C1012.87 100.516 1015.94 97.7393 1018.17 94.2545C1020.41 90.7696 1021.52 86.822 1021.52 82.4114V69.0982C1020.43 69.8061 1018.94 70.4595 1017.03 71.0585C1015.18 71.603 1013.08 72.1202 1010.74 72.6103C1008.4 73.0459 1006.06 73.4543 1003.72 73.8354C1001.38 74.1621 999.253 74.4616 997.347 74.7339C993.263 75.3328 989.697 76.2857 986.648 77.5926C983.598 78.8994 981.23 80.669 979.542 82.9015C977.854 85.0795 977.01 87.8021 977.01 91.0691C977.01 95.8063 978.725 99.4273 982.155 101.932C985.64 104.382 990.051 105.607 995.387 105.607Z" fill="#EAEAEA"/>
<path d="M859.131 127.251V1.79688H892.863V23.6861H894.17C896.457 15.8996 900.296 10.0189 905.686 6.04404C911.077 2.01468 917.284 0 924.308 0C926.051 0 927.929 0.108905 929.944 0.326706C931.959 0.544516 933.728 0.843995 935.253 1.22514V32.0987C933.619 31.6087 931.36 31.1731 928.474 30.7919C925.588 30.4108 922.947 30.2202 920.551 30.2202C915.433 30.2202 910.859 31.3364 906.83 33.5689C902.855 35.7469 899.697 38.7962 897.355 42.7166C895.068 46.6371 893.925 51.1565 893.925 56.2749V127.251H859.131Z" fill="#EAEAEA"/>
<path d="M778.843 129.702C765.938 129.702 754.83 127.088 745.519 121.861C736.262 116.579 729.129 109.12 724.12 99.4818C719.11 89.7895 716.605 78.3276 716.605 65.0961C716.605 52.1913 719.11 40.8655 724.12 31.1188C729.129 21.3721 736.181 13.7763 745.274 8.33118C754.422 2.88611 765.148 0.163574 777.454 0.163574C785.731 0.163574 793.435 1.49762 800.569 4.1657C807.756 6.77934 814.018 10.727 819.354 16.0087C824.745 21.2905 828.937 27.9335 831.932 35.9377C834.927 43.8875 836.424 53.1986 836.424 63.871V73.4271H730.49V51.8646H803.672C803.672 46.8551 802.583 42.4174 800.405 38.5514C798.227 34.6853 795.205 31.6633 791.339 29.4853C787.528 27.2528 783.09 26.1366 778.026 26.1366C772.744 26.1366 768.061 27.3617 763.978 29.812C759.948 32.2078 756.79 35.4477 754.503 39.5315C752.216 43.5608 751.046 48.053 750.991 53.008V73.5087C750.991 79.7161 752.135 85.0795 754.422 89.5989C756.763 94.1184 760.057 97.6032 764.304 100.053C768.551 102.504 773.588 103.729 779.414 103.729C783.28 103.729 786.82 103.184 790.032 102.095C793.245 101.006 795.995 99.3728 798.282 97.1948C800.568 95.0168 802.311 92.3487 803.509 89.1906L835.689 91.3141C834.056 99.0461 830.707 105.798 825.643 111.57C820.634 117.287 814.154 121.752 806.204 124.965C798.309 128.123 789.188 129.702 778.843 129.702Z" fill="#EAEAEA"/>
<path d="M613.388 54.7232V127.252H578.594V1.79709H611.754V23.9313H613.224C616.001 16.6349 620.657 10.8631 627.191 6.61598C633.725 2.31438 641.648 0.163574 650.959 0.163574C659.671 0.163574 667.267 2.06935 673.746 5.8809C680.226 9.69245 685.263 15.1375 688.857 22.2161C692.45 29.2403 694.247 37.6257 694.247 47.3724V127.252H659.453V53.5798C659.508 45.9022 657.547 39.9126 653.572 35.611C649.598 31.255 644.125 29.0769 637.156 29.0769C632.473 29.0769 628.335 30.0843 624.741 32.0989C621.201 34.1136 618.424 37.054 616.41 40.92C614.45 44.7315 613.442 49.3326 613.388 54.7232Z" fill="#EAEAEA"/>
<path d="M515.969 73.8352V1.79688H550.763V127.251H517.357V104.464H516.05C513.219 111.815 508.509 117.723 501.92 122.188C495.386 126.652 487.409 128.885 477.989 128.885C469.604 128.885 462.226 126.979 455.855 123.168C449.484 119.356 444.502 113.938 440.908 106.914C437.369 99.8899 435.572 91.4773 435.518 81.6761V1.79688H470.312V75.4688C470.366 82.8741 472.354 88.7275 476.274 93.0291C480.194 97.3307 485.449 99.4815 492.037 99.4815C496.23 99.4815 500.151 98.5286 503.799 96.6229C507.447 94.6626 510.387 91.7768 512.62 87.9652C514.907 84.1536 516.023 79.4437 515.969 73.8352Z" fill="#EAEAEA"/>
<path d="M225.732 127.252V1.79709H258.893V23.9313H260.363C262.977 16.5805 267.333 10.7815 273.431 6.5343C279.53 2.28715 286.826 0.163574 295.32 0.163574C303.924 0.163574 311.247 2.31438 317.291 6.61598C323.335 10.8631 327.365 16.6349 329.379 23.9313H330.686C333.245 16.7438 337.874 10.9993 344.571 6.69765C351.323 2.3416 359.3 0.163574 368.502 0.163574C380.209 0.163574 389.711 3.89345 397.007 11.3532C404.358 18.7585 408.034 29.2675 408.034 42.8802V127.252H373.321V49.741C373.321 42.7713 371.47 37.544 367.767 34.0592C364.065 30.5743 359.436 28.8319 353.882 28.8319C347.566 28.8319 342.638 30.8466 339.099 34.8759C335.56 38.8508 333.79 44.1053 333.79 50.6394V127.252H300.058V49.0059C300.058 42.853 298.288 37.9524 294.749 34.3042C291.264 30.656 286.663 28.8319 280.945 28.8319C277.079 28.8319 273.595 29.812 270.491 31.7722C267.442 33.678 265.019 36.3733 263.222 39.8582C261.425 43.2886 260.526 47.3179 260.526 51.9462V127.252H225.732Z" fill="#EAEAEA"/>
<path d="M145.444 129.702C132.539 129.702 121.431 127.088 112.12 121.861C102.864 116.579 95.7307 109.12 90.7212 99.4818C85.7118 89.7895 83.207 78.3276 83.207 65.0961C83.207 52.1913 85.7118 40.8655 90.7212 31.1188C95.7307 21.3721 102.782 13.7763 111.875 8.33118C121.023 2.88611 131.75 0.163574 144.056 0.163574C152.332 0.163574 160.037 1.49762 167.17 4.1657C174.358 6.77934 180.619 10.727 185.956 16.0087C191.346 21.2905 195.539 27.9335 198.534 35.9377C201.529 43.8875 203.026 53.1986 203.026 63.871V73.4271H97.092V51.8646H170.274C170.274 46.8551 169.185 42.4174 167.007 38.5514C164.829 34.6853 161.807 31.6633 157.941 29.4853C154.129 27.2528 149.691 26.1366 144.627 26.1366C139.346 26.1366 134.663 27.3617 130.579 29.812C126.55 32.2078 123.392 35.4477 121.105 39.5315C118.818 43.5608 117.647 48.053 117.593 53.008V73.5087C117.593 79.7161 118.736 85.0795 121.023 89.5989C123.364 94.1184 126.659 97.6032 130.906 100.053C135.153 102.504 140.19 103.729 146.016 103.729C149.882 103.729 153.421 103.184 156.634 102.095C159.846 101.006 162.596 99.3728 164.883 97.1948C167.17 95.0168 168.913 92.3487 170.11 89.1906L202.291 91.3141C200.657 99.0461 197.309 105.798 192.245 111.57C187.235 117.287 180.756 121.752 172.806 124.965C164.91 128.123 155.79 129.702 145.444 129.702Z" fill="#EAEAEA"/>
<path d="M0 127.251V1.79688H33.7322V23.6861H35.0391C37.326 15.8996 41.1648 10.0189 46.5554 6.04404C51.946 2.01468 58.1534 0 65.1776 0C66.92 0 68.7985 0.108905 70.8132 0.326706C72.8279 0.544516 74.5975 0.843995 76.1222 1.22514V32.0987C74.4886 31.6087 72.2289 31.1731 69.343 30.7919C66.4572 30.4108 63.8163 30.2202 61.4205 30.2202C56.3021 30.2202 51.7282 31.3364 47.6989 33.5689C43.724 35.7469 40.5658 38.7962 38.2244 42.7166C35.9375 46.6371 34.794 51.1565 34.794 56.2749V127.251H0Z" fill="#EAEAEA"/>
</svg>
