<svg width="745" height="156" viewBox="0 0 745 156" fill="none" xmlns="http://www.w3.org/2000/svg">
<path d="M167.718 41.7071C171.15 42.5606 173.876 45.1634 174.888 48.5524L202.88 142.369C204.793 148.779 199.994 155.223 193.304 155.228L94.7943 155.296C91.2076 155.299 87.8942 153.38 86.1109 150.268L11.6509 20.3314C7.27218 12.6904 14.194 3.52968 22.7404 5.65495L167.718 41.7071Z" fill="#F5234C"/>
<path d="M673.922 154.729C665.918 154.729 658.785 153.34 652.523 150.563C646.261 147.732 641.306 143.566 637.658 138.067C634.064 132.513 632.268 125.598 632.268 117.321C632.268 110.352 633.547 104.498 636.106 99.7609C638.666 95.0236 642.15 91.2121 646.561 88.3262C650.971 85.4403 655.981 83.2623 661.589 81.7921C667.252 80.3219 673.187 79.2874 679.395 78.6884C686.691 77.9261 692.572 77.2182 697.037 76.5648C701.502 75.857 704.742 74.8224 706.756 73.4611C708.771 72.0999 709.778 70.0852 709.778 67.4171V66.927C709.778 61.7542 708.145 57.7521 704.878 54.9206C701.665 52.0892 697.091 50.6735 691.156 50.6735C684.894 50.6735 679.912 52.062 676.209 54.839C672.507 57.5615 670.056 60.9919 668.858 65.1302L636.678 62.5165C638.312 54.8934 641.524 48.3049 646.316 42.7509C651.108 37.1425 657.288 32.8409 664.856 29.8461C672.479 26.7968 681.3 25.2722 691.319 25.2722C698.289 25.2722 704.959 26.089 711.33 27.7225C717.755 29.356 723.445 31.888 728.4 35.3184C733.41 38.7488 737.358 43.1593 740.243 48.5499C743.129 53.8861 744.572 60.284 744.572 67.7438V152.36H711.575V134.963H710.595C708.58 138.884 705.885 142.341 702.509 145.336C699.133 148.276 695.077 150.591 690.339 152.279C685.602 153.912 680.13 154.729 673.922 154.729ZM683.887 130.716C689.005 130.716 693.525 129.709 697.445 127.694C701.366 125.625 704.442 122.848 706.675 119.363C708.907 115.878 710.023 111.931 710.023 107.52V94.2069C708.934 94.9147 707.437 95.5681 705.531 96.1671C703.68 96.7116 701.583 97.2289 699.242 97.7189C696.901 98.1545 694.559 98.5629 692.218 98.9441C689.876 99.2708 687.753 99.5703 685.847 99.8425C681.763 100.441 678.197 101.394 675.148 102.701C672.098 104.008 669.73 105.778 668.042 108.01C666.354 110.188 665.51 112.911 665.51 116.178C665.51 120.915 667.225 124.536 670.655 127.041C674.14 129.491 678.551 130.716 683.887 130.716Z" fill="#F5234C"/>
<path d="M529.866 79.8319V152.36H495.072V26.9057H528.233V49.04H529.703C532.48 41.7436 537.135 35.9718 543.67 31.7246C550.204 27.423 558.126 25.2722 567.437 25.2722C576.149 25.2722 583.745 27.178 590.225 30.9895C596.705 34.8011 601.741 40.2462 605.335 47.3248C608.929 54.3489 610.726 62.7343 610.726 72.481V152.36H575.932V78.6884C575.986 71.0108 574.026 65.0213 570.051 60.7197C566.076 56.3636 560.604 54.1856 553.634 54.1856C548.951 54.1856 544.813 55.1929 541.219 57.2076C537.68 59.2223 534.903 62.1626 532.888 66.0286C530.928 69.8402 529.921 74.4412 529.866 79.8319Z" fill="#F5234C"/>
<path d="M432.447 98.944V26.9056H467.241V152.36H433.836V129.573H432.529C429.697 136.923 424.987 142.831 418.399 147.296C411.865 151.761 403.888 153.994 394.468 153.994C386.082 153.994 378.704 152.088 372.333 148.276C365.963 144.465 360.98 139.047 357.387 132.023C353.847 124.999 352.051 116.586 351.996 106.785V26.9056H386.79V100.578C386.845 107.983 388.832 113.836 392.752 118.138C396.673 122.439 401.927 124.59 408.516 124.59C412.709 124.59 416.629 123.637 420.277 121.732C423.926 119.771 426.866 116.886 429.098 113.074C431.385 109.262 432.502 104.552 432.447 98.944Z" fill="#F5234C"/>
<path d="M257.885 152.36V26.9056H291.617V48.7949H292.924C295.211 41.0084 299.05 35.1277 304.44 31.1528C309.831 27.1234 316.038 25.1088 323.062 25.1088C324.805 25.1088 326.683 25.2177 328.698 25.4355C330.713 25.6533 332.482 25.9528 334.007 26.3339V57.2075C332.373 56.7174 330.114 56.2818 327.228 55.9007C324.342 55.5195 321.701 55.3289 319.305 55.3289C314.187 55.3289 309.613 56.4452 305.584 58.6777C301.609 60.8557 298.451 63.9049 296.109 67.8254C293.822 71.7458 292.679 76.2653 292.679 81.3836V152.36H257.885Z" fill="#F5234C"/>
</svg>
