<svg width="488" height="113" viewBox="0 0 488 113" fill="none" xmlns="http://www.w3.org/2000/svg">
<path d="M0.5 1.0103C0.77 1.0103 2.16984 2.0203 3.58984 3.2603C5.0199 4.50036 8.27991 7.68044 10.8398 10.3404C13.4 12.9905 19.9402 19.5205 25.3701 24.8404C30.7899 30.1601 36.6399 36.0393 38.3701 37.9195C40.09 39.7894 43.0399 42.7094 44.9199 44.4195C46.7999 46.1195 49.2699 48.5899 50.4199 49.8999C51.5598 51.2198 53.0694 52.7898 53.7695 53.3999C54.4695 54.0099 68.1596 67.5603 113.35 112.51L57.9297 112.77C27.4406 112.91 1.94131 112.8 1.25 112.52C0.270003 112.12 1.62737e-06 99.97 0 56.5103C0 25.9803 0.22 1.0103 0.5 1.0103ZM138.02 1.0103C143.6 1.0103 144.03 1.1803 144.5 3.5103C144.77 4.89013 145.45 6.0103 146 6.0103C146.55 6.0103 146.99 6.8003 146.97 7.7603C146.95 8.72049 147.62 10.8605 148.46 12.5103C149.3 14.1603 149.99 16.3004 149.99 17.2603C150 18.1603 150.396 18.9104 150.898 19.0005L151.102 19.0201C151.604 19.1227 152 19.9788 152 21.0103C152 22.1105 152.75 24.4705 153.67 26.2603C154.59 28.0503 155.71 30.3004 156.17 31.2603C156.63 32.2203 157 33.4604 157 34.0103C157 34.5609 157.71 36.7008 158.58 38.7603C159.45 40.8203 160.8 43.9704 161.58 45.7603C162.36 47.5502 163 49.4603 163 50.0103C162.999 50.59 160.619 50.9003 157.35 50.7603C153.56 50.5903 151.441 50.02 150.9 49.0103C150.46 48.1803 149.4 45.8201 147 40.0103L128.5 39.98L127.13 43.7496C126.37 45.8195 125.02 48.3095 124.13 49.2896C122.99 50.5396 121.06 51.0696 117.75 51.0396C114.99 51.0196 112.981 50.5499 112.94 49.8999C112.91 49.2899 114.79 43.9999 117.11 38.1499C119.44 32.3 121.72 27.0604 122.19 26.5103C122.65 25.9604 123.029 24.9503 123.02 24.2603C123.01 23.5703 123.62 21.5502 124.38 19.7603C125.14 17.9704 126.34 14.9403 127.04 13.0103C127.74 11.0904 129.15 7.6003 130.18 5.2603L132.04 1.0103H138.02ZM361.24 0.970261C365.02 0.930284 366.91 1.40974 367.99 2.65971C368.82 3.60973 370.67 6.66976 372.11 9.44975C373.55 12.2298 375.92 16.7603 377.39 19.5103C378.85 22.2603 380.03 25.0703 380.02 25.7603C380.01 26.4501 380.44 27.0103 380.99 27.0103C381.54 27.0106 382.22 28.1305 382.49 29.5103C382.77 30.8801 383.33 32.0198 383.74 32.0298C384.161 32.0374 387.621 25.8584 391.45 18.2798C395.27 10.7099 399.1 3.71002 399.95 2.73003C401.07 1.43004 402.92 0.950301 411.99 1.0103V51.0103L402.49 50.5103L401.99 35.6001C401.61 24.2403 401.22 21.0303 400.36 22.1001C399.73 22.8801 397.04 27.7903 394.37 33.0103C391.7 38.2302 388.61 43.3096 387.51 44.2896C386.4 45.2695 384.82 46.0697 383.99 46.0699C383.17 46.0699 381.59 45.2696 380.49 44.2896C379.39 43.3096 376.24 37.9198 373.49 32.3199C370.74 26.7204 368.041 21.9405 367.49 21.6998C366.85 21.4198 366.56 26.1102 366.69 34.8902C366.82 44.29 366.51 48.9103 365.69 49.8003C365.03 50.5203 362.58 51.0803 355.99 51.0103V1.0103L361.24 0.970261ZM223 51.0103L213.5 50.5103L212.5 19.6294L206 32.3101C201.1 41.8798 198.95 45.1195 197.25 45.4996C196.01 45.7796 194.21 45.6999 193.25 45.3199C192.29 44.9399 190.97 43.9298 190.32 43.0699C189.67 42.2099 187.21 37.6801 184.86 33.0103C182.501 28.3423 180.292 24.2934 179.94 24.0103C179.59 23.7404 179.041 22.8402 178.73 22.0103C178.42 21.1803 178.14 26.8103 178.13 34.5103C178.1 44.61 177.73 48.8598 176.8 49.7798C176.08 50.4798 173.73 50.9203 167.5 50.5103L166.74 41.0103C166.32 35.7904 166.26 24.9903 166.6 17.0103C166.94 9.04176 167.42 2.17259 167.66 1.7603C167.9 1.35031 170.33 1.01032 173.05 1.0103C175.77 1.0103 178.58 1.5703 179.28 2.2603C179.981 2.95144 182.571 7.56109 185.03 12.5103C187.49 17.4601 189.76 21.7403 190.08 22.0103C190.39 22.2913 191.52 24.651 192.58 27.2603C193.64 29.8701 194.95 31.8495 195.5 31.6695C196.05 31.4894 196.67 30.48 196.87 29.4302C197.07 28.3703 197.52 27.2904 197.87 27.0103C198.22 26.7303 200.45 22.6801 202.84 18.0103C205.23 13.3403 207.93 8.16984 208.84 6.52983C209.75 4.88992 211.03 2.97992 211.68 2.27983C212.33 1.57983 215.12 1.0103 223 1.0103V51.0103ZM301.48 1.0103C312.36 1.01031 314.49 1.28975 317.75 3.11968C319.81 4.27958 322.37 6.18965 323.43 7.36968C324.88 8.97968 325.35 10.9903 325.35 15.5103C325.34 19.81 324.8 22.2698 323.42 24.1998C322.37 25.6798 320.48 27.4798 319.22 28.1998C317.97 28.9197 316.96 29.7303 316.97 30.0103C316.981 30.2912 318.121 31.751 319.5 33.2603C320.88 34.7702 322 36.4603 322 37.0103C322 37.5604 322.57 38.5705 323.25 39.2603C323.94 39.9505 325.41 42.2003 326.5 44.2701C327.6 46.33 328.84 48.0201 329.25 48.0201C329.66 48.0101 330 48.6803 330 49.5103C330 50.69 328.609 51.0103 323.5 51.0103C317.06 51.0103 316.98 50.9801 314.72 47.2603C313.47 45.2003 311.56 41.79 310.47 39.69C309.39 37.59 307.71 35.01 306.75 33.94C305.79 32.88 304.21 32.1301 303.25 32.2701C301.75 32.5001 301.47 33.8504 301 51.0103L289.5 50.5103L288.97 1.0103H301.48ZM345.99 51.0103H334.99V1.0103H345.99V51.0103ZM249.25 0.60991C251.04 0.38991 255.2 0.349832 258.5 0.529832C262.59 0.749829 266.09 1.68961 269.5 3.49956C272.25 4.95951 275.74 7.57964 277.25 9.32964C278.77 11.0796 280.68 14.6503 281.5 17.2603C282.33 19.8703 283 23.9204 282.99 26.2603C282.99 28.6003 282.22 32.5404 281.28 35.0103C280.34 37.4803 277.98 41.2402 276.03 43.3501C274.09 45.4601 270.48 48.1103 268 49.2203C264.24 50.9202 262.1 51.1801 255 50.7701C250.06 50.4801 245.14 49.6002 243.25 48.6402C241.46 47.7502 238.54 45.1002 236.75 42.7603C234.96 40.4205 232.94 37.5005 232.25 36.2603C231.55 34.9903 231.01 30.6302 231.02 26.2603C231.03 21.0604 231.6 17.2698 232.77 14.7398C233.72 12.6698 234.84 10.9798 235.25 10.9898C235.66 10.9998 236.02 10.4501 236.04 9.7603C236.06 9.07031 237.3 7.49002 238.79 6.23003C240.28 4.98004 242.51 3.74004 243.75 3.48003C244.99 3.22009 246 2.56022 246 2.0103C246 1.4603 247.46 0.82991 249.25 0.60991ZM255.5 9.10991C254.95 9.13991 253.3 9.70038 251.84 10.3404C250.38 10.9805 248.01 12.6404 246.58 14.0103C244.97 15.5603 243.57 18.4204 242.92 21.5103C242.17 25.1201 242.2 27.7604 243.03 31.0103C243.67 33.48 244.93 36.3295 245.84 37.3296C246.75 38.3296 248.85 39.8001 250.5 40.6001C252.15 41.4001 254.74 42.0398 256.25 42.0298C257.76 42.0198 260.24 41.4501 261.75 40.7701C263.26 40.0801 265.23 38.8501 266.11 38.0201C267 37.19 268.24 35.5002 268.86 34.2603C269.49 33.0203 270 29.2002 270.01 25.7603C270.01 21.4805 269.47 18.7203 268.3 17.0103C267.35 15.6405 265.92 13.8405 265.11 13.0103C264.3 12.1803 262.03 10.9499 260.07 10.2798C258.1 9.59986 256.05 9.06996 255.5 9.10991ZM138.29 14.0103C137.7 14.0103 136.49 15.9203 135.61 18.2603C134.73 20.6002 134.02 22.9603 134.04 23.5103C134.05 24.0608 133.4 25.8607 132.58 27.5103C131.77 29.1602 131.31 30.8503 131.55 31.2603C131.801 31.6702 134.701 32.0103 138 32.0103C142.669 32.0103 144 31.68 144 30.5103C144 29.6804 143.61 28.2203 143.12 27.2603C142.64 26.3003 141.6 22.9202 140.8 19.7603C140.01 16.6005 138.88 14.0106 138.29 14.0103ZM306 9.02983C304.63 9.03983 302.83 9.40968 302.01 9.86968C300.84 10.5097 300.62 12.0902 301.01 17.1001L301.5 23.5103C309.33 24.0603 310.96 23.6598 312.26 22.3199C313.23 21.3299 314.08 18.9302 314.14 17.0103C314.24 14.2604 313.64 13.0302 311.38 11.2603C309.8 10.0303 307.38 9.01987 306 9.02983Z" fill="#A82224"/>
<path d="M136.5 61.04C138.7 61 142.3 61.6703 144.5 62.5303C146.7 63.3902 149.519 64.6397 150.77 65.2998C152.019 65.9697 153.259 67.0697 153.52 67.7598C153.78 68.4497 153.1 70.1398 152 71.5098C150.9 72.8898 149.1 74.0098 148 74.0098C146.9 74.0098 144.76 73.2601 143.25 72.3301C141.23 71.1001 139.3 70.8203 136 71.2803C133 71.6936 130.667 72.7698 129 74.5098C127.62 75.9497 125.94 78.7796 125.27 80.8096C124.59 82.8495 124.02 86.1997 124.02 88.2598C124.01 90.3196 124.45 92.2296 125 92.5098C125.55 92.7897 125.98 93.7998 125.96 94.7598C125.93 95.7198 127.62 97.99 129.71 99.79C132.89 102.54 134.3 103.07 138.5 103.08C141.79 103.09 144.01 102.56 145 101.51C145.82 100.64 147.62 99.9402 149 99.9502C150.71 99.9802 152.06 100.94 153.25 103C154.99 105.99 154.98 106.02 152.25 107.92C150.74 108.97 148.2 110.2 146.62 110.67C145.03 111.13 143.571 111.85 143.37 112.26C143.17 112.67 140.3 113.01 137 113.01C133.7 113.01 130.83 112.67 130.62 112.26C130.41 111.85 128.95 111.22 127.37 110.86C125.79 110.51 122.68 108.48 120.47 106.36C118.25 104.24 115.66 100.82 114.72 98.7598C113.55 96.2098 113 92.4496 113 87.0098C113 81.1399 113.5 78.0097 114.9 75.2598C115.94 73.1998 117.85 70.3702 119.15 68.9902C120.44 67.6003 123.3 65.6704 125.5 64.6904C127.7 63.7104 130.18 62.5095 131 62.0195C131.82 61.5296 134.3 61.09 136.5 61.04ZM182.75 61.1299C185.639 61.0599 188.169 61.3499 188.38 61.7598C188.58 62.1698 190.38 62.8498 192.38 63.2598C194.793 63.7598 197.667 65.6765 201 69.0098C204.86 72.8697 206.37 75.3199 207.62 79.7598C208.51 82.9196 209.04 87.3097 208.78 89.5098C208.52 91.7097 207.5 95.3098 206.5 97.5098C205.5 99.7098 202.73 103.42 200.34 105.76C197.95 108.1 194.76 110.26 193.25 110.57C191.74 110.88 189.71 111.55 188.75 112.07C187.79 112.59 184.97 113.01 182.5 113.01C180.02 113.01 177.21 112.59 176.25 112.07C175.29 111.55 173.37 110.9 172 110.62C170.62 110.34 167.53 108.4 165.12 106.31C162.72 104.22 159.9 100.6 158.87 98.2598C157.623 95.4264 157 91.6763 157 87.0098C157 82.5299 157.62 78.6597 158.71 76.2598C159.65 74.1998 162.27 70.7097 164.52 68.5098C166.769 66.3099 170.62 63.78 173.06 62.8799C175.5 61.9799 179.86 61.1999 182.75 61.1299ZM226 78.5098C226 88.8398 226.37 95.0098 227 95.0098C227.55 95.0098 228 95.6899 228 96.5098C228 97.3297 229.12 99.1298 230.5 100.51C232.21 102.22 234.1 103.01 236.5 103.01C239.05 103.01 240.88 102.17 246.5 96.8203L247.5 62.5098H257.5L257.49 81.0098C257.48 97.6896 257.28 99.7998 255.51 102.51C254.43 104.16 252.64 106.35 251.53 107.38C250.41 108.41 247.59 110.09 245.25 111.13C242.91 112.16 238.75 113.01 236 113.01C233.25 113.01 230.83 112.67 230.62 112.26C230.41 111.85 228.95 111.21 227.37 110.85C225.79 110.48 223.21 108.91 221.64 107.35C220.07 105.79 217.93 102.82 216.89 100.76C215.28 97.5699 214.97 94.4792 214.83 80.1797C214.74 70.9198 215.04 63.0397 215.5 62.6797C215.96 62.3097 218.511 62.0098 226 62.0098V78.5098ZM461.5 61.1104C463.7 61.0303 467.3 61.6703 469.5 62.5303C471.7 63.3902 474.61 64.6398 475.97 65.2998C477.33 65.9697 479.24 67.2998 480.22 68.2598C481.2 69.2197 483.12 71.8098 484.5 74.0098C486.67 77.4697 487 79.18 487.02 86.7598C487.04 92.5097 486.53 96.5398 485.56 98.5098C484.75 100.16 482.83 102.89 481.29 104.58C479.76 106.26 477.6 108.13 476.5 108.74C475.4 109.34 472.48 110.54 470 111.41C467.52 112.27 463.36 112.99 460.75 113C458.14 113 455.83 112.67 455.62 112.26C455.42 111.85 453.62 111.17 451.62 110.76C449.63 110.35 448 109.56 448 109.01C448 108.46 447.44 108.01 446.75 108.01C446.06 108.02 444.37 106.62 443 104.91C441.62 103.2 440.03 101.29 439.46 100.66C438.89 100.03 437.66 96.6998 436.71 93.2598C435.1 87.38 435.1 86.6397 436.69 80.7598C438.05 75.7 439.341 73.5401 443.44 69.4102C446.61 66.2103 450.18 63.7303 453 62.7803C455.48 61.9503 459.3 61.1904 461.5 61.1104ZM334.5 61C334.5 60.98 336.19 61.6502 338.25 62.4902C340.31 63.3202 342.99 65.4698 344.2 67.2598C345.41 69.0498 348.23 72.7502 350.45 75.4902C352.68 78.22 354.95 80.9697 355.5 81.5898C356.05 82.2098 358.3 84.8901 364.5 92.3701L365.5 62.5098H374.5L374.75 87.2598C374.98 110.09 374.86 112.05 373.25 112.53C372.29 112.81 369.93 112.27 368 111.34C366.07 110.4 364.03 109.15 363.46 108.57C362.89 107.99 361.46 105.94 360.28 104.01C359.09 102.08 357.19 99.8298 356.05 99.0098C354.91 98.1898 353.98 96.9497 353.99 96.2598C354 95.5698 353.66 94.8997 353.25 94.7598C352.84 94.6196 351.37 93.1302 350 91.4404C348.62 89.7505 346.37 86.9204 345 85.1504C343.62 83.3904 342.16 81.9597 341.75 81.9697C341.34 81.9897 341 88.76 341 112.01H332L331.36 99.2598C331.02 92.2498 330.93 81.1601 331.17 74.6201C331.51 65.6906 331.98 62.5299 333.06 61.8896C333.85 61.4196 334.5 61.02 334.5 61ZM391.25 62.0898C393.43 62.0398 395.17 62.5299 395.41 63.2598C395.64 63.9498 396.2 68.5299 397.5 82.3896L406.25 82.2002C411.06 82.0902 415.45 82.0098 416 82.0098C416.58 82.0098 417.1 77.9298 417.5 62.5098H428.5L428.73 86.5098C428.86 99.7098 428.55 110.96 428.06 111.51C427.559 112.06 425.21 112.42 422.83 112.32C420.45 112.21 418.181 111.76 417.79 111.32C417.41 110.87 416.96 106.23 416.5 91.5098L407.5 91.25C402.55 91.1 398.18 91.33 397.79 91.75C397.4 92.17 396.73 96.8604 395.5 111.86L391.2 112.19C388.84 112.36 386.471 112.06 385.94 111.51C385.38 110.93 384.89 100.48 384.78 86.8398C384.63 66.9507 384.83 63.1002 386.05 62.6699C386.85 62.3899 389.19 62.1298 391.25 62.0898ZM315.05 62.0098C317.22 62.0098 319.68 62.2298 320.5 62.5098C321.78 62.9398 322 66.51 322 86.5098C322 102.579 321.64 110.399 320.87 111.26C320.2 112 318.07 112.37 315.62 112.16C313.35 111.96 311.17 111.51 310.77 111.16C310.37 110.797 309.93 100.078 309.78 87.3398C309.64 74.5907 309.87 63.681 310.31 63.0898C310.74 62.4899 312.88 62.0098 315.05 62.0098ZM283.17 62.0098C292.98 62.0098 301.68 62.2298 302.5 62.5098C303.45 62.8298 304 64.2899 304 66.5098C304 68.7297 303.45 70.1897 302.5 70.5098C301.68 70.7898 298.84 71.0098 296.2 71.0098C293.56 71.0098 290.85 71.5698 290.18 72.2598C289.31 73.1599 288.97 78.9701 288.98 92.7598C288.99 104.94 288.63 112.01 288 112.01H279C278.37 112.01 277.91 104.43 277.5 71.5098L264 71.0098L263.83 67.1797C263.74 65.0698 264.04 63.0397 264.5 62.6797C264.962 62.3097 273.361 62.0098 283.17 62.0098ZM182.5 71.0303C180.06 71.0403 177.18 71.9103 175.11 73.2803C173.24 74.5102 170.88 77.1998 169.86 79.2598C168.84 81.3197 168 84.8098 168 87.0098C168 89.2097 168.74 92.4697 169.64 94.2598C170.54 96.0497 172.57 98.7497 174.14 100.26C176.4 102.43 177.95 103.01 181.5 103.01C183.98 103.01 187.46 102.32 189.25 101.47C191.04 100.62 193.4 98.29 194.5 96.29C195.91 93.73 196.5 90.7798 196.5 86.2998C196.5 82.7998 196.02 79.6197 195.43 79.2197C194.84 78.8296 194.05 77.7196 193.68 76.7598C193.3 75.7997 191.54 74.1097 189.75 73.0098C187.91 71.8798 184.77 71.0203 182.5 71.0303ZM462.25 71.0303C460.19 71.0503 457 71.8303 455.16 72.7803C453.32 73.7303 450.96 75.9698 449.91 77.7598C448.56 80.0597 448 82.9198 448 87.5098C448 93.7897 448.14 94.1597 452.25 98.4795C456.16 102.599 456.9 102.96 461.5 102.99C464.64 103.01 467.43 102.39 469 101.31C470.37 100.36 471.95 99.1097 472.5 98.5098C473.05 97.9197 474.11 96.3297 474.86 94.9697C475.61 93.6195 476.23 90.2596 476.24 87.5098C476.25 84.2798 475.5 81.0997 474.11 78.5098C472.93 76.3099 470.62 73.7199 468.98 72.7598C467.34 71.7998 464.31 71.0203 462.25 71.0303ZM85.5 27.8799C59.37 53.8899 57.3497 55.6799 55.2197 54.6299C53.9699 54.0199 52.9698 53.2897 53.0098 53.0098C53.0488 52.7289 50.9891 50.4792 48.4297 48.0098C45.8697 45.5398 42.3596 41.9795 40.6396 40.0996C38.9096 38.2296 36.1499 35.4498 34.5 33.9199C32.85 32.3899 27.9 27.5396 23.5 23.1396C19.1 18.7397 13.4296 12.98 10.8896 10.3301C8.34967 7.68011 5.31963 4.71975 4.13965 3.75977C2.9598 2.7998 2 1.55971 2 1.00977C2.00463 0.359916 21.2611 0.0099988 113.5 0L85.5 27.8799Z" fill="#6B6C6D"/>
</svg>
