<svg width="719" height="181" viewBox="0 0 719 181" fill="none" xmlns="http://www.w3.org/2000/svg">
<path d="M126.81 112.525C126.81 120.491 123.646 126.278 117.335 129.977C112.32 132.919 105.123 134.329 95.7348 134.329C86.3636 134.329 79.1697 132.812 74.0468 129.645C68.058 125.839 64.9883 119.828 64.9883 111.539V91.4788C73.3816 90.0686 91.3823 87.2328 91.3823 87.2328V112.313C91.3823 114.056 91.7016 115.474 92.4599 116.557C93.2315 117.436 94.4299 117.875 95.9587 117.875C97.4886 117.875 98.5695 117.436 99.3378 116.557C100.109 115.474 100.439 114.056 100.439 112.313V90.7272H126.81V112.525ZM261.364 132.812H235.089V129.217C233.676 130.631 231.495 131.83 228.543 132.812C225.818 133.795 222.544 134.329 218.735 134.329C213.176 134.329 208.483 132.919 204.878 129.977C201.295 127.037 199.54 123.55 199.54 119.388V76.8738C208.159 76.3284 216.985 75.7907 225.933 75.3517V112.752C225.933 116.021 227.463 117.659 230.512 117.659C232.032 117.659 233.122 117.33 233.891 116.557C234.649 115.585 235.089 114.376 235.089 112.854V74.8096C243.708 74.3706 252.529 74.0369 261.364 73.7165V132.812ZM298.442 72.6145V86.5588C297.274 87.0743 296.408 87.6308 295.822 88.2173C294.518 89.5232 293.854 91.1662 293.854 93.1284V112.752C293.854 114.376 294.293 115.585 295.062 116.557C295.885 117.295 297.008 117.639 298.442 117.659V133.666C296.033 134.139 292.988 134.329 289.17 134.329C281.322 134.329 275.759 132.919 272.379 130.192C269.106 127.357 267.47 123.111 267.47 117.436V95.8501C267.47 87.2328 273.365 80.0345 285.137 74.3706C286.335 73.8251 287.544 73.2775 288.624 72.8418L298.442 72.6145ZM194.856 112.525C194.856 119.388 192.558 124.633 188.207 128.232L195.287 141.431H173.478L169.663 134.223C167.919 134.329 166.186 134.329 164.206 134.329C154.733 134.329 147.431 132.812 142.187 129.645C135.974 125.839 132.93 119.828 132.93 111.539V82.5489C141.536 81.5677 150.37 80.8083 159.312 79.9336V112.313C159.312 114.056 159.631 115.474 160.402 116.557C161.161 117.436 162.357 117.875 163.898 117.875C165.415 117.875 166.506 117.436 167.266 116.557C168.039 115.474 168.475 114.056 168.475 112.313V79.1598C177.093 78.5168 185.81 77.855 194.856 77.2031V112.525ZM387.63 132.812H370.948C359.494 132.812 352.521 131.292 349.903 128.232C347.293 125.068 346.084 117.979 346.084 106.856V71.9737L359.825 71.8562L372.476 71.9737V106.653C372.476 109.794 373.558 111.979 375.639 113.293C377.16 114.16 379.568 114.599 382.723 114.599H387.63V132.812ZM486.531 74.9116V132.812H460.136V73.8251C469.08 74.1433 477.804 74.477 486.531 74.9116ZM455.015 112.525C455.015 120.599 451.96 126.48 445.86 129.977C440.949 132.919 433.863 134.329 424.483 134.329C414.996 134.329 407.587 132.812 402.451 129.645C396.25 125.839 393.082 119.828 393.082 111.539V72.0802C402.024 72.1899 410.859 72.4028 419.474 72.5192V112.313C419.474 114.056 419.908 115.474 420.664 116.557C421.432 117.436 422.516 117.875 424.056 117.875C425.574 117.875 426.782 117.436 427.543 116.557C428.3 115.474 428.629 114.056 428.629 112.313V72.7309C437.561 72.9593 446.3 73.2775 455.015 73.5979V112.525ZM553.916 132.812H527.53V77.4149C536.458 77.9714 545.305 78.7319 553.916 79.3871V132.812ZM298.442 133.666V117.659H298.657C299.863 117.659 300.945 117.33 301.596 116.557C302.591 115.585 303.017 114.376 303.017 112.752V85.0544C301.189 85.5022 299.649 86.0022 298.442 86.5588V72.6145C308.631 72.3717 318.931 72.1689 329.403 72.0802V132.812H306.076V128.671C304.76 131.071 302.806 132.589 300.182 133.251C299.639 133.402 299.061 133.537 298.442 133.666ZM590.167 82.8826V86.5721C589.013 87.0809 588.123 87.6419 587.493 88.2173C586.187 89.5232 585.642 91.1662 585.642 93.1284V112.752C585.642 114.376 585.976 115.585 586.723 116.557C587.566 117.306 588.725 117.639 590.167 117.659V133.666C587.794 134.139 584.658 134.329 580.841 134.329C572.988 134.329 567.432 132.919 564.156 130.192C560.886 127.357 559.251 123.111 559.251 117.436V95.8501C559.251 90.0686 561.763 85.0544 566.993 80.5822C574.876 81.3105 582.595 82.0788 590.167 82.8826ZM653.902 132.812H627.516V87.449C636.675 88.6574 645.496 89.9622 653.902 91.3724V132.812ZM590.167 133.666V117.659H590.328C591.633 117.659 592.616 117.33 593.387 116.557C594.251 115.585 594.688 114.376 594.688 112.752V85.0544C592.898 85.5022 591.387 86.0022 590.167 86.5721V82.8826C600.808 84.0278 611.127 85.2473 621.086 86.5931V132.812H597.739V128.671C596.433 131.071 594.476 132.589 591.867 133.251C591.332 133.402 590.778 133.537 590.167 133.666Z" fill="#6C6EA8"/>
<path d="M95.8945 84.6254C58.1549 89.9002 25.6768 96.2482 0 103.476C15.6227 96.5885 37.7286 90.3459 65.0017 84.8394V47.2161C65.0017 39.152 67.9418 33.1544 73.9283 29.4461C79.0613 26.0659 86.356 24.4284 95.7438 24.4284L95.8945 24.4395V41.1143C94.623 41.1343 93.5421 41.6775 92.684 42.5322C91.8082 43.4003 91.3913 44.704 91.3913 46.4601V71.0969H95.8945V84.6254ZM163.887 76.8496C155.848 77.5779 147.953 78.3506 140.23 79.171C124.782 80.8184 109.966 82.6488 95.8945 84.6254V71.0969H100.428V46.4601C100.428 44.704 100.108 43.4003 99.3368 42.5322C98.5674 41.6664 97.4887 41.1143 95.9588 41.1143H95.8945V24.4395C105.104 24.4484 112.235 25.9772 117.328 28.7898C123.656 32.3839 126.81 38.1676 126.81 46.2439V74.8297C128.842 74.5725 130.875 74.3141 132.928 74.068V47.2161C132.928 39.152 135.976 33.1544 142.189 29.4461C147.464 26.1069 154.67 24.4739 163.887 24.4395V41.1143C162.585 41.1143 161.494 41.6664 160.615 42.5322C159.74 43.4003 159.311 44.704 159.311 46.4601V71.0648L163.887 70.6069V76.8496ZM235.088 65.0228V25.1978H261.365V63.6636C263.717 63.5705 266.08 63.4508 268.455 63.3532V46.2439C268.455 38.2773 271.619 32.5047 278.165 28.7898C283 26.118 289.79 24.6103 298.429 24.4484V41.1143C297.126 41.1143 296.035 41.6664 295.168 42.5322C294.292 43.4003 293.866 44.704 293.866 46.4601V62.4552L298.429 62.3277V69.25C250.51 70.4672 205.179 73.0758 163.887 76.8496V70.6069L168.463 70.1568V46.4601C168.463 44.704 168.037 43.4003 167.269 42.5322C166.507 41.6664 165.417 41.1143 163.887 41.1143V24.4395L164.219 24.4284C172.831 24.4284 180.026 26.3974 185.918 30.2143C191.811 33.8107 194.859 39.152 194.859 46.2439V67.8054C196.422 67.689 197.982 67.5482 199.553 67.4307V25.1978H225.925V65.5838C228.96 65.3864 232.019 65.1946 235.088 65.0228ZM298.429 24.4484C298.943 24.4395 299.457 24.4284 299.97 24.4284C309.341 24.4284 316.324 26.0659 321.018 29.2288C326.566 32.8229 329.412 38.9425 329.412 47.2161V61.7102C334.927 61.6238 340.491 61.5694 346.094 61.5373V41.1143H334.32V25.1978H346.094V3.60745H372.48V25.1978H386.656V41.1143H372.48V61.5373C379.395 61.5783 386.263 61.6448 393.082 61.7601V47.2161C393.082 39.152 396.25 33.1544 402.454 29.4461C407.726 26.128 414.882 24.4806 424.056 24.4395V41.1143C422.844 41.1143 421.766 41.6664 420.891 42.5322C420.012 43.4003 419.474 44.704 419.474 46.4601V62.3078L424.056 62.4331V69.3431C402.986 68.7755 381.429 68.4773 359.493 68.4773C338.769 68.4773 318.374 68.7455 298.429 69.25V62.3277L303.019 62.2147V46.4601C303.019 44.704 302.58 43.4003 301.822 42.5322C301.05 41.6664 299.97 41.1143 298.429 41.1143V24.4484ZM424.056 24.4395L424.496 24.4284C433.09 24.4284 440.299 26.3974 446.073 30.2143C452.078 33.8107 455.015 39.152 455.015 46.2439V63.5594C456.726 63.6326 458.437 63.7091 460.149 63.78V25.1978H486.531V28.7898C487.685 27.8818 489.192 27.0481 491.043 26.3552V41.55C489.546 41.55 488.378 41.8826 487.622 42.6409C486.852 43.4003 486.531 44.5965 486.531 46.2439V65.1747L491.043 65.4629V72.1335C469.432 70.9062 447.037 69.9595 424.056 69.3431V62.4331L428.629 62.5661V46.4601C428.629 44.704 428.3 43.4003 427.538 42.5322C426.782 41.6664 425.574 41.1143 424.056 41.1143V24.4395ZM540.717 19.3055H527.518V4.8711e-06H540.717V19.3055ZM491.043 26.3552C491.654 26.139 492.293 25.9251 492.97 25.7433C495.898 24.8686 499.172 24.4284 502.883 24.4284C508.452 24.4284 512.913 25.9572 516.51 29.017C520.217 31.9549 521.973 35.5512 521.973 39.8194V67.6436C523.823 67.7844 525.679 67.9351 527.517 68.0937V25.1978H540.717V75.5979C524.688 74.2731 508.111 73.1168 491.043 72.1335V65.4629L495.575 65.7401V46.4601C495.575 43.1885 494.155 41.55 491.104 41.55H491.043V26.3552ZM540.717 19.3055H553.912V4.8711e-06H540.717V19.3055ZM540.717 25.1978H553.912V70.4972C562.597 71.3652 571.078 72.2832 579.313 73.2576C589.515 68.1957 594.699 64.5383 594.699 62.3732V46.4601C594.699 44.704 594.359 43.4003 593.597 42.5322C592.829 41.6664 591.64 41.1143 590.113 41.1143C588.913 41.1143 587.823 41.6664 586.95 42.5322C586.084 43.4003 585.644 44.704 585.644 46.4601V67.719H560.125V46.2439C560.125 38.2773 563.401 32.5047 569.83 28.7898C575.065 25.9572 582.266 24.4284 591.64 24.4284C601.007 24.4284 607.992 26.0659 612.68 29.2288C618.239 32.8229 621.072 38.9425 621.072 47.2161V78.957C621.512 79.0191 621.952 79.1078 622.376 79.171C624.11 79.4371 625.821 79.7275 627.521 80.0047V0.00222089H653.892V84.8394C681.167 90.3459 703.267 96.5885 718.88 103.476C683.666 93.5531 635.573 85.264 578.661 79.171C566.416 77.8651 553.746 76.6766 540.717 75.5979V25.1978Z" fill="#2F2E79"/>
<path d="M466.725 165.258L469.376 156.766C469.997 154.713 470.501 152.316 471.014 150.307H471.105C471.621 152.316 472.2 154.672 472.85 156.757L475.571 165.258H466.725ZM476.635 170.004L479.76 179.791H486.512L475.308 145.305H467.282L456.234 179.791H462.729L465.687 170.004H476.635ZM435.563 179.791H441.853V145.311H435.563V179.791ZM419.393 160.756H407.21V165.719H413.319V174.318C412.491 174.733 410.805 175.034 408.548 175.034C401.385 175.034 396.573 170.372 396.573 162.543C396.573 154.512 401.737 150.16 409.105 150.16C412.743 150.16 415.038 150.82 416.935 151.643L418.323 146.53C416.729 145.816 413.412 144.937 409.159 144.937C397.746 144.937 389.973 151.957 389.973 162.852C389.917 168.071 391.716 172.628 394.786 175.536C398.058 178.657 402.464 180.145 408.302 180.145C412.898 180.145 417.188 179.02 419.393 178.198V160.756ZM359.172 150.112C359.78 149.954 361.068 149.803 363.055 149.803C367.151 149.803 369.813 151.548 369.813 155.335C369.813 158.765 367.151 161.025 362.906 161.025H359.172V150.112ZM352.939 179.791H359.172V165.608H362.35C365.929 165.719 367.57 167.15 368.538 171.653C369.514 175.942 370.323 178.754 370.838 179.791H377.343C376.614 178.455 375.694 174.47 374.625 170.165C373.761 166.841 372.274 164.435 369.813 163.515V163.366C373.033 162.187 376.061 159.172 376.061 154.724C376.061 151.794 374.987 149.387 373.084 147.815C370.787 145.857 367.418 145.058 362.446 145.058C358.81 145.058 355.28 145.357 352.939 145.764V179.791ZM336.149 159.377H323.156V150.458H336.918V145.305H316.87V179.791H337.688V174.616H323.156V164.49H336.149V159.377ZM278.338 179.791V167.462C278.338 161.77 278.292 157.216 278.025 152.779L278.175 152.713C279.875 156.607 282.174 160.853 284.378 164.583L293.384 179.791H299.876V145.305H294.045V157.334C294.045 162.597 294.206 167.055 294.614 171.653H294.505C292.923 167.919 290.921 163.933 288.623 160.094L279.728 145.305H272.561V179.791H278.338ZM255.771 159.377H242.778V150.458H256.541V145.305H236.49V179.791H257.311V174.616H242.778V164.49H255.771V159.377Z" fill="#5F6062"/>
</svg>
