<svg width="1227" height="439" viewBox="0 0 1227 439" fill="none" xmlns="http://www.w3.org/2000/svg">
<path d="M258.882 1.57145L55.5219 76.1515C40.2378 81.7554 27.0203 91.8767 17.6252 105.171C8.23004 118.465 3.10188 134.303 2.92188 150.581L0.00187508 412.641C-0.0391737 416.035 0.594125 419.403 1.86502 422.549C3.13591 425.696 5.01908 428.559 7.40527 430.972C9.79146 433.386 12.6331 435.301 15.7654 436.607C18.8977 437.913 22.2582 438.584 25.6519 438.581H267.722C274.525 438.581 281.049 435.879 285.859 431.069C290.669 426.258 293.372 419.734 293.372 412.931V25.6515C293.372 21.5218 292.375 17.4531 290.466 13.7913C288.557 10.1294 285.791 6.98274 282.405 4.61867C279.019 2.25461 275.112 0.743069 271.017 0.212544C266.922 -0.31798 262.759 0.148195 258.882 1.57145ZM102.742 119.301C104.232 113.54 106.845 108.13 110.429 103.38C114.014 98.6306 118.501 94.6346 123.632 91.6214C127.258 89.483 131.166 87.8638 135.242 86.8114C145.011 84.2867 155.344 85.1002 164.597 89.1227C173.851 93.1453 181.494 100.146 186.312 109.011C187.169 110.638 187.943 112.307 188.632 114.011C190.697 119.296 191.758 124.918 191.762 130.591C191.783 138.751 189.569 146.76 185.362 153.751C183.573 156.765 181.431 159.555 178.982 162.061H114.082C111.636 159.554 109.497 156.765 107.712 153.751C107.582 153.551 107.462 153.361 107.352 153.161C103.385 146.312 101.298 138.537 101.302 130.621C101.308 126.803 101.792 123 102.742 119.301ZM189.802 169.651L188.082 185.191C188.036 185.576 187.851 185.93 187.561 186.188C187.272 186.446 186.899 186.589 186.512 186.591H106.632C106.243 186.594 105.868 186.452 105.578 186.193C105.288 185.935 105.104 185.578 105.062 185.191L103.292 169.651C103.265 169.431 103.285 169.208 103.351 168.996C103.418 168.784 103.528 168.589 103.676 168.423C103.823 168.258 104.005 168.125 104.208 168.035C104.41 167.945 104.63 167.9 104.852 167.901H188.222C188.445 167.899 188.666 167.943 188.871 168.033C189.075 168.122 189.258 168.254 189.408 168.419C189.557 168.585 189.67 168.78 189.738 168.993C189.806 169.205 189.827 169.43 189.802 169.651ZM67.0819 343.421L75.8919 312.111C75.9391 311.955 76.01 311.807 76.1019 311.671C99.6767 276.38 114.056 235.755 117.932 193.491C117.964 193.1 118.143 192.734 118.432 192.468C118.72 192.201 119.099 192.053 119.492 192.051H173.492C173.886 192.052 174.266 192.201 174.556 192.467C174.847 192.733 175.027 193.099 175.062 193.491C178.914 235.756 193.284 276.384 216.862 311.671C216.954 311.807 217.025 311.955 217.072 312.111L225.882 343.421C225.946 343.655 225.956 343.9 225.911 344.138C225.865 344.376 225.766 344.6 225.62 344.794C225.474 344.987 225.285 345.144 225.069 345.253C224.853 345.362 224.614 345.419 224.372 345.421H68.6519C68.4053 345.427 68.1609 345.375 67.9379 345.269C67.715 345.164 67.5196 345.008 67.3673 344.814C67.215 344.62 67.11 344.393 67.0604 344.151C67.0109 343.91 67.0182 343.66 67.0819 343.421ZM53.6519 373.151L57.6019 354.011C57.6735 353.656 57.866 353.336 58.1468 353.106C58.4275 352.877 58.7791 352.751 59.1419 352.751H233.932C234.297 352.752 234.65 352.878 234.934 353.107C235.217 353.336 235.414 353.655 235.492 354.011L239.402 373.151C239.402 373.261 239.402 373.361 239.402 373.461C239.399 373.881 239.231 374.283 238.933 374.579C238.635 374.875 238.232 375.041 237.812 375.041H55.2319C54.9989 375.04 54.7691 374.987 54.5589 374.887C54.3488 374.786 54.1635 374.64 54.0163 374.46C53.8691 374.279 53.7637 374.068 53.7076 373.842C53.6515 373.616 53.6462 373.38 53.6919 373.151H53.6519ZM239.362 383.901L235.492 403.011C235.416 403.37 235.22 403.691 234.936 403.922C234.653 404.153 234.298 404.28 233.932 404.281H59.1419C58.7782 404.279 58.4265 404.152 58.1459 403.92C57.8654 403.689 57.6732 403.368 57.6019 403.011L53.6919 383.881C53.682 383.778 53.682 383.675 53.6919 383.571C53.6879 383.363 53.7256 383.156 53.8028 382.963C53.88 382.77 53.9952 382.594 54.1415 382.445C54.2879 382.297 54.4624 382.18 54.6548 382.1C54.8472 382.02 55.0536 381.98 55.2619 381.981H237.842C238.078 381.983 238.312 382.036 238.525 382.138C238.739 382.241 238.927 382.389 239.076 382.572C239.225 382.756 239.332 382.971 239.388 383.2C239.445 383.43 239.449 383.67 239.402 383.901H239.362Z" fill="#AF1B1B"/>
<path d="M492.232 155.911C480.872 146.151 463.432 141.201 440.382 141.201C429.132 141.201 414.502 141.781 393.202 142.781C386.562 142.781 382.592 146.781 382.592 153.571V316.011C382.592 323.011 386.592 327.121 393.202 327.121H415.202V269.011L447.392 270.421C466.902 270.861 482.392 265.421 493.262 254.241C504.132 243.061 509.602 225.551 509.602 202.021C509.562 181.341 503.732 165.821 492.232 155.911ZM476.082 207.511V207.571C475.082 229.521 464.762 239.741 443.442 239.741C434.152 239.741 426.042 239.381 415.162 238.741V173.071L441.302 172.241C454.152 172.241 463.462 175.071 468.982 180.631C474.502 186.191 476.832 195.191 476.082 207.511Z" fill="black"/>
<path d="M619.472 179.932C600.322 179.932 582.282 186.622 565.762 199.852L565.062 190.531C564.762 184.881 560.912 181.531 554.762 181.531H534.652V327.132H567.522V232.822C572.132 226.822 579.882 221.311 590.582 216.471C601.252 211.492 613.001 209.271 624.752 210.012L628.552 210.272V189.462C628.552 183.492 625.162 179.932 619.472 179.932Z" fill="black"/>
<path d="M704.082 179.611C661.222 179.611 639.492 204.011 639.492 252.121C639.492 280.831 644.882 300.431 655.962 312.031C667.042 323.631 683.122 329.341 704.082 329.341C726.632 329.341 745.082 323.211 756.082 312.061C767.332 300.621 773.082 280.451 773.082 252.121C773.082 205.361 748.572 179.611 704.082 179.611ZM705.082 301.131C693.832 301.131 685.662 297.801 680.082 290.951C674.502 284.101 671.532 270.951 671.532 252.121C671.532 235.631 674.392 223.841 680.052 217.121C685.712 210.401 693.722 207.221 704.772 207.221C717.202 207.221 727.972 210.941 732.902 216.941C738.362 223.601 741.142 235.451 741.142 252.151C741.142 270.961 738.302 284.031 732.722 291.011C727.662 297.241 717.082 301.131 705.082 301.131Z" fill="black"/>
<path d="M809.882 181.871H796.152C789.702 181.871 785.852 185.791 785.852 192.351V212.281H802.792V330.191C802.792 343.311 800.982 348.651 799.452 350.811C797.512 353.571 793.452 354.971 787.332 354.971C783.392 354.971 778.252 354.661 772.042 354.041L768.662 353.711L766.302 370.011C766.012 375.791 769.412 379.771 775.492 380.901C779.392 381.895 783.39 382.451 787.412 382.561C788.882 382.631 790.322 382.681 791.732 382.681C806.402 382.681 817.372 378.401 824.382 369.941C831.842 360.941 835.622 347.771 835.622 330.841V181.501H813.082C812.005 181.494 810.93 181.619 809.882 181.871Z" fill="black"/>
<path d="M929.023 179.611C908.023 179.611 891.473 186.101 879.783 198.871C868.093 211.641 862.293 230.221 862.293 254.321C862.293 281.881 868.243 301.391 879.983 312.321C891.723 323.251 909.133 328.891 932.133 329.321C949.133 329.101 963.783 327.261 975.463 323.891C982.263 322.431 985.463 317.891 984.373 311.411L981.993 294.671L972.733 296.781C969.013 297.591 963.533 298.481 956.463 299.411C949.708 300.325 942.9 300.796 936.083 300.821C921.263 300.821 910.363 298.021 903.693 292.511C897.693 287.591 894.583 278.391 894.263 265.121H978.083C984.153 265.121 987.773 260.961 987.773 254.001C987.773 230.331 983.603 211.941 975.383 199.331C966.863 186.251 951.263 179.611 929.023 179.611ZM928.413 207.191C938.833 207.191 946.193 209.891 950.273 215.191C954.143 220.271 956.203 228.191 956.433 238.761H894.433C896.173 217.261 907.083 207.191 928.413 207.191Z" fill="black"/>
<path d="M1092.08 296.281L1088.36 296.751C1073.78 298.601 1063.36 299.241 1057.19 298.631C1054.73 298.441 1048.19 297.931 1048.19 281.711V210.431L1087.19 207.911V182.761H1048.19V145.611H1028.38C1022.23 145.611 1018.38 149.231 1018.09 155.241L1015.62 194.821V279.191C1015.62 296.011 1018.18 308.041 1023.43 315.941C1028.89 324.181 1038.17 328.481 1051.01 328.711C1051.93 328.711 1052.85 328.711 1053.77 328.711C1063.86 328.733 1073.92 327.637 1083.77 325.441C1090.59 323.761 1094.02 318.901 1093.21 312.271L1092.08 296.281Z" fill="black"/>
<path d="M1212.53 192.861C1202.99 183.861 1189.33 179.301 1171.91 179.301C1157.07 179.261 1142.25 180.324 1127.56 182.481C1123.9 182.991 1117.75 185.401 1117.75 195.761C1117.79 200.101 1118.22 204.429 1119.03 208.691L1119.65 211.981L1130.49 210.641C1135.59 210.221 1141.97 209.751 1149.61 209.231C1157.19 208.711 1163.46 208.451 1168.15 208.451C1176.69 208.641 1183.22 210.581 1187.57 214.221C1189.57 215.811 1191.18 217.843 1192.26 220.158C1193.34 222.472 1193.88 225.007 1193.81 227.561V236.631C1162.81 239.871 1137.94 243.051 1119.81 246.091C1113.23 247.171 1109.03 251.351 1108.04 257.571C1106.3 264.691 1105.87 274.821 1106.72 288.571C1107.83 302.441 1113.24 312.811 1122.82 319.391C1132.07 325.761 1143.53 328.991 1156.88 328.991C1165.75 328.993 1174.51 326.99 1182.49 323.131C1187.28 320.899 1191.85 318.252 1196.17 315.221L1196.62 318.801C1197.53 324.081 1201.15 327.102 1206.56 327.102H1226.99V231.651C1226.99 215.011 1222.13 201.921 1212.53 192.861ZM1137.73 270.371C1137.8 269.591 1137.95 269.321 1138.54 269.141C1155.85 265.831 1174.63 262.841 1194.42 260.251V288.891C1184.89 297.042 1172.75 301.499 1160.21 301.451C1145.83 301.551 1138.8 295.671 1137.73 282.691C1137.33 278.595 1137.33 274.468 1137.73 270.371Z" fill="black"/>
</svg>
