<svg width="600" height="157" viewBox="0 0 600 157" fill="none" xmlns="http://www.w3.org/2000/svg">
<path d="M35.9048 4.61784C40.1259 3.25762 46.5398 1.68898 50.1579 1.12953C53.776 0.570084 62.6568 0.306815 69.893 0.548145C79.0041 0.844322 86.2512 1.79867 93.4655 3.64155C99.1887 5.1005 106.962 7.84288 110.734 9.72964C114.505 11.6164 117.586 13.5361 117.597 13.9858C117.597 14.4356 115.35 20.2384 112.598 26.875C109.857 33.5116 107.51 39.0512 107.39 39.1828C107.269 39.3145 103.223 37.7239 98.3993 35.6397C93.5752 33.5555 85.9223 31.0434 81.4052 30.0452C75.7039 28.7947 69.8163 28.3778 62.2183 28.685C53.1072 29.047 50.443 29.5845 46.4192 31.8442C43.755 33.3361 40.6302 35.7932 39.479 37.2961C38.3278 38.8099 37.2972 42.0349 37.1876 44.4811C37.0779 47.1248 37.7687 50.1085 38.9199 51.8855C39.9724 53.509 43.4261 56.032 46.5946 57.469C49.7632 58.906 58.7646 61.6704 66.6038 63.612C74.4431 65.5426 84.804 68.3727 89.6281 69.8865C94.4523 71.4113 100.625 73.7917 103.333 75.1739C106.041 76.556 110.24 79.3861 112.652 81.4704C115.064 83.5436 118.518 87.9095 120.327 91.1674C123.419 96.729 123.616 97.7821 123.616 109.146C123.616 120.215 123.364 121.707 120.536 127.246C118.836 130.559 115.13 135.649 112.313 138.545C109.484 141.43 105.197 144.973 102.785 146.399C100.373 147.825 94.4523 150.348 89.6281 152.004C82.0959 154.582 78.6094 155.087 64.9592 155.515C55.1684 155.822 45.9039 155.504 40.8386 154.681C36.3105 153.946 28.6686 152.103 23.8444 150.589C19.0203 149.076 12.3542 146.443 9.04311 144.754C5.732 143.064 2.12486 141.024 1.05039 140.223C-0.802517 138.852 -0.572274 138.007 4.76717 126.149C7.90286 119.217 10.5123 113.392 10.5781 113.216C10.6329 113.041 13.8892 114.631 17.8143 116.748C21.7394 118.855 28.6357 121.849 33.1638 123.407C37.6809 124.954 45.8272 126.775 51.2543 127.455C56.6815 128.135 64.3233 128.354 68.2484 127.948C72.1735 127.531 77.5678 126.105 80.243 124.756C82.9182 123.407 86.1306 120.917 87.3696 119.217C88.7181 117.363 89.6281 114.423 89.6281 111.9C89.6281 108.916 88.8278 106.821 86.8871 104.737C85.3851 103.124 82.1727 100.799 79.7606 99.5811C77.3485 98.3525 69.7066 95.9063 62.7665 94.1402C55.8263 92.3741 45.7175 89.6536 40.2904 88.096C34.8632 86.5492 27.5831 83.8617 24.1185 82.1285C20.6539 80.3954 15.5996 76.7644 12.8805 74.044C10.1614 71.3235 6.83936 66.7602 5.47983 63.8972C3.40764 59.5203 3.01294 56.8328 3.01294 47.1686C3.01294 37.0876 3.36378 34.8937 5.83067 29.6174C7.38755 26.2936 10.3478 21.6426 12.409 19.2731C14.4812 16.9037 18.8887 13.196 22.1999 11.024C25.511 8.86305 31.6837 5.97806 35.9048 4.61784Z" fill="#010066"/>
<path fill-rule="evenodd" clip-rule="evenodd" d="M452.732 0L452.557 45.2493C452.381 88.2499 452.25 90.8935 449.98 98.4515C448.675 102.828 445.945 109.739 443.917 113.809C441.878 117.879 437.69 124.296 434.598 128.069C431.495 131.843 425.881 137.196 422.11 139.982C418.338 142.757 412.538 146.388 409.227 148.056C405.916 149.712 400.73 151.862 397.715 152.838C394.7 153.804 388.165 155.109 383.188 155.734C376.873 156.524 371.413 156.513 365.097 155.691C360.12 155.043 352.598 153.299 348.377 151.807C344.156 150.315 337.249 146.948 333.028 144.326C328.807 141.693 322.13 136.165 318.194 132.029C314.246 127.883 309.093 121.049 306.725 116.825C304.368 112.602 301.21 105.439 299.719 100.92C297.428 93.9979 296.989 90.5096 296.945 78.9806C296.891 68.6692 297.395 63.5026 298.941 58.1385C300.081 54.2224 302.888 47.3006 305.201 42.7812C307.504 38.2507 312.01 31.3399 315.211 27.4238C318.917 22.8934 324.421 18.012 330.32 14.052C335.429 10.6185 342.939 6.54881 347.007 5.0021C351.074 3.4554 356.995 1.75512 360.164 1.22859C363.332 0.69108 385.457 0.197452 452.732 0ZM351.809 34.5869C348.279 36.375 342.972 40.313 340.023 43.3296C337.073 46.3463 333.609 50.5366 332.326 52.6537C331.032 54.7709 329.125 58.9612 328.072 61.9778C327.019 64.9945 325.824 70.183 325.408 73.4958C324.914 77.39 325.199 82.2495 326.23 87.2077C327.107 91.431 329.07 97.3546 330.583 100.371C332.107 103.388 335.286 108.072 337.665 110.792C340.045 113.513 344.65 117.44 347.917 119.535C351.184 121.63 356.699 124.219 360.164 125.294C363.836 126.435 369.9 127.247 374.691 127.247C379.986 127.247 385.249 126.468 389.492 125.053C393.11 123.846 398.044 121.619 400.456 120.116C402.868 118.603 407.056 115.158 409.775 112.438C412.604 109.608 416.463 103.881 418.821 99L422.932 90.4986L423.261 28.5208C379.405 28.6743 367.137 29.2009 363.727 30.0126C360.712 30.7366 355.35 32.7989 351.809 34.5869Z" fill="#FE6505"/>
<path fill-rule="evenodd" clip-rule="evenodd" d="M148.515 1.97461L188.139 2.46824C223.564 2.90702 228.651 3.19223 235.997 5.18868C240.514 6.4063 247.432 9.02802 251.346 11.0025C255.271 12.988 261.247 17.3429 264.657 20.7325C268.088 24.144 272.112 29.563 273.68 32.9087C275.248 36.2215 277.079 41.6514 277.769 44.9752C278.482 48.3757 278.789 55.5608 278.482 61.4295C278.164 67.6492 277.155 73.836 275.993 76.7868C274.919 79.5072 272.233 84.4435 270.018 87.7563C267.814 91.0691 263.078 96.0383 259.503 98.7917C255.918 101.534 250.031 104.913 246.413 106.295C242.794 107.677 236.622 109.487 232.708 110.332C228.048 111.319 218.279 111.856 183.37 111.889V153.573H148.285L148.515 1.97461ZM183.37 83.3685C210.56 83.3685 221.053 82.7871 224.211 82.0741C227.39 81.3611 231.907 79.2659 234.286 77.412C236.666 75.5692 239.604 72.3222 240.81 70.2051C242.246 67.704 243.167 63.7111 243.452 58.6871C243.836 51.8969 243.529 50.3393 240.766 45.1068C238.277 40.3899 236.435 38.5251 231.611 35.8485C226.348 32.9306 224.057 32.3931 213.521 31.6691C206.887 31.2194 197.393 30.8135 192.415 30.7806L183.37 30.7148V83.3685ZM468.433 2.194H600V30.7148H551.759V153.573H516.674V30.7148H468.433V2.194ZM396.07 57.0416L395.742 70.4793C395.533 78.8491 394.853 84.9591 393.954 86.6594C393.165 88.1732 391.224 90.8059 389.635 92.5171C388.056 94.2393 385.403 96.3345 383.736 97.1791C382.08 98.0348 377.892 98.7258 374.417 98.7258C369.823 98.7258 367.027 98.0567 364.089 96.2577C361.874 94.8975 359.111 92.561 357.96 91.0472C356.809 89.5443 355.274 86.5826 354.572 84.4655C353.859 82.3593 353.289 79.2769 353.3 77.6095C353.311 75.9531 354.079 72.75 355.021 70.4793C355.964 68.2196 357.806 65.192 359.133 63.755C360.46 62.318 363.507 60.2338 365.92 59.1149C369.384 57.5243 373.013 57.0855 396.07 57.0416Z" fill="#010066"/>
</svg>
