<svg width="446" height="106" viewBox="0 0 446 106" fill="none" xmlns="http://www.w3.org/2000/svg">
<path fill-rule="evenodd" clip-rule="evenodd" d="M171.46 11.42C172.06 11.2 172.5 10.67 172.5 10.02V0H0V10.07C0 10.73 0.480002 11.19 1.08 11.47C1.24667 11.55 1.34 11.6867 1.36 11.88L1.38 90.26C1.38 90.46 1.27 90.63 1.07 90.72C0.48 90.97 0 91.43 0 92.07V95.15V98.07H1.45C2.26 98.07 2.92 97.41 2.92 96.61V92.99C3.78 92.36 4.3 91.35 4.3 90.26V11.76C4.3 11.6 4.27333 11.4433 4.22 11.29C4.07 10.52 3.66 9.84 3.08 9.34H169.38C168.65 9.98 168.2 10.89 168.2 11.89V90.13C168.2 91.23 168.72 92.23 169.58 92.87V96.35C169.58 97.15 170.23 97.8 171.04 97.8C171.04 97.8 171.043 97.8 171.05 97.8H172.5V94.88V92C172.5 91.37 172.09 90.81 171.5 90.62C171.28 90.55 171.12 90.38 171.12 90.16V11.89C171.12 11.68 171.25 11.49 171.46 11.42ZM169.58 8.04999H2.92V2.91H169.58V8.04999Z" fill="#083EA1"/>
<path fill-rule="evenodd" clip-rule="evenodd" d="M25.42 64.2101V63.1402C25.42 62.8702 25.21 62.6602 24.94 62.6602H10.95C10.68 62.6602 10.46 62.8702 10.46 63.1402V64.2101C10.46 64.4801 10.68 64.6902 10.95 64.6902H24.94C25.21 64.6902 25.42 64.4801 25.42 64.2101Z" fill="#083EA1"/>
<path fill-rule="evenodd" clip-rule="evenodd" d="M31.7305 64.2101C31.7305 64.4801 31.9505 64.6902 32.2105 64.6902H46.2105C46.4805 64.6902 46.6905 64.4801 46.6905 64.2101V63.1402C46.6905 62.8702 46.4805 62.6602 46.2105 62.6602H32.2105C31.9505 62.6602 31.7305 62.8702 31.7305 63.1402V64.2101Z" fill="#083EA1"/>
<path fill-rule="evenodd" clip-rule="evenodd" d="M9.9502 36.52V37.64C9.9502 37.92 10.1702 38.14 10.4502 38.14H25.4402C25.7202 38.14 25.9402 37.92 25.9402 37.64V36.52C25.9402 36.24 25.7202 36.02 25.4402 36.02H10.4502C10.1702 36.02 9.9502 36.24 9.9502 36.52Z" fill="#083EA1"/>
<path fill-rule="evenodd" clip-rule="evenodd" d="M46.7107 36.02H31.7207C31.4407 36.02 31.2207 36.24 31.2207 36.52V37.64C31.2207 37.92 31.4407 38.14 31.7207 38.14H46.7107C46.9807 38.14 47.2007 37.92 47.2007 37.64V36.52C47.2007 36.24 46.9807 36.02 46.7107 36.02Z" fill="#083EA1"/>
<path fill-rule="evenodd" clip-rule="evenodd" d="M58.9301 40.2701V25.5601H59.2801C59.4801 25.5601 59.6501 25.3901 59.6501 25.1801V24.2701C59.6501 24.0601 59.4801 23.8901 59.2801 23.8901H56.4501C56.2501 23.8901 56.0801 24.0601 56.0801 24.2701V25.1801C56.0801 25.3901 56.2501 25.5601 56.4501 25.5601H56.7901V40.2701H58.9301Z" fill="#083EA1"/>
<path fill-rule="evenodd" clip-rule="evenodd" d="M117.11 21.5298C117.11 21.1198 116.77 20.7798 116.35 20.7798H56.22C55.8 20.7798 55.46 21.1198 55.46 21.5298C55.46 21.9498 55.8 22.2898 56.22 22.2898H116.35C116.77 22.2898 117.11 21.9498 117.11 21.5298Z" fill="#083EA1"/>
<path fill-rule="evenodd" clip-rule="evenodd" d="M116.831 17.8298L105.551 12.1698C105.301 12.0398 104.981 12.0398 104.741 12.1698L95.5006 16.8098L86.2706 12.1698C86.1372 12.1165 86.0006 12.0832 85.8606 12.0698C85.7406 12.0798 85.5806 12.1098 85.4506 12.1698L76.2106 16.8098L66.9806 12.1698C66.7306 12.0398 66.4106 12.0398 66.1606 12.1698L54.8906 17.8298C54.4406 18.0598 54.2506 18.6198 54.4706 19.0798C54.6806 19.5298 55.2506 19.7298 55.7006 19.5098L66.5706 14.0498L75.8106 18.6898C76.0606 18.8098 76.3706 18.8098 76.6206 18.6898L85.8606 14.0498L95.1006 18.6898C95.3506 18.8098 95.6506 18.8098 95.9106 18.6898L105.151 14.0498L116.021 19.5098C116.147 19.5698 116.281 19.5998 116.421 19.5998C116.781 19.5998 117.091 19.3998 117.251 19.0698C117.461 18.6198 117.271 18.0598 116.831 17.8298Z" fill="#083EA1"/>
<path fill-rule="evenodd" clip-rule="evenodd" d="M78.0102 40.2701V25.5601H78.3602C78.5602 25.5601 78.7302 25.3901 78.7302 25.1801V24.2701C78.7302 24.0601 78.5602 23.8901 78.3602 23.8901H75.5302C75.3302 23.8901 75.1602 24.0601 75.1602 24.2701V25.1801C75.1602 25.3901 75.3302 25.5601 75.5302 25.5601H75.8702V40.2701H78.0102Z" fill="#083EA1"/>
<path fill-rule="evenodd" clip-rule="evenodd" d="M96.8707 40.2701V25.5601H97.2107C97.4207 25.5601 97.5907 25.3901 97.5907 25.1801V24.2701C97.5907 24.0601 97.4207 23.8901 97.2107 23.8901H94.3907C94.1807 23.8901 94.0107 24.0601 94.0107 24.2701V25.1801C94.0107 25.3901 94.1807 25.5601 94.3907 25.5601H94.7207V40.2701H96.8707Z" fill="#083EA1"/>
<path fill-rule="evenodd" clip-rule="evenodd" d="M115.381 40.2701V25.5601H115.721C115.931 25.5601 116.101 25.3901 116.101 25.1801V24.2701C116.101 24.0601 115.931 23.8901 115.721 23.8901H112.901C112.691 23.8901 112.521 24.0601 112.521 24.2701V25.1801C112.521 25.3901 112.691 25.5601 112.901 25.5601H113.241V40.2701H115.381Z" fill="#083EA1"/>
<path fill-rule="evenodd" clip-rule="evenodd" d="M117.86 58.8599H54.2002C53.7702 58.8599 53.4102 59.2099 53.4102 59.6399V61.2398C53.4102 61.6598 53.7702 62.0198 54.2002 62.0198H117.86C118.29 62.0198 118.64 61.6598 118.64 61.2398V59.6399C118.64 59.2099 118.29 58.8599 117.86 58.8599Z" fill="#083EA1"/>
<path fill-rule="evenodd" clip-rule="evenodd" d="M55.0898 66.4001C55.0898 66.7601 55.3298 67.0602 55.6498 67.1602V89.5302H59.3298V67.1602C59.6598 67.0602 59.8898 66.7601 59.8898 66.4001V63.6602H55.0898V66.4001Z" fill="#083EA1"/>
<path fill-rule="evenodd" clip-rule="evenodd" d="M69.2207 66.4001C69.2207 66.7601 69.4607 67.0602 69.7807 67.1602V89.5302H73.4607V67.1602C73.7907 67.0602 74.0307 66.7601 74.0307 66.4001V63.6602H69.2207V66.4001Z" fill="#083EA1"/>
<path fill-rule="evenodd" clip-rule="evenodd" d="M83.3506 66.4001C83.3506 66.7601 83.5906 67.0602 83.9106 67.1602V89.5302H87.5906V67.1602C87.9206 67.0602 88.1606 66.7601 88.1606 66.4001V63.6602H83.3506V66.4001Z" fill="#083EA1"/>
<path fill-rule="evenodd" clip-rule="evenodd" d="M97.4805 66.4001C97.4805 66.7601 97.7205 67.0602 98.0505 67.1602V89.5302H101.73V67.1602C102.05 67.0602 102.29 66.7601 102.29 66.4001V63.6602H97.4805V66.4001Z" fill="#083EA1"/>
<path fill-rule="evenodd" clip-rule="evenodd" d="M111.681 66.4001C111.681 66.7601 111.921 67.0602 112.251 67.1602V89.5302H115.931V67.1602C116.251 67.0602 116.491 66.7601 116.491 66.4001V63.6602H111.681V66.4001Z" fill="#083EA1"/>
<path fill-rule="evenodd" clip-rule="evenodd" d="M119.01 54.06L86.7003 41.05C86.3003 40.9 85.8703 40.9 85.4803 41.05L53.0403 54.11C52.6403 54.27 52.3203 54.58 52.1503 54.98C51.9803 55.38 51.9803 55.83 52.1403 56.23C52.3903 56.85 52.9803 57.25 53.6503 57.25C53.8636 57.25 54.0669 57.21 54.2603 57.13L86.0903 44.32L117.79 57.08C118.19 57.24 118.64 57.24 119.04 57.07C119.44 56.9 119.75 56.58 119.92 56.18C120.08 55.77 120.07 55.33 119.9 54.93C119.73 54.53 119.42 54.22 119.01 54.06Z" fill="#083EA1"/>
<path fill-rule="evenodd" clip-rule="evenodd" d="M25.5007 89.98H10.5007C10.2307 89.98 10.0107 90.21 10.0107 90.48V91.61C10.0107 91.88 10.2307 92.11 10.5007 92.11H25.5007C25.7707 92.11 25.9907 91.88 25.9907 91.61V90.48C25.9907 90.21 25.7707 89.98 25.5007 89.98Z" fill="#083EA1"/>
<path fill-rule="evenodd" clip-rule="evenodd" d="M46.6199 89.98H31.6299C31.3499 89.98 31.1299 90.21 31.1299 90.48V91.61C31.1299 91.88 31.3499 92.11 31.6299 92.11H46.6199C46.8899 92.11 47.1199 91.88 47.1199 91.61V90.48C47.1199 90.21 46.8899 89.98 46.6199 89.98Z" fill="#083EA1"/>
<path fill-rule="evenodd" clip-rule="evenodd" d="M66.4805 55.7697H105.57L86.2705 47.7197C86.2705 47.7197 66.8805 55.7697 66.4805 55.7697Z" fill="#083EA1"/>
<path fill-rule="evenodd" clip-rule="evenodd" d="M22.3002 75.4598V80.5598V87.2198H24.6002V69.8098C24.6002 69.4098 24.2802 69.0898 23.8902 69.0898H11.6602C11.2702 69.0898 10.9502 69.4098 10.9502 69.8098V87.2198H13.0902V73.4398V71.2998H22.3002V73.4398V75.4598Z" fill="#083EA1"/>
<path fill-rule="evenodd" clip-rule="evenodd" d="M43.64 75.4598V80.5598V87.2198H45.95V69.8098C45.95 69.4098 45.63 69.0898 45.24 69.0898H33.01C32.61 69.0898 32.29 69.4098 32.29 69.8098V87.2198H34.44V73.4398V71.2998H43.64V73.4398V75.4598Z" fill="#083EA1"/>
<path fill-rule="evenodd" clip-rule="evenodd" d="M24.7201 60.09L24.7501 45.45V44.88C24.9301 44.84 25.0635 44.7367 25.1501 44.57C25.2501 44.38 25.2401 44.16 25.1101 43.99C23.9201 42.33 21.1101 41.25 17.9501 41.25C14.7801 41.25 11.9701 42.33 10.7801 43.99C10.6501 44.16 10.6401 44.38 10.7401 44.57C10.8201 44.7167 10.9401 44.8167 11.1001 44.87V45.83H11.0901L11.1201 60.09H13.3901V45.98H18.0001H22.4501V60.09H24.7201ZM13.2701 44.04C14.4601 43.32 16.1501 42.9 17.9401 42.9C19.7301 42.9 21.4201 43.32 22.6101 44.04H13.2701Z" fill="#083EA1"/>
<path fill-rule="evenodd" clip-rule="evenodd" d="M45.8604 60.09L45.8904 45.45V44.88C46.0704 44.84 46.2038 44.7367 46.2904 44.57C46.3904 44.38 46.3804 44.16 46.2504 43.99C45.0604 42.33 42.2504 41.25 39.0904 41.25C35.9204 41.25 33.1104 42.33 31.9204 43.99C31.8004 44.16 31.7804 44.38 31.8804 44.57C31.9604 44.7167 32.0804 44.8167 32.2404 44.87V45.83L32.2604 60.09H34.5404V45.98H39.1404H43.5904V60.09H45.8604ZM34.4104 44.04C35.6104 43.32 37.2904 42.9 39.0804 42.9C40.8804 42.9 42.5604 43.32 43.7604 44.04H34.4104Z" fill="#083EA1"/>
<path fill-rule="evenodd" clip-rule="evenodd" d="M45.8502 33.2599V15.8399C45.8502 15.4499 45.5302 15.1299 45.1402 15.1299H32.9102C32.5202 15.1299 32.2002 15.4499 32.2002 15.8399V21.4899V33.2699H34.5002V21.4899H38.0602H43.5502V33.2599H45.8502ZM34.3402 17.3399H43.5402V19.4799H34.3402V17.3399Z" fill="#083EA1"/>
<path fill-rule="evenodd" clip-rule="evenodd" d="M24.5406 33.2599V15.8399C24.5406 15.4499 24.2206 15.1299 23.8306 15.1299H11.6006C11.2006 15.1299 10.8906 15.4499 10.8906 15.8399V21.4899V33.2699H13.1906V21.4899H16.7506H22.2406V33.2599H24.5406ZM13.0306 17.3399H22.2306V19.4799H13.0306V17.3399Z" fill="#083EA1"/>
<path fill-rule="evenodd" clip-rule="evenodd" d="M141.12 64.2101V63.1402C141.12 62.8702 140.9 62.6602 140.64 62.6602H126.64C126.38 62.6602 126.16 62.8702 126.16 63.1402V64.2101C126.16 64.4801 126.38 64.6902 126.64 64.6902H140.64C140.9 64.6902 141.12 64.4801 141.12 64.2101Z" fill="#083EA1"/>
<path fill-rule="evenodd" clip-rule="evenodd" d="M147.431 64.2101C147.431 64.4801 147.641 64.6902 147.911 64.6902H161.901C162.171 64.6902 162.391 64.4801 162.391 64.2101V63.1402C162.391 62.8702 162.171 62.6602 161.901 62.6602H147.911C147.641 62.6602 147.431 62.8702 147.431 63.1402V64.2101Z" fill="#083EA1"/>
<path fill-rule="evenodd" clip-rule="evenodd" d="M125.65 36.52V37.64C125.65 37.92 125.87 38.14 126.14 38.14H141.14C141.41 38.14 141.63 37.92 141.63 37.64V36.52C141.63 36.24 141.41 36.02 141.14 36.02H126.14C125.87 36.02 125.65 36.24 125.65 36.52Z" fill="#083EA1"/>
<path fill-rule="evenodd" clip-rule="evenodd" d="M162.4 36.02H147.41C147.14 36.02 146.92 36.24 146.92 36.52V37.64C146.92 37.92 147.14 38.14 147.41 38.14H162.4C162.68 38.14 162.9 37.92 162.9 37.64V36.52C162.9 36.24 162.68 36.02 162.4 36.02Z" fill="#083EA1"/>
<path fill-rule="evenodd" clip-rule="evenodd" d="M141.19 89.98H126.2C125.93 89.98 125.7 90.21 125.7 90.48V91.61C125.7 91.88 125.93 92.11 126.2 92.11H141.19C141.47 92.11 141.69 91.88 141.69 91.61V90.48C141.69 90.21 141.47 89.98 141.19 89.98Z" fill="#083EA1"/>
<path fill-rule="evenodd" clip-rule="evenodd" d="M162.32 89.98H147.32C147.05 89.98 146.83 90.21 146.83 90.48V91.61C146.83 91.88 147.05 92.11 147.32 92.11H162.32C162.59 92.11 162.81 91.88 162.81 91.61V90.48C162.81 90.21 162.59 89.98 162.32 89.98Z" fill="#083EA1"/>
<path fill-rule="evenodd" clip-rule="evenodd" d="M137.991 75.4598V80.5598V87.2198H140.301V69.8098C140.301 69.4098 139.981 69.0898 139.581 69.0898H127.351C126.961 69.0898 126.641 69.4098 126.641 69.8098V87.2198H128.791V73.4398V71.2998H137.991V73.4398V75.4598Z" fill="#083EA1"/>
<path fill-rule="evenodd" clip-rule="evenodd" d="M159.34 75.4598V80.5598V87.2198H161.65V69.8098C161.65 69.4098 161.33 69.0898 160.93 69.0898H148.7C148.31 69.0898 147.99 69.4098 147.99 69.8098V87.2198H150.13V73.4398V71.2998H159.34V73.4398V75.4598Z" fill="#083EA1"/>
<path fill-rule="evenodd" clip-rule="evenodd" d="M140.41 60.09L140.44 45.45V44.88C140.62 44.84 140.757 44.7367 140.85 44.57C140.95 44.38 140.93 44.16 140.81 43.99C139.62 42.33 136.8 41.25 133.64 41.25C130.48 41.25 127.66 42.33 126.47 43.99C126.35 44.16 126.33 44.38 126.43 44.57C126.51 44.7167 126.63 44.8167 126.79 44.87V45.83L126.82 60.09H129.09V45.98H133.7H138.14V60.09H140.41ZM128.96 44.04C130.16 43.32 131.84 42.9 133.64 42.9C135.43 42.9 137.11 43.32 138.31 44.04H128.96Z" fill="#083EA1"/>
<path fill-rule="evenodd" clip-rule="evenodd" d="M161.56 60.09L161.59 45.45V44.88C161.77 44.84 161.903 44.7367 161.99 44.57C162.09 44.38 162.07 44.16 161.95 43.99C160.76 42.33 157.95 41.25 154.78 41.25C151.62 41.25 148.8 42.33 147.62 43.99C147.49 44.16 147.48 44.38 147.58 44.57C147.66 44.7167 147.777 44.8167 147.93 44.87V45.83L147.96 60.09H150.23V45.98H154.84H159.28V60.09H161.56ZM150.12 44.04C151.31 43.32 153 42.9 154.79 42.9C156.58 42.9 158.27 43.32 159.46 44.04H150.12Z" fill="#083EA1"/>
<path fill-rule="evenodd" clip-rule="evenodd" d="M161.551 33.2599V15.8399C161.551 15.4499 161.231 15.1299 160.831 15.1299H148.611C148.211 15.1299 147.891 15.4499 147.891 15.8399V21.4899V33.2699H150.201V21.4899H153.761H159.241V33.2599H161.551ZM150.041 17.3399H159.251V19.4799H150.041V17.3399Z" fill="#083EA1"/>
<path fill-rule="evenodd" clip-rule="evenodd" d="M140.24 33.2599V15.8399C140.24 15.4499 139.92 15.1299 139.52 15.1299H127.3C126.9 15.1299 126.58 15.4499 126.58 15.8399V21.4899V33.2699H128.89V21.4899H132.45H137.93V33.2599H140.24ZM128.73 17.3399H137.94V19.4799H128.73V17.3399Z" fill="#083EA1"/>
<path fill-rule="evenodd" clip-rule="evenodd" d="M73.8205 40.2698V30.7198C73.8205 27.1998 70.9505 24.3398 67.4205 24.3398C63.8905 24.3398 61.0205 27.1998 61.0205 30.7198V31.0699V40.2698H63.0405V31.0699H67.4205H71.8005V40.2698H73.8205ZM63.3905 29.0598C63.5972 28.5598 63.8738 28.1265 64.2205 27.7599L64.3505 27.6099C65.1505 26.8299 66.2105 26.3799 67.3205 26.3599H67.5105C68.7005 26.3799 69.8005 26.8699 70.6105 27.7299L70.7405 27.8799C71.0405 28.2199 71.2805 28.6132 71.4605 29.0598H63.3905Z" fill="#083EA1"/>
<path fill-rule="evenodd" clip-rule="evenodd" d="M92.7402 40.2698V30.7198C92.7402 27.1998 89.8702 24.3398 86.3402 24.3398C82.8202 24.3398 79.9502 27.1998 79.9502 30.7198V31.0699V40.2698H81.9602V31.0699H86.3502H90.7202V40.2698H92.7402ZM82.3202 29.0598C82.5202 28.5598 82.7935 28.1265 83.1402 27.7599L83.2702 27.6099C84.0702 26.8299 85.1302 26.3799 86.2502 26.3599H86.4402C87.6202 26.3799 88.7202 26.8699 89.5302 27.7299L89.6602 27.8799C89.9602 28.2199 90.2002 28.6132 90.3802 29.0598H82.3202Z" fill="#083EA1"/>
<path fill-rule="evenodd" clip-rule="evenodd" d="M111.591 40.2698V30.7198C111.591 27.1998 108.731 24.3398 105.201 24.3398C101.671 24.3398 98.8008 27.1998 98.8008 30.7198V31.0699V40.2698H100.821V31.0699H105.201H109.581V40.2698H111.591ZM101.161 29.0598C101.367 28.5598 101.641 28.1265 101.981 27.7599L102.121 27.6099C102.921 26.8299 103.981 26.3799 105.091 26.3599H105.281C106.471 26.3799 107.571 26.8699 108.381 27.7299L108.511 27.8799C108.811 28.2199 109.051 28.6132 109.231 29.0598H101.161Z" fill="#083EA1"/>
<path d="M26.4022 102.539V101.45L29.1348 97.1445H30.0744V98.653H29.5183L27.7956 101.379V101.43H31.6788V102.539H26.4022ZM29.5439 103.69V102.207L29.5694 101.724V97.1445H30.867V103.69H29.5439ZM37.0425 103.69H34.7222V97.1445H37.0617C37.7201 97.1445 38.2868 97.2755 38.762 97.5376C39.2371 97.7975 39.6025 98.1715 39.8582 98.6594C40.116 99.1473 40.2449 99.7311 40.2449 100.411C40.2449 101.093 40.116 101.679 39.8582 102.169C39.6025 102.659 39.235 103.035 38.7556 103.297C38.2783 103.559 37.7073 103.69 37.0425 103.69ZM36.1061 102.504H36.985C37.3941 102.504 37.7382 102.432 38.0173 102.287C38.2986 102.14 38.5095 101.913 38.6501 101.606C38.7929 101.297 38.8643 100.899 38.8643 100.411C38.8643 99.9272 38.7929 99.5319 38.6501 99.2251C38.5095 98.9183 38.2996 98.6924 38.0205 98.5475C37.7414 98.4027 37.3973 98.3302 36.9882 98.3302H36.1061V102.504ZM41.2701 103.69V97.1445H45.6806V98.2855H42.6539V99.8451H45.4537V100.986H42.6539V102.549H45.6934V103.69H41.2701ZM54.3386 97.1445V103.69H53.1433L50.2956 99.5703H50.2477V103.69H48.8638V97.1445H50.0783L52.9036 101.261H52.9611V97.1445H54.3386ZM61.4969 100.417C61.4969 101.131 61.3616 101.738 61.091 102.239C60.8225 102.74 60.4561 103.122 59.9916 103.386C59.5292 103.648 59.0093 103.779 58.4319 103.779C57.8502 103.779 57.3282 103.647 56.8659 103.383C56.4035 103.119 56.0381 102.736 55.7696 102.236C55.5012 101.735 55.3669 101.129 55.3669 100.417C55.3669 99.7034 55.5012 99.0962 55.7696 98.5955C56.0381 98.0948 56.4035 97.7134 56.8659 97.4513C57.3282 97.1871 57.8502 97.055 58.4319 97.055C59.0093 97.055 59.5292 97.1871 59.9916 97.4513C60.4561 97.7134 60.8225 98.0948 61.091 98.5955C61.3616 99.0962 61.4969 99.7034 61.4969 100.417ZM60.0938 100.417C60.0938 99.9549 60.0246 99.5649 59.8861 99.2475C59.7497 98.93 59.5569 98.6892 59.3076 98.5252C59.0583 98.3611 58.7664 98.2791 58.4319 98.2791C58.0974 98.2791 57.8055 98.3611 57.5562 98.5252C57.3069 98.6892 57.113 98.93 56.9745 99.2475C56.8382 99.5649 56.77 99.9549 56.77 100.417C56.77 100.88 56.8382 101.269 56.9745 101.587C57.113 101.904 57.3069 102.145 57.5562 102.309C57.8055 102.473 58.0974 102.555 58.4319 102.555C58.7664 102.555 59.0583 102.473 59.3076 102.309C59.5569 102.145 59.7497 101.904 59.8861 101.587C60.0246 101.269 60.0938 100.88 60.0938 100.417ZM63.3354 97.1445L64.9174 102.117H64.9782L66.5634 97.1445H68.0975L65.8411 103.69H64.0577L61.7981 97.1445H63.3354ZM68.8853 103.69V97.1445H73.2958V98.2855H70.2692V99.8451H73.0689V100.986H70.2692V102.549H73.3086V103.69H68.8853ZM74.396 97.1445H76.1027L77.9053 101.542H77.982L79.7845 97.1445H81.4912V103.69H80.1489V99.4296H80.0945L78.4007 103.658H77.4866L75.7927 99.4137H75.7384V103.69H74.396V97.1445ZM82.6314 103.69V97.1445H85.2521C85.7337 97.1445 86.1353 97.2159 86.457 97.3586C86.7788 97.5014 87.0206 97.6995 87.1825 97.9531C87.3445 98.2045 87.4254 98.4943 87.4254 98.8224C87.4254 99.0781 87.3743 99.3029 87.272 99.4968C87.1697 99.6885 87.0291 99.8462 86.8501 99.9698C86.6733 100.091 86.4709 100.178 86.2429 100.229V100.293C86.4922 100.303 86.7255 100.374 86.9428 100.504C87.1623 100.633 87.3402 100.816 87.4766 101.05C87.6129 101.282 87.6811 101.559 87.6811 101.881C87.6811 102.228 87.5948 102.538 87.4222 102.811C87.2518 103.082 86.9993 103.296 86.6648 103.453C86.3303 103.611 85.918 103.69 85.4279 103.69H82.6314ZM84.0153 102.559H85.1435C85.5291 102.559 85.8104 102.485 85.9872 102.338C86.1641 102.189 86.2525 101.991 86.2525 101.744C86.2525 101.562 86.2088 101.403 86.1214 101.264C86.0341 101.126 85.9094 101.017 85.7475 100.938C85.5877 100.859 85.397 100.82 85.1754 100.82H84.0153V102.559ZM84.0153 99.8835H85.0412C85.2308 99.8835 85.3991 99.8505 85.5462 99.7844C85.6953 99.7162 85.8125 99.6203 85.8977 99.4968C85.9851 99.3732 86.0288 99.2251 86.0288 99.0525C86.0288 98.816 85.9446 98.6253 85.7763 98.4804C85.6101 98.3355 85.3736 98.2631 85.0668 98.2631H84.0153V99.8835ZM88.5816 103.69V97.1445H91.164C91.6583 97.1445 92.0802 97.2329 92.4296 97.4098C92.7812 97.5845 93.0486 97.8327 93.2318 98.1544C93.4172 98.474 93.5099 98.8501 93.5099 99.2826C93.5099 99.7173 93.4161 100.091 93.2286 100.404C93.0411 100.716 92.7694 100.954 92.4136 101.12C92.0599 101.287 91.6317 101.37 91.1288 101.37H89.3998V100.257H90.9051C91.1693 100.257 91.3888 100.221 91.5635 100.149C91.7382 100.076 91.8682 99.9676 91.9534 99.8228C92.0407 99.6779 92.0844 99.4978 92.0844 99.2826C92.0844 99.0653 92.0407 98.8821 91.9534 98.7329C91.8682 98.5838 91.7371 98.4708 91.5603 98.3941C91.3856 98.3153 91.165 98.2759 90.8987 98.2759H89.9655V103.69H88.5816ZM92.1164 100.711L93.7432 103.69H92.2155L90.6238 100.711H92.1164ZM100.503 100.417C100.503 101.131 100.367 101.738 100.097 102.239C99.8284 102.74 99.4619 103.122 98.9974 103.386C98.5351 103.648 98.0152 103.779 97.4378 103.779C96.8561 103.779 96.3341 103.647 95.8717 103.383C95.4094 103.119 95.0439 102.736 94.7755 102.236C94.507 101.735 94.3728 101.129 94.3728 100.417C94.3728 99.7034 94.507 99.0962 94.7755 98.5955C95.0439 98.0948 95.4094 97.7134 95.8717 97.4513C96.3341 97.1871 96.8561 97.055 97.4378 97.055C98.0152 97.055 98.5351 97.1871 98.9974 97.4513C99.4619 97.7134 99.8284 98.0948 100.097 98.5955C100.367 99.0962 100.503 99.7034 100.503 100.417ZM99.0997 100.417C99.0997 99.9549 99.0305 99.5649 98.892 99.2475C98.7556 98.93 98.5628 98.6892 98.3135 98.5252C98.0642 98.3611 97.7723 98.2791 97.4378 98.2791C97.1032 98.2791 96.8113 98.3611 96.5621 98.5252C96.3128 98.6892 96.1189 98.93 95.9804 99.2475C95.844 99.5649 95.7758 99.9549 95.7758 100.417C95.7758 100.88 95.844 101.269 95.9804 101.587C96.1189 101.904 96.3128 102.145 96.5621 102.309C96.8113 102.473 97.1032 102.555 97.4378 102.555C97.7723 102.555 98.0642 102.473 98.3135 102.309C98.5628 102.145 98.7556 101.904 98.892 101.587C99.0305 101.269 99.0997 100.88 99.0997 100.417ZM105.931 103.69H103.611V97.1445H105.95C106.609 97.1445 107.176 97.2755 107.651 97.5376C108.126 97.7975 108.491 98.1715 108.747 98.6594C109.005 99.1473 109.134 99.7311 109.134 100.411C109.134 101.093 109.005 101.679 108.747 102.169C108.491 102.659 108.124 103.035 107.644 103.297C107.167 103.559 106.596 103.69 105.931 103.69ZM104.995 102.504H105.874C106.283 102.504 106.627 102.432 106.906 102.287C107.187 102.14 107.398 101.913 107.539 101.606C107.682 101.297 107.753 100.899 107.753 100.411C107.753 99.9272 107.682 99.5319 107.539 99.2251C107.398 98.9183 107.188 98.6924 106.909 98.5475C106.63 98.4027 106.286 98.3302 105.877 98.3302H104.995V102.504ZM110.159 103.69V97.1445H114.569V98.2855H111.543V99.8451H114.342V100.986H111.543V102.549H114.582V103.69H110.159ZM120.562 97.1445V103.69H119.178V98.4581H119.14L117.641 99.3977V98.1704L119.261 97.1445H120.562ZM124.559 103.779C124.067 103.779 123.629 103.7 123.246 103.54C122.864 103.378 122.565 103.157 122.348 102.878C122.13 102.599 122.022 102.283 122.022 101.929C122.022 101.656 122.083 101.406 122.207 101.178C122.333 100.948 122.503 100.757 122.718 100.606C122.934 100.452 123.174 100.354 123.441 100.312V100.267C123.091 100.197 122.808 100.027 122.59 99.7588C122.373 99.4882 122.264 99.174 122.264 98.816C122.264 98.4772 122.364 98.1757 122.562 97.9115C122.76 97.6452 123.032 97.4364 123.377 97.2851C123.724 97.1317 124.118 97.055 124.559 97.055C125 97.055 125.393 97.1317 125.739 97.2851C126.086 97.4385 126.359 97.6484 126.557 97.9147C126.755 98.1789 126.855 98.4794 126.857 98.816C126.855 99.1761 126.744 99.4904 126.525 99.7588C126.305 100.027 126.024 100.197 125.681 100.267V100.312C125.943 100.354 126.181 100.452 126.394 100.606C126.609 100.757 126.779 100.948 126.905 101.178C127.033 101.406 127.098 101.656 127.1 101.929C127.098 102.283 126.988 102.599 126.771 102.878C126.554 103.157 126.253 103.378 125.87 103.54C125.488 103.7 125.051 103.779 124.559 103.779ZM124.559 102.763C124.779 102.763 124.97 102.724 125.134 102.645C125.299 102.564 125.426 102.453 125.518 102.312C125.612 102.17 125.659 102.006 125.659 101.82C125.659 101.631 125.611 101.463 125.515 101.318C125.419 101.171 125.289 101.056 125.125 100.973C124.961 100.888 124.772 100.845 124.559 100.845C124.348 100.845 124.16 100.888 123.994 100.973C123.827 101.056 123.696 101.171 123.6 101.318C123.507 101.463 123.46 101.631 123.46 101.82C123.46 102.006 123.506 102.17 123.597 102.312C123.689 102.453 123.818 102.564 123.984 102.645C124.15 102.724 124.342 102.763 124.559 102.763ZM124.559 99.8387C124.742 99.8387 124.905 99.8014 125.048 99.7269C125.191 99.6523 125.303 99.549 125.384 99.4169C125.465 99.2848 125.505 99.1324 125.505 98.9598C125.505 98.7894 125.465 98.6402 125.384 98.5124C125.303 98.3824 125.192 98.2812 125.051 98.2088C124.911 98.1342 124.747 98.0969 124.559 98.0969C124.374 98.0969 124.21 98.1342 124.067 98.2088C123.924 98.2812 123.812 98.3824 123.731 98.5124C123.653 98.6402 123.613 98.7894 123.613 98.9598C123.613 99.1324 123.654 99.2848 123.735 99.4169C123.816 99.549 123.927 99.6523 124.07 99.7269C124.213 99.8014 124.376 99.8387 124.559 99.8387ZM130.915 97.1445V103.69H129.531V98.4581H129.493L127.994 99.3977V98.1704L129.615 97.1445H130.915ZM134.89 103.779C134.413 103.779 133.988 103.697 133.615 103.533C133.244 103.367 132.951 103.139 132.736 102.849C132.523 102.557 132.413 102.221 132.407 101.839H133.801C133.809 101.999 133.861 102.14 133.957 102.261C134.055 102.381 134.185 102.473 134.347 102.539C134.509 102.605 134.691 102.638 134.894 102.638C135.104 102.638 135.291 102.601 135.453 102.527C135.615 102.452 135.742 102.349 135.833 102.217C135.925 102.084 135.971 101.932 135.971 101.76C135.971 101.585 135.922 101.43 135.824 101.296C135.728 101.16 135.589 101.053 135.408 100.977C135.229 100.9 135.016 100.861 134.769 100.861H134.158V99.8451H134.769C134.978 99.8451 135.162 99.8089 135.322 99.7365C135.484 99.664 135.609 99.5639 135.699 99.436C135.788 99.3061 135.833 99.1548 135.833 98.9822C135.833 98.8181 135.794 98.6743 135.715 98.5507C135.638 98.425 135.53 98.327 135.389 98.2567C135.25 98.1864 135.089 98.1512 134.903 98.1512C134.716 98.1512 134.544 98.1853 134.389 98.2535C134.233 98.3196 134.108 98.4144 134.015 98.538C133.921 98.6615 133.871 98.8064 133.864 98.9726H132.538C132.544 98.5955 132.652 98.2631 132.861 97.9755C133.07 97.6878 133.351 97.463 133.705 97.3011C134.06 97.137 134.462 97.055 134.91 97.055C135.361 97.055 135.756 97.137 136.095 97.3011C136.434 97.4652 136.697 97.6867 136.885 97.9659C137.074 98.2429 137.168 98.5539 137.166 98.8991C137.168 99.2656 137.054 99.5713 136.824 99.8164C136.596 100.061 136.299 100.217 135.932 100.283V100.334C136.414 100.396 136.78 100.563 137.032 100.836C137.285 101.106 137.411 101.445 137.409 101.852C137.411 102.225 137.303 102.556 137.086 102.846C136.871 103.136 136.574 103.364 136.194 103.53C135.815 103.696 135.38 103.779 134.89 103.779Z" fill="#2C2E35"/>
<path fill-rule="evenodd" clip-rule="evenodd" d="M398.18 11.6201H380.54L357.84 75.7301H375.04L379.38 63.3101H399.6L403.85 75.7301H420.88L398.18 11.6201ZM383.02 48.5901L389.4 28.1101L395.69 48.5901H383.02Z" fill="#083EA1"/>
<path fill-rule="evenodd" clip-rule="evenodd" d="M413.9 56.0298L412.13 51.0098C407.97 55.1698 403.813 59.3264 399.66 63.4798L401.39 68.5398C405.564 64.3731 409.733 60.2031 413.9 56.0298Z" fill="#FF3A25"/>
<path fill-rule="evenodd" clip-rule="evenodd" d="M415.65 60.9599L413.87 55.9399C409.697 60.1066 405.527 64.2766 401.36 68.45L403.09 73.5099C407.277 69.3233 411.464 65.1399 415.65 60.9599Z" fill="white"/>
<path fill-rule="evenodd" clip-rule="evenodd" d="M415.611 60.8599C411.431 65.0465 407.247 69.2299 403.061 73.4099L403.851 75.7299H407.361C410.687 72.4032 414.014 69.0732 417.341 65.7398L415.611 60.8599Z" fill="#020407"/>
<path fill-rule="evenodd" clip-rule="evenodd" d="M419.091 70.69L417.361 65.79C414.047 69.1034 410.737 72.4167 407.431 75.73H414.061C415.741 74.05 417.417 72.37 419.091 70.69Z" fill="white"/>
<path fill-rule="evenodd" clip-rule="evenodd" d="M419.06 70.5801C417.34 72.2934 415.623 74.0101 413.91 75.7301H420.75C420.783 75.6967 420.814 75.6634 420.84 75.6301L419.06 70.5801Z" fill="#FF3A25"/>
<path fill-rule="evenodd" clip-rule="evenodd" d="M417.23 39.3301C417.197 39.3434 417.154 39.3767 417.1 39.4301C414.867 41.6634 412.634 43.8967 410.4 46.1301L412.18 51.1501C414.454 48.8767 416.727 46.6034 419 44.3301L417.23 39.3301Z" fill="#FF3A25"/>
<path fill-rule="evenodd" clip-rule="evenodd" d="M420.751 49.26L418.971 44.23C416.697 46.51 414.421 48.7866 412.141 51.06L413.921 56.08C416.194 53.8067 418.471 51.5333 420.751 49.26Z" fill="white"/>
<path fill-rule="evenodd" clip-rule="evenodd" d="M422.441 54.0402L420.711 49.1602C418.437 51.4335 416.164 53.7068 413.891 55.9802L415.621 60.8701C417.894 58.5901 420.167 56.3135 422.441 54.0402Z" fill="#020407"/>
<path fill-rule="evenodd" clip-rule="evenodd" d="M422.46 54.0898C420.187 56.3632 417.91 58.6399 415.63 60.9199L417.37 65.8199C419.643 63.5399 421.917 61.2632 424.19 58.9898L422.46 54.0898Z" fill="white"/>
<path fill-rule="evenodd" clip-rule="evenodd" d="M424.15 58.8799C421.877 61.1532 419.603 63.4266 417.33 65.6999L419.12 70.7599C421.393 68.4866 423.667 66.2099 425.94 63.9299L424.15 58.8799Z" fill="#FF3A25"/>
<path fill-rule="evenodd" clip-rule="evenodd" d="M184.42 26.91V11.75H238.24V26.91H219.88V75.85H202.59V26.91H184.42Z" fill="#083EA1"/>
<path fill-rule="evenodd" clip-rule="evenodd" d="M267.72 55.55C267.72 60.2767 267.217 64.2067 266.21 67.34C265.203 70.4733 263.333 72.8233 260.6 74.39C257.867 75.9567 253.913 76.74 248.74 76.74C246.94 76.74 244.887 76.66 242.58 76.5C240.273 76.3333 238.457 76.1167 237.13 75.85V60.34C237.93 60.4267 238.847 60.5233 239.88 60.63C240.913 60.73 241.887 60.78 242.8 60.78C245.873 60.78 247.913 59.9967 248.92 58.43C249.927 56.8633 250.43 54.4267 250.43 51.12V11.75H267.72V55.55Z" fill="#083EA1"/>
<path fill-rule="evenodd" clip-rule="evenodd" d="M278.49 75.85V11.75H304.11L314.49 50.85L324.95 11.75H350.48V75.85H333.19V29.39L320.69 75.85H308.28L295.73 29.39V75.85H278.49Z" fill="#083EA1"/>
<path fill-rule="evenodd" clip-rule="evenodd" d="M197.45 11.75C203.99 20.03 211.52 27.46 219.88 33.89V26.91H238.24V11.75H197.45Z" fill="url(#paint0_linear_2564_289)"/>
<path fill-rule="evenodd" clip-rule="evenodd" d="M324.95 11.75L314.49 50.85L304.11 11.75H278.49V58.79C284.13 59.63 289.877 60.09 295.73 60.17V29.39L304 59.99C311.45 59.61 318.72 58.56 325.78 56.94L333.19 29.39V55.01C339.157 53.25 344.92 51.08 350.48 48.5V11.75H324.95Z" fill="url(#paint1_linear_2564_289)"/>
<path fill-rule="evenodd" clip-rule="evenodd" d="M250.43 11.75V51.12C250.43 51.16 250.427 51.2033 250.42 51.25C256 53.4567 261.757 55.2667 267.69 56.68C267.69 56.3 267.72 55.94 267.72 55.55V11.75H250.43Z" fill="url(#paint2_linear_2564_289)"/>
<path fill-rule="evenodd" clip-rule="evenodd" d="M380.49 11.75L371.94 35.9C381.39 29.03 389.86 20.91 397.09 11.75H380.49Z" fill="url(#paint3_linear_2564_289)"/>
<path d="M184.425 85.7851V84.5173H190.398V85.7851H188.172V91.79H186.652V85.7851H184.425ZM191.382 91.79V84.5173H194.251C194.801 84.5173 195.269 84.6156 195.658 84.8121C196.048 85.0062 196.345 85.282 196.549 85.6395C196.755 85.9946 196.858 86.4124 196.858 86.893C196.858 87.376 196.754 87.7915 196.545 88.1395C196.337 88.4851 196.035 88.7503 195.64 88.9349C195.247 89.1196 194.771 89.2119 194.212 89.2119H192.291V87.9761H193.964C194.257 87.9761 194.501 87.9359 194.695 87.8554C194.889 87.7749 195.034 87.6541 195.129 87.4932C195.226 87.3322 195.274 87.1321 195.274 86.893C195.274 86.6515 195.226 86.4479 195.129 86.2822C195.034 86.1165 194.888 85.991 194.692 85.9058C194.498 85.8182 194.253 85.7744 193.957 85.7744H192.92V91.79H191.382ZM195.31 88.4804L197.117 91.79H195.42L193.651 88.4804H195.31ZM199.482 84.5173V91.79H197.945V84.5173H199.482ZM200.747 91.79V84.5173H203.659C204.194 84.5173 204.641 84.5966 204.998 84.7552C205.356 84.9139 205.624 85.134 205.804 85.4157C205.984 85.6951 206.074 86.0171 206.074 86.3817C206.074 86.6657 206.017 86.9155 205.904 87.1309C205.79 87.344 205.634 87.5192 205.435 87.6565C205.238 87.7915 205.013 87.8873 204.76 87.9442V88.0152C205.037 88.027 205.296 88.1051 205.538 88.2496C205.782 88.394 205.979 88.5964 206.131 88.8568C206.282 89.1148 206.358 89.4226 206.358 89.7801C206.358 90.166 206.262 90.5104 206.07 90.8135C205.881 91.1141 205.601 91.3521 205.229 91.5273C204.857 91.7024 204.399 91.79 203.855 91.79H200.747ZM202.285 90.5329H203.539C203.967 90.5329 204.28 90.4513 204.476 90.2879C204.673 90.1222 204.771 89.902 204.771 89.6274C204.771 89.4262 204.722 89.2486 204.625 89.0947C204.528 88.9408 204.39 88.8201 204.21 88.7325C204.032 88.6449 203.82 88.6011 203.574 88.6011H202.285V90.5329ZM202.285 87.5606H203.425C203.636 87.5606 203.823 87.5239 203.986 87.4506C204.152 87.3748 204.282 87.2683 204.377 87.1309C204.474 86.9936 204.522 86.8291 204.522 86.6373C204.522 86.3746 204.429 86.1627 204.242 86.0017C204.057 85.8407 203.794 85.7602 203.453 85.7602H202.285V87.5606ZM211.851 84.5173H213.388V89.2403C213.388 89.7706 213.262 90.2346 213.009 90.6324C212.758 91.0301 212.406 91.3402 211.954 91.5628C211.502 91.7829 210.975 91.893 210.374 91.893C209.77 91.893 209.242 91.7829 208.79 91.5628C208.338 91.3402 207.986 91.0301 207.735 90.6324C207.484 90.2346 207.359 89.7706 207.359 89.2403V84.5173H208.896V89.1089C208.896 89.3859 208.957 89.6321 209.077 89.8476C209.201 90.063 209.373 90.2323 209.596 90.3554C209.818 90.4785 210.078 90.54 210.374 90.54C210.672 90.54 210.931 90.4785 211.151 90.3554C211.374 90.2323 211.545 90.063 211.666 89.8476C211.789 89.6321 211.851 89.3859 211.851 89.1089V84.5173ZM220.737 84.5173V91.79H219.409L216.244 87.2126H216.191V91.79H214.654V84.5173H216.003L219.142 89.0912H219.206V84.5173H220.737ZM223.261 91.79H221.613L224.124 84.5173H226.105L228.612 91.79H226.964L225.143 86.1792H225.086L223.261 91.79ZM223.158 88.9314H227.05V90.1317H223.158V88.9314ZM229.488 91.79V84.5173H231.025V90.5223H234.143V91.79H229.488ZM240.054 91.79H237.476V84.5173H240.075C240.807 84.5173 241.437 84.6629 241.964 84.9541C242.492 85.2429 242.898 85.6584 243.183 86.2006C243.469 86.7427 243.612 87.3914 243.612 88.1466C243.612 88.9041 243.469 89.5552 243.183 90.0997C242.898 90.6442 242.49 91.0621 241.957 91.3532C241.427 91.6444 240.793 91.79 240.054 91.79ZM239.013 90.4726H239.99C240.445 90.4726 240.827 90.3921 241.137 90.2311C241.45 90.0677 241.684 89.8156 241.84 89.4747C241.999 89.1314 242.078 88.6887 242.078 88.1466C242.078 87.6092 241.999 87.17 241.84 86.8291C241.684 86.4882 241.451 86.2372 241.141 86.0763C240.83 85.9153 240.448 85.8348 239.994 85.8348H239.013V90.4726ZM244.751 91.79V84.5173H249.652V85.7851H246.289V87.518H249.4V88.7858H246.289V90.5223H249.666V91.79H244.751ZM256.101 84.5173H257.621V89.5883C257.621 90.0571 257.515 90.4643 257.305 90.8099C257.096 91.1556 256.806 91.4219 256.434 91.6089C256.063 91.796 255.631 91.8895 255.138 91.8895C254.7 91.8895 254.303 91.8125 253.945 91.6586C253.59 91.5024 253.308 91.2657 253.1 90.9484C252.892 90.6288 252.789 90.2275 252.791 89.7446H254.322C254.326 89.9363 254.365 90.1009 254.439 90.2382C254.515 90.3731 254.617 90.4773 254.748 90.5507C254.88 90.6217 255.037 90.6572 255.216 90.6572C255.406 90.6572 255.566 90.617 255.696 90.5365C255.828 90.4536 255.929 90.3329 255.998 90.1743C256.066 90.0157 256.101 89.8203 256.101 89.5883V84.5173ZM263.384 84.5173H264.922V89.2403C264.922 89.7706 264.795 90.2346 264.542 90.6324C264.291 91.0301 263.939 91.3402 263.487 91.5628C263.035 91.7829 262.508 91.893 261.907 91.893C261.303 91.893 260.775 91.7829 260.323 91.5628C259.871 91.3402 259.519 91.0301 259.268 90.6324C259.017 90.2346 258.892 89.7706 258.892 89.2403V84.5173H260.43V89.1089C260.43 89.3859 260.49 89.6321 260.611 89.8476C260.734 90.063 260.907 90.2323 261.129 90.3554C261.352 90.4785 261.611 90.54 261.907 90.54C262.205 90.54 262.464 90.4785 262.684 90.3554C262.907 90.2323 263.079 90.063 263.199 89.8476C263.323 89.6321 263.384 89.3859 263.384 89.1089V84.5173ZM270.132 86.6089C270.104 86.3225 269.982 86.0999 269.766 85.9413C269.551 85.7827 269.259 85.7034 268.889 85.7034C268.638 85.7034 268.426 85.7389 268.254 85.8099C268.081 85.8786 267.948 85.9745 267.856 86.0976C267.766 86.2207 267.721 86.3604 267.721 86.5166C267.716 86.6468 267.743 86.7604 267.803 86.8575C267.864 86.9546 267.948 87.0386 268.055 87.1096C268.161 87.1783 268.284 87.2387 268.424 87.2907C268.564 87.3405 268.713 87.3831 268.871 87.4186L269.525 87.5748C269.842 87.6459 270.133 87.7406 270.398 87.8589C270.664 87.9773 270.893 88.1229 271.087 88.2957C271.281 88.4685 271.432 88.6721 271.538 88.9065C271.647 89.1409 271.703 89.4096 271.705 89.7126C271.703 90.1577 271.589 90.5436 271.364 90.8703C271.142 91.1946 270.82 91.4468 270.398 91.6267C269.979 91.8042 269.474 91.893 268.882 91.893C268.295 91.893 267.784 91.8031 267.348 91.6231C266.915 91.4432 266.576 91.1769 266.332 90.8241C266.091 90.469 265.964 90.0299 265.952 89.5067H267.44C267.457 89.7505 267.527 89.9541 267.65 90.1175C267.775 90.2784 267.942 90.4004 268.151 90.4832C268.361 90.5637 268.599 90.604 268.864 90.604C269.125 90.604 269.351 90.5661 269.543 90.4903C269.737 90.4146 269.887 90.3092 269.994 90.1743C270.1 90.0393 270.153 89.8843 270.153 89.7091C270.153 89.5457 270.105 89.4084 270.008 89.2971C269.913 89.1859 269.773 89.0912 269.589 89.0131C269.406 88.9349 269.183 88.8639 268.918 88.8L268.126 88.6011C267.513 88.452 267.028 88.2188 266.673 87.9015C266.318 87.5843 266.142 87.157 266.144 86.6196C266.142 86.1792 266.259 85.7945 266.496 85.4655C266.735 85.1364 267.063 84.8795 267.479 84.6949C267.896 84.5102 268.37 84.4179 268.9 84.4179C269.44 84.4179 269.911 84.5102 270.313 84.6949C270.718 84.8795 271.033 85.1364 271.258 85.4655C271.483 85.7945 271.599 86.1757 271.606 86.6089H270.132ZM272.463 85.7851V84.5173H278.436V85.7851H276.209V91.79H274.689V85.7851H272.463ZM280.957 84.5173V91.79H279.419V84.5173H280.957ZM288.639 87.0635H287.083C287.055 86.8622 286.997 86.6835 286.909 86.5273C286.822 86.3686 286.709 86.2337 286.572 86.1224C286.435 86.0112 286.276 85.9259 286.096 85.8667C285.919 85.8076 285.726 85.778 285.517 85.778C285.141 85.778 284.813 85.8715 284.534 86.0585C284.254 86.2432 284.038 86.5131 283.884 86.8682C283.73 87.2209 283.653 87.6494 283.653 88.1537C283.653 88.6721 283.73 89.1077 283.884 89.4605C284.04 89.8132 284.258 90.0796 284.537 90.2595C284.817 90.4394 285.14 90.5294 285.507 90.5294C285.713 90.5294 285.903 90.5022 286.078 90.4477C286.256 90.3933 286.413 90.3139 286.551 90.2098C286.688 90.1032 286.802 89.9742 286.892 89.8227C286.984 89.6712 287.048 89.4984 287.083 89.3042L288.639 89.3113C288.599 89.6452 288.498 89.9671 288.337 90.2773C288.178 90.585 287.964 90.8608 287.694 91.1047C287.427 91.3461 287.107 91.5379 286.735 91.68C286.366 91.8196 285.948 91.8895 285.482 91.8895C284.833 91.8895 284.253 91.7427 283.742 91.4491C283.233 91.1556 282.83 90.7306 282.534 90.1743C282.241 89.6179 282.094 88.9444 282.094 88.1537C282.094 87.3606 282.243 86.6859 282.542 86.1295C282.84 85.5732 283.245 85.1494 283.756 84.8582C284.267 84.5647 284.843 84.4179 285.482 84.4179C285.903 84.4179 286.294 84.4771 286.654 84.5954C287.016 84.7138 287.337 84.8866 287.616 85.1139C287.895 85.3388 288.123 85.6146 288.298 85.9413C288.475 86.268 288.589 86.6421 288.639 87.0635ZM285.102 91.7687H285.798L285.741 92.0777C285.985 92.1156 286.184 92.2067 286.338 92.3511C286.494 92.4955 286.573 92.692 286.576 92.9406C286.578 93.2934 286.415 93.5739 286.086 93.7822C285.757 93.9929 285.295 94.0983 284.701 94.0983L284.686 93.4236C284.985 93.4236 285.218 93.3869 285.386 93.3135C285.556 93.2425 285.645 93.1312 285.652 92.9797C285.657 92.8353 285.601 92.7252 285.485 92.6494C285.369 92.5737 285.188 92.5204 284.942 92.4896L285.102 91.7687ZM290.858 91.79H289.211L291.721 84.5173H293.703L296.21 91.79H294.562L292.74 86.1792H292.684L290.858 91.79ZM290.755 88.9314H294.647V90.1317H290.755V88.9314ZM301.978 91.79H299.4V84.5173H301.999C302.731 84.5173 303.36 84.6629 303.888 84.9541C304.416 85.2429 304.822 85.6584 305.106 86.2006C305.393 86.7427 305.536 87.3914 305.536 88.1466C305.536 88.9041 305.393 89.5552 305.106 90.0997C304.822 90.6442 304.414 91.0621 303.881 91.3532C303.351 91.6444 302.716 91.79 301.978 91.79ZM300.937 90.4726H301.914C302.368 90.4726 302.751 90.3921 303.061 90.2311C303.373 90.0677 303.608 89.8156 303.764 89.4747C303.923 89.1314 304.002 88.6887 304.002 88.1466C304.002 87.6092 303.923 87.17 303.764 86.8291C303.608 86.4882 303.375 86.2372 303.064 86.0763C302.754 85.9153 302.372 85.8348 301.917 85.8348H300.937V90.4726ZM313.358 88.1537C313.358 88.9468 313.208 89.6215 312.907 90.1778C312.609 90.7342 312.202 91.1591 311.686 91.4527C311.172 91.7439 310.594 91.8895 309.953 91.8895C309.306 91.8895 308.726 91.7427 308.213 91.4491C307.699 91.1556 307.293 90.7306 306.995 90.1743C306.696 89.6179 306.547 88.9444 306.547 88.1537C306.547 87.3606 306.696 86.6859 306.995 86.1295C307.293 85.5732 307.699 85.1494 308.213 84.8582C308.726 84.5647 309.306 84.4179 309.953 84.4179C310.594 84.4179 311.172 84.5647 311.686 84.8582C312.202 85.1494 312.609 85.5732 312.907 86.1295C313.208 86.6859 313.358 87.3606 313.358 88.1537ZM311.799 88.1537C311.799 87.6399 311.722 87.2067 311.569 86.854C311.417 86.5012 311.203 86.2337 310.926 86.0514C310.649 85.8691 310.324 85.778 309.953 85.778C309.581 85.778 309.257 85.8691 308.98 86.0514C308.703 86.2337 308.487 86.5012 308.333 86.854C308.182 87.2067 308.106 87.6399 308.106 88.1537C308.106 88.6674 308.182 89.1006 308.333 89.4534C308.487 89.8061 308.703 90.0737 308.98 90.2559C309.257 90.4382 309.581 90.5294 309.953 90.5294C310.324 90.5294 310.649 90.4382 310.926 90.2559C311.203 90.0737 311.417 89.8061 311.569 89.4534C311.722 89.1006 311.799 88.6674 311.799 88.1537ZM316.812 91.79V84.5173H321.712V85.7851H318.349V87.518H321.46V88.7858H318.349V90.5223H321.727V91.79H316.812ZM326.88 86.6089C326.852 86.3225 326.73 86.0999 326.514 85.9413C326.299 85.7827 326.007 85.7034 325.637 85.7034C325.386 85.7034 325.174 85.7389 325.002 85.8099C324.829 85.8786 324.696 85.9745 324.604 86.0976C324.514 86.2207 324.469 86.3604 324.469 86.5166C324.464 86.6468 324.491 86.7604 324.551 86.8575C324.612 86.9546 324.696 87.0386 324.803 87.1096C324.909 87.1783 325.032 87.2387 325.172 87.2907C325.312 87.3405 325.461 87.3831 325.619 87.4186L326.273 87.5748C326.59 87.6459 326.881 87.7406 327.146 87.8589C327.412 87.9773 327.641 88.1229 327.835 88.2957C328.03 88.4685 328.18 88.6721 328.286 88.9065C328.395 89.1409 328.451 89.4096 328.453 89.7126C328.451 90.1577 328.337 90.5436 328.112 90.8703C327.89 91.1946 327.568 91.4468 327.146 91.6267C326.727 91.8042 326.222 91.893 325.63 91.893C325.043 91.893 324.532 91.8031 324.096 91.6231C323.663 91.4432 323.324 91.1769 323.08 90.8241C322.839 90.469 322.712 90.0299 322.7 89.5067H324.188C324.205 89.7505 324.275 89.9541 324.398 90.1175C324.523 90.2784 324.69 90.4004 324.899 90.4832C325.109 90.5637 325.347 90.604 325.612 90.604C325.873 90.604 326.099 90.5661 326.291 90.4903C326.485 90.4146 326.635 90.3092 326.742 90.1743C326.848 90.0393 326.901 89.8843 326.901 89.7091C326.901 89.5457 326.853 89.4084 326.756 89.2971C326.661 89.1859 326.521 89.0912 326.337 89.0131C326.155 88.9349 325.931 88.8639 325.666 88.8L324.874 88.6011C324.261 88.452 323.776 88.2188 323.421 87.9015C323.066 87.5843 322.89 87.157 322.892 86.6196C322.89 86.1792 323.007 85.7945 323.244 85.4655C323.483 85.1364 323.811 84.8795 324.227 84.6949C324.644 84.5102 325.118 84.4179 325.648 84.4179C326.188 84.4179 326.659 84.5102 327.061 84.6949C327.466 84.8795 327.781 85.1364 328.006 85.4655C328.231 85.7945 328.347 86.1757 328.354 86.6089H326.88ZM329.211 85.7851V84.5173H335.184V85.7851H332.957V91.79H331.437V85.7851H329.211ZM336.532 91.79H334.884L337.395 84.5173H339.377L341.884 91.79H340.236L338.414 86.1792H338.357L336.532 91.79ZM336.429 88.9314H340.321V90.1317H336.429V88.9314ZM345.337 91.79H342.759V84.5173H345.358C346.09 84.5173 346.72 84.6629 347.248 84.9541C347.776 85.2429 348.182 85.6584 348.466 86.2006C348.752 86.7427 348.895 87.3914 348.895 88.1466C348.895 88.9041 348.752 89.5552 348.466 90.0997C348.182 90.6442 347.773 91.0621 347.241 91.3532C346.71 91.6444 346.076 91.79 345.337 91.79ZM344.297 90.4726H345.273C345.728 90.4726 346.11 90.3921 346.42 90.2311C346.733 90.0677 346.967 89.8156 347.123 89.4747C347.282 89.1314 347.361 88.6887 347.361 88.1466C347.361 87.6092 347.282 87.17 347.123 86.8291C346.967 86.4882 346.734 86.2372 346.424 86.0763C346.114 85.9153 345.731 85.8348 345.277 85.8348H344.297V90.4726ZM356.718 88.1537C356.718 88.9468 356.567 89.6215 356.267 90.1778C355.968 90.7342 355.561 91.1591 355.045 91.4527C354.531 91.7439 353.954 91.8895 353.312 91.8895C352.666 91.8895 352.086 91.7427 351.572 91.4491C351.058 91.1556 350.652 90.7306 350.354 90.1743C350.056 89.6179 349.907 88.9444 349.907 88.1537C349.907 87.3606 350.056 86.6859 350.354 86.1295C350.652 85.5732 351.058 85.1494 351.572 84.8582C352.086 84.5647 352.666 84.4179 353.312 84.4179C353.954 84.4179 354.531 84.5647 355.045 84.8582C355.561 85.1494 355.968 85.5732 356.267 86.1295C356.567 86.6859 356.718 87.3606 356.718 88.1537ZM355.159 88.1537C355.159 87.6399 355.082 87.2067 354.928 86.854C354.776 86.5012 354.562 86.2337 354.285 86.0514C354.008 85.8691 353.684 85.778 353.312 85.778C352.94 85.778 352.616 85.8691 352.339 86.0514C352.062 86.2337 351.847 86.5012 351.693 86.854C351.541 87.2067 351.466 87.6399 351.466 88.1537C351.466 88.6674 351.541 89.1006 351.693 89.4534C351.847 89.8061 352.062 90.0737 352.339 90.2559C352.616 90.4382 352.94 90.5294 353.312 90.5294C353.684 90.5294 354.008 90.4382 354.285 90.2559C354.562 90.0737 354.776 89.8061 354.928 89.4534C355.082 89.1006 355.159 88.6674 355.159 88.1537ZM362.749 91.79H360.171V84.5173H362.771C363.502 84.5173 364.132 84.6629 364.66 84.9541C365.188 85.2429 365.594 85.6584 365.878 86.2006C366.164 86.7427 366.308 87.3914 366.308 88.1466C366.308 88.9041 366.164 89.5552 365.878 90.0997C365.594 90.6442 365.185 91.0621 364.653 91.3532C364.122 91.6444 363.488 91.79 362.749 91.79ZM361.709 90.4726H362.685C363.14 90.4726 363.522 90.3921 363.832 90.2311C364.145 90.0677 364.379 89.8156 364.536 89.4747C364.694 89.1314 364.773 88.6887 364.773 88.1466C364.773 87.6092 364.694 87.17 364.536 86.8291C364.379 86.4882 364.146 86.2372 363.836 86.0763C363.526 85.9153 363.143 85.8348 362.689 85.8348H361.709V90.4726ZM374.13 88.1537C374.13 88.9468 373.979 89.6215 373.679 90.1778C373.381 90.7342 372.973 91.1591 372.457 91.4527C371.943 91.7439 371.366 91.8895 370.724 91.8895C370.078 91.8895 369.498 91.7427 368.984 91.4491C368.47 91.1556 368.064 90.7306 367.766 90.1743C367.468 89.6179 367.319 88.9444 367.319 88.1537C367.319 87.3606 367.468 86.6859 367.766 86.1295C368.064 85.5732 368.47 85.1494 368.984 84.8582C369.498 84.5647 370.078 84.4179 370.724 84.4179C371.366 84.4179 371.943 84.5647 372.457 84.8582C372.973 85.1494 373.381 85.5732 373.679 86.1295C373.979 86.6859 374.13 87.3606 374.13 88.1537ZM372.571 88.1537C372.571 87.6399 372.494 87.2067 372.34 86.854C372.189 86.5012 371.974 86.2337 371.697 86.0514C371.42 85.8691 371.096 85.778 370.724 85.778C370.353 85.778 370.028 85.8691 369.751 86.0514C369.474 86.2337 369.259 86.5012 369.105 86.854C368.953 87.2067 368.878 87.6399 368.878 88.1537C368.878 88.6674 368.953 89.1006 369.105 89.4534C369.259 89.8061 369.474 90.0737 369.751 90.2559C370.028 90.4382 370.353 90.5294 370.724 90.5294C371.096 90.5294 371.42 90.4382 371.697 90.2559C371.974 90.0737 372.189 89.8061 372.34 89.4534C372.494 89.1006 372.571 88.6674 372.571 88.1537ZM377.583 84.5173H379.48L381.482 89.4037H381.568L383.57 84.5173H385.467V91.79H383.975V87.0564H383.915L382.033 91.7545H381.017L379.135 87.0386H379.075V91.79H377.583V84.5173ZM387.987 91.79H386.339L388.85 84.5173H390.832L393.339 91.79H391.691L389.869 86.1792H389.812L387.987 91.79ZM387.884 88.9314H391.776V90.1317H387.884V88.9314ZM394.214 91.79V84.5173H397.083C397.633 84.5173 398.101 84.6156 398.49 84.8121C398.88 85.0062 399.177 85.282 399.381 85.6395C399.587 85.9946 399.69 86.4124 399.69 86.893C399.69 87.376 399.586 87.7915 399.377 88.1395C399.169 88.4851 398.867 88.7503 398.472 88.9349C398.079 89.1196 397.603 89.2119 397.044 89.2119H395.123V87.9761H396.796C397.089 87.9761 397.333 87.9359 397.527 87.8554C397.721 87.7749 397.866 87.6541 397.961 87.4932C398.058 87.3322 398.106 87.1321 398.106 86.893C398.106 86.6515 398.058 86.4479 397.961 86.2822C397.866 86.1165 397.72 85.991 397.524 85.9058C397.33 85.8182 397.085 85.7744 396.789 85.7744H395.752V91.79H394.214ZM398.142 88.4804L399.949 91.79H398.252L396.483 88.4804H398.142ZM402.03 91.79H400.382L402.893 84.5173H404.875L407.382 91.79H405.734L403.912 86.1792H403.855L402.03 91.79ZM401.927 88.9314H405.819V90.1317H401.927V88.9314ZM414.34 84.5173V91.79H413.012L409.848 87.2126H409.795V91.79H408.257V84.5173H409.607L412.746 89.0912H412.81V84.5173H414.34ZM415.611 91.79V84.5173H417.148V87.518H420.27V84.5173H421.804V91.79H420.27V88.7858H417.148V91.79H415.611ZM424.325 91.79H422.677L425.188 84.5173H427.17L429.677 91.79H428.029L426.207 86.1792H426.15L424.325 91.79ZM424.222 88.9314H428.114V90.1317H424.222V88.9314ZM425.16 83.8L424.322 83.7893C424.322 83.3372 424.433 82.9903 424.655 82.7488C424.878 82.5074 425.151 82.3854 425.476 82.3831C425.641 82.3831 425.783 82.4103 425.902 82.4648C426.02 82.5168 426.128 82.5784 426.225 82.6494C426.322 82.7204 426.414 82.7832 426.502 82.8376C426.59 82.8897 426.684 82.9157 426.786 82.9157C426.923 82.9134 427.028 82.8625 427.099 82.7631C427.172 82.6613 427.209 82.5287 427.209 82.3653L428.036 82.3902C428.031 82.8376 427.918 83.1833 427.695 83.4271C427.473 83.6686 427.2 83.7905 426.878 83.7929C426.703 83.7952 426.555 83.7692 426.434 83.7148C426.316 83.6603 426.212 83.5988 426.122 83.5301C426.032 83.4591 425.944 83.3963 425.859 83.3419C425.774 83.2874 425.678 83.2602 425.572 83.2602C425.448 83.2602 425.349 83.3087 425.273 83.4058C425.198 83.5029 425.16 83.6343 425.16 83.8ZM436.893 88.1537C436.893 88.9468 436.743 89.6215 436.442 90.1778C436.144 90.7342 435.737 91.1591 435.221 91.4527C434.707 91.7439 434.129 91.8895 433.488 91.8895C432.842 91.8895 432.262 91.7427 431.748 91.4491C431.234 91.1556 430.828 90.7306 430.53 90.1743C430.232 89.6179 430.082 88.9444 430.082 88.1537C430.082 87.3606 430.232 86.6859 430.53 86.1295C430.828 85.5732 431.234 85.1494 431.748 84.8582C432.262 84.5647 432.842 84.4179 433.488 84.4179C434.129 84.4179 434.707 84.5647 435.221 84.8582C435.737 85.1494 436.144 85.5732 436.442 86.1295C436.743 86.6859 436.893 87.3606 436.893 88.1537ZM435.335 88.1537C435.335 87.6399 435.258 87.2067 435.104 86.854C434.952 86.5012 434.738 86.2337 434.461 86.0514C434.184 85.8691 433.86 85.778 433.488 85.778C433.116 85.778 432.792 85.8691 432.515 86.0514C432.238 86.2337 432.022 86.5012 431.869 86.854C431.717 87.2067 431.641 87.6399 431.641 88.1537C431.641 88.6674 431.717 89.1006 431.869 89.4534C432.022 89.8061 432.238 90.0737 432.515 90.2559C432.792 90.4382 433.116 90.5294 433.488 90.5294C433.86 90.5294 434.184 90.4382 434.461 90.2559C434.738 90.0737 434.952 89.8061 435.104 89.4534C435.258 89.1006 435.335 88.6674 435.335 88.1537Z" fill="#083EA1"/>
<defs>
<linearGradient id="paint0_linear_2564_289" x1="217.846" y1="11.75" x2="217.846" y2="33.894" gradientUnits="userSpaceOnUse">
<stop stop-color="white" stop-opacity="0"/>
<stop offset="0.084" stop-color="white" stop-opacity="0"/>
<stop offset="1" stop-color="#ABCDDE"/>
</linearGradient>
<linearGradient id="paint1_linear_2564_289" x1="314.486" y1="11.75" x2="314.486" y2="60.165" gradientUnits="userSpaceOnUse">
<stop stop-color="white" stop-opacity="0"/>
<stop offset="0.084" stop-color="white" stop-opacity="0"/>
<stop offset="1" stop-color="#ABCDDE"/>
</linearGradient>
<linearGradient id="paint2_linear_2564_289" x1="259.071" y1="11.75" x2="259.071" y2="56.683" gradientUnits="userSpaceOnUse">
<stop stop-color="white" stop-opacity="0"/>
<stop offset="0.084" stop-color="white" stop-opacity="0"/>
<stop offset="1" stop-color="#ABCDDE"/>
</linearGradient>
<linearGradient id="paint3_linear_2564_289" x1="384.517" y1="11.75" x2="384.517" y2="35.906" gradientUnits="userSpaceOnUse">
<stop stop-color="white" stop-opacity="0"/>
<stop offset="0.084" stop-color="white" stop-opacity="0"/>
<stop offset="1" stop-color="#ABCDDE"/>
</linearGradient>
</defs>
</svg>
