<svg width="35" height="9" viewBox="0 0 35 9" fill="none" xmlns="http://www.w3.org/2000/svg">
<path d="M27.8879 8.72727H25.3311L28.2117 0H31.4504L34.3311 8.72727H31.7742L29.8651 2.40341H29.797L27.8879 8.72727ZM27.4106 5.28409H32.2174V7.05682H27.4106V5.28409Z" fill="black"/>
<path d="M14.4414 0H17.3903L19.4187 4.94318H19.521L21.5494 0H24.4982V8.72727H22.18V3.68182H22.1119L20.1687 8.65909H18.771L16.8278 3.64773H16.7596V8.72727H14.4414V0Z" fill="black"/>
<path d="M10.9837 0H13.3189V5.98295C13.3161 6.55114 13.1726 7.05114 12.8885 7.48295C12.6073 7.91193 12.2181 8.24716 11.7209 8.48864C11.2266 8.72727 10.657 8.84659 10.0121 8.84659C9.45246 8.84659 8.94109 8.75 8.47803 8.55682C8.01496 8.3608 7.64564 8.05398 7.37007 7.63636C7.0945 7.21591 6.95814 6.67045 6.96098 6H9.3303C9.33882 6.21875 9.37575 6.40341 9.44109 6.55398C9.50928 6.70455 9.60303 6.81818 9.72234 6.89489C9.8445 6.96875 9.99223 7.00568 10.1655 7.00568C10.3417 7.00568 10.4894 6.96733 10.6087 6.89062C10.7309 6.81392 10.8232 6.70028 10.8857 6.54972C10.9482 6.39631 10.9809 6.20739 10.9837 5.98295V0Z" fill="black"/>
<path d="M0 1.90909V0H7.58523V1.90909H4.96023V8.72727H2.625V1.90909H0Z" fill="black"/>
</svg>
